G04 #@! TF.GenerationSoftware,KiCad,Pcbnew,9.0.0*
G04 #@! TF.CreationDate,2025-08-20T08:59:42+02:00*
G04 #@! TF.ProjectId,gdp,6764702e-6b69-4636-9164-5f7063625858,rev?*
G04 #@! TF.SameCoordinates,Original*
G04 #@! TF.FileFunction,Copper,L2,Inr*
G04 #@! TF.FilePolarity,Positive*
%FSLAX46Y46*%
G04 Gerber Fmt 4.6, Leading zero omitted, Abs format (unit mm)*
G04 Created by KiCad (PCBNEW 9.0.0) date 2025-08-20 08:59:42*
%MOMM*%
%LPD*%
G01*
G04 APERTURE LIST*
G04 #@! TA.AperFunction,ComponentPad*
%ADD10C,1.400000*%
G04 #@! TD*
G04 #@! TA.AperFunction,ComponentPad*
%ADD11C,1.700000*%
G04 #@! TD*
G04 #@! TA.AperFunction,ComponentPad*
%ADD12C,4.000000*%
G04 #@! TD*
G04 #@! TA.AperFunction,ViaPad*
%ADD13C,1.000000*%
G04 #@! TD*
G04 #@! TA.AperFunction,Conductor*
%ADD14C,0.250000*%
G04 #@! TD*
G04 #@! TA.AperFunction,Conductor*
%ADD15C,1.000000*%
G04 #@! TD*
G04 #@! TA.AperFunction,Conductor*
%ADD16C,4.000000*%
G04 #@! TD*
G04 #@! TA.AperFunction,Conductor*
%ADD17C,3.000000*%
G04 #@! TD*
G04 APERTURE END LIST*
D10*
X166370000Y-63500000D03*
X166370000Y-73660000D03*
X83820000Y-107950000D03*
X83820000Y-110490000D03*
X83820000Y-113030000D03*
X83820000Y-115570000D03*
X83820000Y-118110000D03*
X83820000Y-120650000D03*
X83820000Y-123190000D03*
X83820000Y-125730000D03*
X83820000Y-128270000D03*
X83820000Y-130810000D03*
X289560000Y-190500000D03*
X289560000Y-193040000D03*
X289560000Y-195580000D03*
X289560000Y-198120000D03*
X289560000Y-200660000D03*
X289560000Y-203200000D03*
X289560000Y-205740000D03*
X289560000Y-208280000D03*
X289560000Y-210820000D03*
D11*
X292100000Y-167640000D03*
D10*
X292100000Y-170180000D03*
X292100000Y-172720000D03*
X292100000Y-175260000D03*
X292100000Y-177800000D03*
X292100000Y-180340000D03*
X292100000Y-182880000D03*
X292100000Y-185420000D03*
X299720000Y-185420000D03*
X299720000Y-182880000D03*
X299720000Y-180340000D03*
X299720000Y-177800000D03*
X299720000Y-175260000D03*
X299720000Y-172720000D03*
X299720000Y-170180000D03*
X299720000Y-167640000D03*
X200660000Y-187720000D03*
X200660000Y-172720000D03*
X142240000Y-208510000D03*
X142240000Y-195510000D03*
X132080000Y-73660000D03*
X132080000Y-83820000D03*
X205940000Y-175260000D03*
X218440000Y-175260000D03*
X201930000Y-76240000D03*
X201930000Y-81240000D03*
D11*
X261620000Y-121920000D03*
D10*
X264160000Y-121920000D03*
X266700000Y-121920000D03*
X269240000Y-121920000D03*
X271780000Y-121920000D03*
X274320000Y-121920000D03*
X276860000Y-121920000D03*
X279400000Y-121920000D03*
X281940000Y-121920000D03*
X284480000Y-121920000D03*
X284480000Y-114300000D03*
X281940000Y-114300000D03*
X279400000Y-114300000D03*
X276860000Y-114300000D03*
X274320000Y-114300000D03*
X271780000Y-114300000D03*
X269240000Y-114300000D03*
X266700000Y-114300000D03*
X264160000Y-114300000D03*
X261620000Y-114300000D03*
X198120000Y-208280000D03*
X195580000Y-208280000D03*
X199390000Y-102910000D03*
X199390000Y-107910000D03*
X335280000Y-138430000D03*
X340280000Y-138430000D03*
X314960000Y-138430000D03*
X319960000Y-138430000D03*
X147320000Y-208510000D03*
X147320000Y-195510000D03*
X161925000Y-63500000D03*
X161925000Y-73660000D03*
D11*
X281940000Y-167640000D03*
D10*
X281940000Y-170180000D03*
X281940000Y-172720000D03*
X281940000Y-175260000D03*
X281940000Y-177800000D03*
X281940000Y-180340000D03*
X281940000Y-182880000D03*
X281940000Y-185420000D03*
X289560000Y-185420000D03*
X289560000Y-182880000D03*
X289560000Y-180340000D03*
X289560000Y-177800000D03*
X289560000Y-175260000D03*
X289560000Y-172720000D03*
X289560000Y-170180000D03*
X289560000Y-167640000D03*
X194310000Y-66040000D03*
X196850000Y-66040000D03*
X199390000Y-66040000D03*
X201930000Y-66040000D03*
X204470000Y-66040000D03*
X207010000Y-66040000D03*
X209550000Y-66040000D03*
X212090000Y-66040000D03*
X214630000Y-66040000D03*
X217170000Y-66040000D03*
X219710000Y-66040000D03*
X222250000Y-66040000D03*
X224790000Y-66040000D03*
X227330000Y-66040000D03*
X229870000Y-66040000D03*
X232410000Y-66040000D03*
X234950000Y-66040000D03*
X237490000Y-66040000D03*
X240030000Y-66040000D03*
X242570000Y-66040000D03*
X245110000Y-66040000D03*
X247650000Y-66040000D03*
X250190000Y-66040000D03*
X252730000Y-66040000D03*
X255270000Y-66040000D03*
X257810000Y-66040000D03*
X260350000Y-66040000D03*
X262890000Y-66040000D03*
X265430000Y-66040000D03*
X267970000Y-66040000D03*
X270510000Y-66040000D03*
X273050000Y-66040000D03*
D11*
X271780000Y-142240000D03*
D10*
X271780000Y-144780000D03*
X271780000Y-147320000D03*
X271780000Y-149860000D03*
X271780000Y-152400000D03*
X271780000Y-154940000D03*
X271780000Y-157480000D03*
X271780000Y-160020000D03*
X279400000Y-160020000D03*
X279400000Y-157480000D03*
X279400000Y-154940000D03*
X279400000Y-152400000D03*
X279400000Y-149860000D03*
X279400000Y-147320000D03*
X279400000Y-144780000D03*
X279400000Y-142240000D03*
X284480000Y-163830000D03*
X289480000Y-163830000D03*
X113030000Y-88940000D03*
X113030000Y-93940000D03*
X198120000Y-210820000D03*
X195580000Y-210820000D03*
X325120000Y-138430000D03*
X330120000Y-138430000D03*
X264160000Y-163830000D03*
X269160000Y-163830000D03*
D11*
X302260000Y-167640000D03*
D10*
X302260000Y-170180000D03*
X302260000Y-172720000D03*
X302260000Y-175260000D03*
X302260000Y-177800000D03*
X302260000Y-180340000D03*
X302260000Y-182880000D03*
X302260000Y-185420000D03*
X309880000Y-185420000D03*
X309880000Y-182880000D03*
X309880000Y-180340000D03*
X309880000Y-177800000D03*
X309880000Y-175260000D03*
X309880000Y-172720000D03*
X309880000Y-170180000D03*
X309880000Y-167640000D03*
X198120000Y-83815000D03*
X198120000Y-86355000D03*
X106680000Y-101900000D03*
X106680000Y-88900000D03*
X210820000Y-182880000D03*
X205820000Y-182880000D03*
X325120000Y-163830000D03*
X330120000Y-163830000D03*
D11*
X152400000Y-193040000D03*
D10*
X154940000Y-193040000D03*
X157480000Y-193040000D03*
X160020000Y-193040000D03*
X162560000Y-193040000D03*
X165100000Y-193040000D03*
X167640000Y-193040000D03*
X167640000Y-185420000D03*
X165100000Y-185420000D03*
X162560000Y-185420000D03*
X160020000Y-185420000D03*
X157480000Y-185420000D03*
X154940000Y-185420000D03*
X152400000Y-185420000D03*
D11*
X203205000Y-96520000D03*
D10*
X205745000Y-96520000D03*
X208285000Y-96520000D03*
X210825000Y-96520000D03*
X213365000Y-96520000D03*
X215905000Y-96520000D03*
X218445000Y-96520000D03*
X220985000Y-96520000D03*
X223525000Y-96520000D03*
X226065000Y-96520000D03*
X226065000Y-88900000D03*
X223525000Y-88900000D03*
X220985000Y-88900000D03*
X218445000Y-88900000D03*
X215905000Y-88900000D03*
X213365000Y-88900000D03*
X210825000Y-88900000D03*
X208285000Y-88900000D03*
X205745000Y-88900000D03*
X203205000Y-88900000D03*
X144780000Y-208510000D03*
X144780000Y-195510000D03*
D11*
X233680000Y-156210000D03*
D10*
X236220000Y-156210000D03*
X238760000Y-156210000D03*
X241300000Y-156210000D03*
X243840000Y-156210000D03*
X246380000Y-156210000D03*
X248920000Y-156210000D03*
X251460000Y-156210000D03*
X254000000Y-156210000D03*
X256540000Y-156210000D03*
X256540000Y-148590000D03*
X254000000Y-148590000D03*
X251460000Y-148590000D03*
X248920000Y-148590000D03*
X246380000Y-148590000D03*
X243840000Y-148590000D03*
X241300000Y-148590000D03*
X238760000Y-148590000D03*
X236220000Y-148590000D03*
X233680000Y-148590000D03*
X137240000Y-187960000D03*
X142240000Y-187960000D03*
X91440000Y-137240000D03*
X91440000Y-142240000D03*
X199390000Y-125730000D03*
X199390000Y-130730000D03*
X163830000Y-76200000D03*
X163830000Y-86360000D03*
D11*
X140970000Y-127000000D03*
D10*
X143510000Y-127000000D03*
X146050000Y-127000000D03*
X148590000Y-127000000D03*
X151130000Y-127000000D03*
X153670000Y-127000000D03*
X156210000Y-127000000D03*
X158750000Y-127000000D03*
X161290000Y-127000000D03*
X163830000Y-127000000D03*
X163830000Y-119380000D03*
X161290000Y-119380000D03*
X158750000Y-119380000D03*
X156210000Y-119380000D03*
X153670000Y-119380000D03*
X151130000Y-119380000D03*
X148590000Y-119380000D03*
X146050000Y-119380000D03*
X143510000Y-119380000D03*
X140970000Y-119380000D03*
D11*
X312420000Y-142240000D03*
D10*
X312420000Y-144780000D03*
X312420000Y-147320000D03*
X312420000Y-149860000D03*
X312420000Y-152400000D03*
X312420000Y-154940000D03*
X312420000Y-157480000D03*
X312420000Y-160020000D03*
X320040000Y-160020000D03*
X320040000Y-157480000D03*
X320040000Y-154940000D03*
X320040000Y-152400000D03*
X320040000Y-149860000D03*
X320040000Y-147320000D03*
X320040000Y-144780000D03*
X320040000Y-142240000D03*
X115787898Y-188177898D03*
X119380000Y-188177898D03*
X119380000Y-191770000D03*
X139700000Y-208510000D03*
X139700000Y-195510000D03*
X304800000Y-163830000D03*
X309800000Y-163830000D03*
X114300000Y-76240000D03*
X114300000Y-81240000D03*
X121920000Y-182880000D03*
X108920000Y-182880000D03*
D11*
X271780000Y-167640000D03*
D10*
X271780000Y-170180000D03*
X271780000Y-172720000D03*
X271780000Y-175260000D03*
X271780000Y-177800000D03*
X271780000Y-180340000D03*
X271780000Y-182880000D03*
X271780000Y-185420000D03*
X279400000Y-185420000D03*
X279400000Y-182880000D03*
X279400000Y-180340000D03*
X279400000Y-177800000D03*
X279400000Y-175260000D03*
X279400000Y-172720000D03*
X279400000Y-170180000D03*
X279400000Y-167640000D03*
D11*
X170180000Y-127000000D03*
D10*
X172720000Y-127000000D03*
X175260000Y-127000000D03*
X177800000Y-127000000D03*
X180340000Y-127000000D03*
X182880000Y-127000000D03*
X185420000Y-127000000D03*
X187960000Y-127000000D03*
X190500000Y-127000000D03*
X193040000Y-127000000D03*
X193040000Y-119380000D03*
X190500000Y-119380000D03*
X187960000Y-119380000D03*
X185420000Y-119380000D03*
X182880000Y-119380000D03*
X180340000Y-119380000D03*
X177800000Y-119380000D03*
X175260000Y-119380000D03*
X172720000Y-119380000D03*
X170180000Y-119380000D03*
D11*
X292100000Y-193040000D03*
D10*
X292100000Y-195580000D03*
X292100000Y-198120000D03*
X292100000Y-200660000D03*
X292100000Y-203200000D03*
X292100000Y-205740000D03*
X292100000Y-208280000D03*
X299720000Y-208280000D03*
X299720000Y-205740000D03*
X299720000Y-203200000D03*
X299720000Y-200660000D03*
X299720000Y-198120000D03*
X299720000Y-195580000D03*
X299720000Y-193040000D03*
X104140000Y-195880000D03*
X104140000Y-182880000D03*
X124460000Y-208510000D03*
X124460000Y-195510000D03*
D11*
X332740000Y-193040000D03*
D10*
X332740000Y-195580000D03*
X332740000Y-198120000D03*
X332740000Y-200660000D03*
X332740000Y-203200000D03*
X332740000Y-205740000D03*
X332740000Y-208280000D03*
X340360000Y-208280000D03*
X340360000Y-205740000D03*
X340360000Y-203200000D03*
X340360000Y-200660000D03*
X340360000Y-198120000D03*
X340360000Y-195580000D03*
X340360000Y-193040000D03*
D11*
X205740000Y-83820000D03*
D10*
X208280000Y-83820000D03*
X210820000Y-83820000D03*
X213360000Y-83820000D03*
X215900000Y-83820000D03*
X218440000Y-83820000D03*
X220980000Y-83820000D03*
X223520000Y-83820000D03*
X223520000Y-76200000D03*
X220980000Y-76200000D03*
X218440000Y-76200000D03*
X215900000Y-76200000D03*
X213360000Y-76200000D03*
X210820000Y-76200000D03*
X208280000Y-76200000D03*
X205740000Y-76200000D03*
D11*
X292100000Y-142240000D03*
D10*
X292100000Y-144780000D03*
X292100000Y-147320000D03*
X292100000Y-149860000D03*
X292100000Y-152400000D03*
X292100000Y-154940000D03*
X292100000Y-157480000D03*
X292100000Y-160020000D03*
X299720000Y-160020000D03*
X299720000Y-157480000D03*
X299720000Y-154940000D03*
X299720000Y-152400000D03*
X299720000Y-149860000D03*
X299720000Y-147320000D03*
X299720000Y-144780000D03*
X299720000Y-142240000D03*
X91440000Y-173020000D03*
X91440000Y-160020000D03*
D11*
X203200000Y-156210000D03*
D10*
X205740000Y-156210000D03*
X208280000Y-156210000D03*
X210820000Y-156210000D03*
X213360000Y-156210000D03*
X215900000Y-156210000D03*
X218440000Y-156210000D03*
X220980000Y-156210000D03*
X223520000Y-156210000D03*
X226060000Y-156210000D03*
X226060000Y-148590000D03*
X223520000Y-148590000D03*
X220980000Y-148590000D03*
X218440000Y-148590000D03*
X215900000Y-148590000D03*
X213360000Y-148590000D03*
X210820000Y-148590000D03*
X208280000Y-148590000D03*
X205740000Y-148590000D03*
X203200000Y-148590000D03*
X205820000Y-171450000D03*
X210820000Y-171450000D03*
X137160000Y-76240000D03*
X137160000Y-81240000D03*
X189230000Y-63540000D03*
X189230000Y-68540000D03*
X232410000Y-185460000D03*
X232410000Y-190460000D03*
X129540000Y-208510000D03*
X129540000Y-195510000D03*
D11*
X289560000Y-134620000D03*
D10*
X292100000Y-134620000D03*
X294640000Y-134620000D03*
X297180000Y-134620000D03*
X299720000Y-134620000D03*
X302260000Y-134620000D03*
X304800000Y-134620000D03*
X307340000Y-134620000D03*
X309880000Y-134620000D03*
X312420000Y-134620000D03*
X312420000Y-127000000D03*
X309880000Y-127000000D03*
X307340000Y-127000000D03*
X304800000Y-127000000D03*
X302260000Y-127000000D03*
X299720000Y-127000000D03*
X297180000Y-127000000D03*
X294640000Y-127000000D03*
X292100000Y-127000000D03*
X289560000Y-127000000D03*
X331470000Y-64770000D03*
X334010000Y-64770000D03*
X107950000Y-193595000D03*
X107950000Y-188595000D03*
X325120000Y-190200000D03*
X325120000Y-203200000D03*
X83820000Y-162560000D03*
X83820000Y-165100000D03*
X83820000Y-167640000D03*
X83820000Y-170180000D03*
X83820000Y-172720000D03*
X83820000Y-175260000D03*
X83820000Y-177800000D03*
X83820000Y-180340000D03*
X83820000Y-182880000D03*
X83820000Y-185420000D03*
X226060000Y-165100000D03*
X228600000Y-165100000D03*
D11*
X236220000Y-208280000D03*
D10*
X238760000Y-208280000D03*
X241300000Y-208280000D03*
X243840000Y-208280000D03*
X246380000Y-208280000D03*
X248920000Y-208280000D03*
X251460000Y-208280000D03*
X251460000Y-200660000D03*
X248920000Y-200660000D03*
X246380000Y-200660000D03*
X243840000Y-200660000D03*
X241300000Y-200660000D03*
X238760000Y-200660000D03*
X236220000Y-200660000D03*
X200660000Y-165100000D03*
X200660000Y-160100000D03*
D11*
X205740000Y-193040000D03*
D10*
X208280000Y-193040000D03*
X210820000Y-193040000D03*
X213360000Y-193040000D03*
X215900000Y-193040000D03*
X218440000Y-193040000D03*
X220980000Y-193040000D03*
X223520000Y-193040000D03*
X223520000Y-185420000D03*
X220980000Y-185420000D03*
X218440000Y-185420000D03*
X215900000Y-185420000D03*
X213360000Y-185420000D03*
X210820000Y-185420000D03*
X208280000Y-185420000D03*
X205740000Y-185420000D03*
D11*
X289560000Y-69850000D03*
D10*
X292100000Y-69850000D03*
X294640000Y-69850000D03*
X297180000Y-69850000D03*
X299720000Y-69850000D03*
X302260000Y-69850000D03*
X304800000Y-69850000D03*
X307340000Y-69850000D03*
X307340000Y-62230000D03*
X304800000Y-62230000D03*
X302260000Y-62230000D03*
X299720000Y-62230000D03*
X297180000Y-62230000D03*
X294640000Y-62230000D03*
X292100000Y-62230000D03*
X289560000Y-62230000D03*
X274320000Y-138430000D03*
X279320000Y-138430000D03*
X100330000Y-81280000D03*
X100330000Y-83820000D03*
X318770000Y-76240000D03*
X318770000Y-81240000D03*
X137160000Y-88940000D03*
X137160000Y-93940000D03*
D11*
X302260000Y-193040000D03*
D10*
X302260000Y-195580000D03*
X302260000Y-198120000D03*
X302260000Y-200660000D03*
X302260000Y-203200000D03*
X302260000Y-205740000D03*
X302260000Y-208280000D03*
X302260000Y-210820000D03*
X309880000Y-210820000D03*
X309880000Y-208280000D03*
X309880000Y-205740000D03*
X309880000Y-203200000D03*
X309880000Y-200660000D03*
X309880000Y-198120000D03*
X309880000Y-195580000D03*
X309880000Y-193040000D03*
X335320000Y-189230000D03*
X340320000Y-189230000D03*
D11*
X116840000Y-96520000D03*
D10*
X119380000Y-96520000D03*
X121920000Y-96520000D03*
X124460000Y-96520000D03*
X127000000Y-96520000D03*
X129540000Y-96520000D03*
X132080000Y-96520000D03*
X132080000Y-88900000D03*
X129540000Y-88900000D03*
X127000000Y-88900000D03*
X124460000Y-88900000D03*
X121920000Y-88900000D03*
X119380000Y-88900000D03*
X116840000Y-88900000D03*
X148590000Y-185460000D03*
X148590000Y-190460000D03*
X195580000Y-146050000D03*
X190580000Y-146050000D03*
D11*
X236220000Y-167640000D03*
D10*
X238760000Y-167640000D03*
X241300000Y-167640000D03*
X243840000Y-167640000D03*
X246380000Y-167640000D03*
X248920000Y-167640000D03*
X251460000Y-167640000D03*
X251460000Y-160020000D03*
X248920000Y-160020000D03*
X246380000Y-160020000D03*
X243840000Y-160020000D03*
X241300000Y-160020000D03*
X238760000Y-160020000D03*
X236220000Y-160020000D03*
X199390000Y-148630000D03*
X199390000Y-153630000D03*
D11*
X170180000Y-142240000D03*
D10*
X172720000Y-142240000D03*
X175260000Y-142240000D03*
X177800000Y-142240000D03*
X180340000Y-142240000D03*
X182880000Y-142240000D03*
X185420000Y-142240000D03*
X187960000Y-142240000D03*
X190500000Y-142240000D03*
X193040000Y-142240000D03*
X193040000Y-134620000D03*
X190500000Y-134620000D03*
X187960000Y-134620000D03*
X185420000Y-134620000D03*
X182880000Y-134620000D03*
X180340000Y-134620000D03*
X177800000Y-134620000D03*
X175260000Y-134620000D03*
X172720000Y-134620000D03*
X170180000Y-134620000D03*
X220980000Y-214630000D03*
X215980000Y-214630000D03*
X137160000Y-63500000D03*
X137160000Y-68500000D03*
X137160000Y-101640000D03*
X137160000Y-106640000D03*
X137160000Y-119460000D03*
X137160000Y-124460000D03*
X257810000Y-195380000D03*
X257810000Y-182880000D03*
D11*
X332740000Y-142240000D03*
D10*
X332740000Y-144780000D03*
X332740000Y-147320000D03*
X332740000Y-149860000D03*
X332740000Y-152400000D03*
X332740000Y-154940000D03*
X332740000Y-157480000D03*
X332740000Y-160020000D03*
X340360000Y-160020000D03*
X340360000Y-157480000D03*
X340360000Y-154940000D03*
X340360000Y-152400000D03*
X340360000Y-149860000D03*
X340360000Y-147320000D03*
X340360000Y-144780000D03*
X340360000Y-142240000D03*
X163830000Y-112060000D03*
X163830000Y-99060000D03*
X195580000Y-83815000D03*
X195580000Y-86355000D03*
X175260000Y-146050000D03*
X170260000Y-146050000D03*
X318770000Y-88940000D03*
X318770000Y-93940000D03*
D11*
X205740000Y-167640000D03*
D10*
X208280000Y-167640000D03*
X210820000Y-167640000D03*
X213360000Y-167640000D03*
X215900000Y-167640000D03*
X218440000Y-167640000D03*
X220980000Y-167640000D03*
X220980000Y-160020000D03*
X218440000Y-160020000D03*
X215900000Y-160020000D03*
X213360000Y-160020000D03*
X210820000Y-160020000D03*
X208280000Y-160020000D03*
X205740000Y-160020000D03*
X193040000Y-112060000D03*
X193040000Y-99060000D03*
X134620000Y-208510000D03*
X134620000Y-195510000D03*
X96520000Y-101900000D03*
X96520000Y-88900000D03*
X104140000Y-101900000D03*
X104140000Y-88900000D03*
X83820000Y-144780000D03*
X83820000Y-147320000D03*
X83820000Y-149860000D03*
X134620000Y-107950000D03*
X129620000Y-107950000D03*
D11*
X322580000Y-142240000D03*
D10*
X322580000Y-144780000D03*
X322580000Y-147320000D03*
X322580000Y-149860000D03*
X322580000Y-152400000D03*
X322580000Y-154940000D03*
X322580000Y-157480000D03*
X322580000Y-160020000D03*
X330200000Y-160020000D03*
X330200000Y-157480000D03*
X330200000Y-154940000D03*
X330200000Y-152400000D03*
X330200000Y-149860000D03*
X330200000Y-147320000D03*
X330200000Y-144780000D03*
X330200000Y-142240000D03*
D12*
X82550000Y-66675000D03*
X82550000Y-75565000D03*
X87630000Y-66675000D03*
X87630000Y-75565000D03*
X92710000Y-66675000D03*
X92710000Y-75565000D03*
D10*
X274320000Y-163830000D03*
X279320000Y-163830000D03*
X227330000Y-76240000D03*
X227330000Y-81240000D03*
X203200000Y-99060000D03*
X205740000Y-99060000D03*
X208280000Y-99060000D03*
X210820000Y-99060000D03*
X213360000Y-99060000D03*
X215900000Y-99060000D03*
X218440000Y-99060000D03*
X220980000Y-99060000D03*
X223520000Y-99060000D03*
X83820000Y-193675000D03*
X86360000Y-193675000D03*
X294680000Y-163830000D03*
X299680000Y-163830000D03*
X127000000Y-208510000D03*
X127000000Y-195510000D03*
D11*
X302260000Y-142240000D03*
D10*
X302260000Y-144780000D03*
X302260000Y-147320000D03*
X302260000Y-149860000D03*
X302260000Y-152400000D03*
X302260000Y-154940000D03*
X302260000Y-157480000D03*
X302260000Y-160020000D03*
X309880000Y-160020000D03*
X309880000Y-157480000D03*
X309880000Y-154940000D03*
X309880000Y-152400000D03*
X309880000Y-149860000D03*
X309880000Y-147320000D03*
X309880000Y-144780000D03*
X309880000Y-142240000D03*
X205940000Y-179070000D03*
X218440000Y-179070000D03*
X229870000Y-148630000D03*
X229870000Y-153630000D03*
X251714000Y-210820000D03*
X238714000Y-210820000D03*
X340660000Y-69850000D03*
X327660000Y-69850000D03*
D11*
X99060000Y-149860000D03*
D10*
X99060000Y-152400000D03*
X99060000Y-154940000D03*
X99060000Y-157480000D03*
X99060000Y-160020000D03*
X99060000Y-162560000D03*
X99060000Y-165100000D03*
X99060000Y-167640000D03*
X99060000Y-170180000D03*
X99060000Y-172720000D03*
X99060000Y-175260000D03*
X99060000Y-177800000D03*
X114300000Y-177800000D03*
X114300000Y-175260000D03*
X114300000Y-172720000D03*
X114300000Y-170180000D03*
X114300000Y-167640000D03*
X114300000Y-165100000D03*
X114300000Y-162560000D03*
X114300000Y-160020000D03*
X114300000Y-157480000D03*
X114300000Y-154940000D03*
X114300000Y-152400000D03*
X114300000Y-149860000D03*
X294640000Y-138430000D03*
X299640000Y-138430000D03*
D11*
X140970000Y-96520000D03*
D10*
X143510000Y-96520000D03*
X146050000Y-96520000D03*
X148590000Y-96520000D03*
X151130000Y-96520000D03*
X153670000Y-96520000D03*
X156210000Y-96520000D03*
X158750000Y-96520000D03*
X161290000Y-96520000D03*
X163830000Y-96520000D03*
X163830000Y-88900000D03*
X161290000Y-88900000D03*
X158750000Y-88900000D03*
X156210000Y-88900000D03*
X153670000Y-88900000D03*
X151130000Y-88900000D03*
X148590000Y-88900000D03*
X146050000Y-88900000D03*
X143510000Y-88900000D03*
X140970000Y-88900000D03*
D11*
X140970000Y-71120000D03*
D10*
X143510000Y-71120000D03*
X146050000Y-71120000D03*
X148590000Y-71120000D03*
X151130000Y-71120000D03*
X153670000Y-71120000D03*
X156210000Y-71120000D03*
X156210000Y-63500000D03*
X153670000Y-63500000D03*
X151130000Y-63500000D03*
X148590000Y-63500000D03*
X146050000Y-63500000D03*
X143510000Y-63500000D03*
X140970000Y-63500000D03*
X194310000Y-63500000D03*
X196850000Y-63500000D03*
X199390000Y-63500000D03*
X201930000Y-63500000D03*
X204470000Y-63500000D03*
X207010000Y-63500000D03*
X209550000Y-63500000D03*
X212090000Y-63500000D03*
X214630000Y-63500000D03*
X217170000Y-63500000D03*
X219710000Y-63500000D03*
X222250000Y-63500000D03*
X224790000Y-63500000D03*
X227330000Y-63500000D03*
X229870000Y-63500000D03*
X232410000Y-63500000D03*
X234950000Y-63500000D03*
X237490000Y-63500000D03*
X240030000Y-63500000D03*
X242570000Y-63500000D03*
X245110000Y-63500000D03*
X247650000Y-63500000D03*
X250190000Y-63500000D03*
X252730000Y-63500000D03*
X255270000Y-63500000D03*
X257810000Y-63500000D03*
X260350000Y-63500000D03*
X262890000Y-63500000D03*
X265430000Y-63500000D03*
X267970000Y-63500000D03*
X270510000Y-63500000D03*
X273050000Y-63500000D03*
X199390000Y-114340000D03*
X199390000Y-119340000D03*
X195580000Y-112060000D03*
X195580000Y-99060000D03*
D11*
X312420000Y-167640000D03*
D10*
X312420000Y-170180000D03*
X312420000Y-172720000D03*
X312420000Y-175260000D03*
X312420000Y-177800000D03*
X312420000Y-180340000D03*
X312420000Y-182880000D03*
X312420000Y-185420000D03*
X320040000Y-185420000D03*
X320040000Y-182880000D03*
X320040000Y-180340000D03*
X320040000Y-177800000D03*
X320040000Y-175260000D03*
X320040000Y-172720000D03*
X320040000Y-170180000D03*
X320040000Y-167640000D03*
D11*
X281940000Y-142240000D03*
D10*
X281940000Y-144780000D03*
X281940000Y-147320000D03*
X281940000Y-149860000D03*
X281940000Y-152400000D03*
X281940000Y-154940000D03*
X281940000Y-157480000D03*
X281940000Y-160020000D03*
X289560000Y-160020000D03*
X289560000Y-157480000D03*
X289560000Y-154940000D03*
X289560000Y-152400000D03*
X289560000Y-149860000D03*
X289560000Y-147320000D03*
X289560000Y-144780000D03*
X289560000Y-142240000D03*
D11*
X203200000Y-133350000D03*
D10*
X205740000Y-133350000D03*
X208280000Y-133350000D03*
X210820000Y-133350000D03*
X213360000Y-133350000D03*
X215900000Y-133350000D03*
X218440000Y-133350000D03*
X220980000Y-133350000D03*
X223520000Y-133350000D03*
X226060000Y-133350000D03*
X226060000Y-125730000D03*
X223520000Y-125730000D03*
X220980000Y-125730000D03*
X218440000Y-125730000D03*
X215900000Y-125730000D03*
X213360000Y-125730000D03*
X210820000Y-125730000D03*
X208280000Y-125730000D03*
X205740000Y-125730000D03*
X203200000Y-125730000D03*
D11*
X261620000Y-193040000D03*
D10*
X261620000Y-195580000D03*
X261620000Y-198120000D03*
X261620000Y-200660000D03*
X261620000Y-203200000D03*
X261620000Y-205740000D03*
X261620000Y-208280000D03*
X269240000Y-208280000D03*
X269240000Y-205740000D03*
X269240000Y-203200000D03*
X269240000Y-200660000D03*
X269240000Y-198120000D03*
X269240000Y-195580000D03*
X269240000Y-193040000D03*
D11*
X261620000Y-167640000D03*
D10*
X261620000Y-170180000D03*
X261620000Y-172720000D03*
X261620000Y-175260000D03*
X261620000Y-177800000D03*
X261620000Y-180340000D03*
X261620000Y-182880000D03*
X261620000Y-185420000D03*
X269240000Y-185420000D03*
X269240000Y-182880000D03*
X269240000Y-180340000D03*
X269240000Y-177800000D03*
X269240000Y-175260000D03*
X269240000Y-172720000D03*
X269240000Y-170180000D03*
X269240000Y-167640000D03*
X190500000Y-112060000D03*
X190500000Y-99060000D03*
X166370000Y-76200000D03*
X166370000Y-86360000D03*
X119126000Y-196850000D03*
X119126000Y-201850000D03*
D11*
X317500000Y-121920000D03*
D10*
X320040000Y-121920000D03*
X322580000Y-121920000D03*
X325120000Y-121920000D03*
X327660000Y-121920000D03*
X330200000Y-121920000D03*
X332740000Y-121920000D03*
X335280000Y-121920000D03*
X337820000Y-121920000D03*
X340360000Y-121920000D03*
X340360000Y-114300000D03*
X337820000Y-114300000D03*
X335280000Y-114300000D03*
X332740000Y-114300000D03*
X330200000Y-114300000D03*
X327660000Y-114300000D03*
X325120000Y-114300000D03*
X322580000Y-114300000D03*
X320040000Y-114300000D03*
X317500000Y-114300000D03*
X201930000Y-69850000D03*
X201930000Y-72390000D03*
D11*
X317500000Y-134620000D03*
D10*
X320040000Y-134620000D03*
X322580000Y-134620000D03*
X325120000Y-134620000D03*
X327660000Y-134620000D03*
X330200000Y-134620000D03*
X332740000Y-134620000D03*
X335280000Y-134620000D03*
X337820000Y-134620000D03*
X340360000Y-134620000D03*
X340360000Y-127000000D03*
X337820000Y-127000000D03*
X335280000Y-127000000D03*
X332740000Y-127000000D03*
X330200000Y-127000000D03*
X327660000Y-127000000D03*
X325120000Y-127000000D03*
X322580000Y-127000000D03*
X320040000Y-127000000D03*
X317500000Y-127000000D03*
X294640000Y-189230000D03*
X299640000Y-189230000D03*
X223774000Y-196850000D03*
X218774000Y-196850000D03*
X102870000Y-81280000D03*
X102870000Y-83820000D03*
X128487898Y-188177898D03*
X132080000Y-188177898D03*
X132080000Y-191770000D03*
X257175000Y-91480000D03*
X257175000Y-96480000D03*
X175260000Y-197850000D03*
X175260000Y-185850000D03*
D11*
X236220000Y-180340000D03*
D10*
X238760000Y-180340000D03*
X241300000Y-180340000D03*
X243840000Y-180340000D03*
X246380000Y-180340000D03*
X248920000Y-180340000D03*
X251460000Y-180340000D03*
X254000000Y-180340000D03*
X254000000Y-172720000D03*
X251460000Y-172720000D03*
X248920000Y-172720000D03*
X246380000Y-172720000D03*
X243840000Y-172720000D03*
X241300000Y-172720000D03*
X238760000Y-172720000D03*
X236220000Y-172720000D03*
X227330000Y-193340000D03*
X227330000Y-180340000D03*
X313690000Y-203200000D03*
X313690000Y-190200000D03*
X304800000Y-189230000D03*
X309800000Y-189230000D03*
X304800000Y-138430000D03*
X309800000Y-138430000D03*
X284480000Y-138430000D03*
X289480000Y-138430000D03*
D11*
X322580000Y-83820000D03*
D10*
X325120000Y-83820000D03*
X327660000Y-83820000D03*
X330200000Y-83820000D03*
X332740000Y-83820000D03*
X335280000Y-83820000D03*
X337820000Y-83820000D03*
X340360000Y-83820000D03*
X340360000Y-76200000D03*
X337820000Y-76200000D03*
X335280000Y-76200000D03*
X332740000Y-76200000D03*
X330200000Y-76200000D03*
X327660000Y-76200000D03*
X325120000Y-76200000D03*
X322580000Y-76200000D03*
D11*
X332740000Y-167640000D03*
D10*
X332740000Y-170180000D03*
X332740000Y-172720000D03*
X332740000Y-175260000D03*
X332740000Y-177800000D03*
X332740000Y-180340000D03*
X332740000Y-182880000D03*
X332740000Y-185420000D03*
X340360000Y-185420000D03*
X340360000Y-182880000D03*
X340360000Y-180340000D03*
X340360000Y-177800000D03*
X340360000Y-175260000D03*
X340360000Y-172720000D03*
X340360000Y-170180000D03*
X340360000Y-167640000D03*
X93980000Y-101900000D03*
X93980000Y-88900000D03*
D11*
X180340000Y-149860000D03*
D10*
X180340000Y-152400000D03*
X180340000Y-154940000D03*
X180340000Y-157480000D03*
X180340000Y-160020000D03*
X180340000Y-162560000D03*
X180340000Y-165100000D03*
X180340000Y-167640000D03*
X180340000Y-170180000D03*
X180340000Y-172720000D03*
X180340000Y-175260000D03*
X180340000Y-177800000D03*
X180340000Y-180340000D03*
X180340000Y-182880000D03*
X180340000Y-185420000D03*
X180340000Y-187960000D03*
X180340000Y-190500000D03*
X180340000Y-193040000D03*
X180340000Y-195580000D03*
X180340000Y-198120000D03*
X195580000Y-198120000D03*
X195580000Y-195580000D03*
X195580000Y-193040000D03*
X195580000Y-190500000D03*
X195580000Y-187960000D03*
X195580000Y-185420000D03*
X195580000Y-182880000D03*
X195580000Y-180340000D03*
X195580000Y-177800000D03*
X195580000Y-175260000D03*
X195580000Y-172720000D03*
X195580000Y-170180000D03*
X195580000Y-167640000D03*
X195580000Y-165100000D03*
X195580000Y-162560000D03*
X195580000Y-160020000D03*
X195580000Y-157480000D03*
X195580000Y-154940000D03*
X195580000Y-152400000D03*
X195580000Y-149860000D03*
X93980000Y-175260000D03*
X93980000Y-185420000D03*
X134620000Y-146050000D03*
X129620000Y-146050000D03*
X163830000Y-63500000D03*
X163830000Y-73660000D03*
X198125000Y-203200000D03*
X195585000Y-203200000D03*
X190500000Y-83820000D03*
X190500000Y-86360000D03*
D11*
X231140000Y-83820000D03*
D10*
X233680000Y-83820000D03*
X236220000Y-83820000D03*
X238760000Y-83820000D03*
X241300000Y-83820000D03*
X243840000Y-83820000D03*
X246380000Y-83820000D03*
X248920000Y-83820000D03*
X251460000Y-83820000D03*
X254000000Y-83820000D03*
X254000000Y-76200000D03*
X251460000Y-76200000D03*
X248920000Y-76200000D03*
X246380000Y-76200000D03*
X243840000Y-76200000D03*
X241300000Y-76200000D03*
X238760000Y-76200000D03*
X236220000Y-76200000D03*
X233680000Y-76200000D03*
X231140000Y-76200000D03*
D11*
X261620000Y-83820000D03*
D10*
X264160000Y-83820000D03*
X266700000Y-83820000D03*
X269240000Y-83820000D03*
X271780000Y-83820000D03*
X274320000Y-83820000D03*
X276860000Y-83820000D03*
X279400000Y-83820000D03*
X281940000Y-83820000D03*
X284480000Y-83820000D03*
X284480000Y-76200000D03*
X281940000Y-76200000D03*
X279400000Y-76200000D03*
X276860000Y-76200000D03*
X274320000Y-76200000D03*
X271780000Y-76200000D03*
X269240000Y-76200000D03*
X266700000Y-76200000D03*
X264160000Y-76200000D03*
X261620000Y-76200000D03*
D11*
X140970000Y-142240000D03*
D10*
X143510000Y-142240000D03*
X146050000Y-142240000D03*
X148590000Y-142240000D03*
X151130000Y-142240000D03*
X153670000Y-142240000D03*
X156210000Y-142240000D03*
X158750000Y-142240000D03*
X161290000Y-142240000D03*
X163830000Y-142240000D03*
X163830000Y-134620000D03*
X161290000Y-134620000D03*
X158750000Y-134620000D03*
X156210000Y-134620000D03*
X153670000Y-134620000D03*
X151130000Y-134620000D03*
X148590000Y-134620000D03*
X146050000Y-134620000D03*
X143510000Y-134620000D03*
X140970000Y-134620000D03*
X256540000Y-127000000D03*
X256540000Y-114500000D03*
X137160000Y-182880000D03*
X124160000Y-182880000D03*
D11*
X261620000Y-142240000D03*
D10*
X261620000Y-144780000D03*
X261620000Y-147320000D03*
X261620000Y-149860000D03*
X261620000Y-152400000D03*
X261620000Y-154940000D03*
X261620000Y-157480000D03*
X261620000Y-160020000D03*
X269240000Y-160020000D03*
X269240000Y-157480000D03*
X269240000Y-154940000D03*
X269240000Y-152400000D03*
X269240000Y-149860000D03*
X269240000Y-147320000D03*
X269240000Y-144780000D03*
X269240000Y-142240000D03*
X199390000Y-137160000D03*
X199390000Y-142160000D03*
X256540000Y-142240000D03*
X256540000Y-129740000D03*
X238460000Y-198120000D03*
X251460000Y-198120000D03*
X223520000Y-203200000D03*
X223520000Y-208100000D03*
X257810000Y-198120000D03*
X257810000Y-208280000D03*
D11*
X261620000Y-106680000D03*
D10*
X264160000Y-106680000D03*
X266700000Y-106680000D03*
X269240000Y-106680000D03*
X271780000Y-106680000D03*
X274320000Y-106680000D03*
X276860000Y-106680000D03*
X279400000Y-106680000D03*
X281940000Y-106680000D03*
X284480000Y-106680000D03*
X287020000Y-106680000D03*
X289560000Y-106680000D03*
X292100000Y-106680000D03*
X294640000Y-106680000D03*
X297180000Y-106680000D03*
X299720000Y-106680000D03*
X302260000Y-106680000D03*
X304800000Y-106680000D03*
X307340000Y-106680000D03*
X309880000Y-106680000D03*
X309880000Y-91440000D03*
X307340000Y-91440000D03*
X304800000Y-91440000D03*
X302260000Y-91440000D03*
X299720000Y-91440000D03*
X297180000Y-91440000D03*
X294640000Y-91440000D03*
X292100000Y-91440000D03*
X289560000Y-91440000D03*
X287020000Y-91440000D03*
X284480000Y-91440000D03*
X281940000Y-91440000D03*
X279400000Y-91440000D03*
X276860000Y-91440000D03*
X274320000Y-91440000D03*
X271780000Y-91440000D03*
X269240000Y-91440000D03*
X266700000Y-91440000D03*
X264160000Y-91440000D03*
X261620000Y-91440000D03*
X114300000Y-146050000D03*
X109300000Y-146050000D03*
X92710000Y-129540000D03*
X92710000Y-116540000D03*
X264160000Y-138430000D03*
X269160000Y-138430000D03*
X91440000Y-101900000D03*
X91440000Y-88900000D03*
D11*
X236220000Y-193040000D03*
D10*
X238760000Y-193040000D03*
X241300000Y-193040000D03*
X243840000Y-193040000D03*
X246380000Y-193040000D03*
X248920000Y-193040000D03*
X251460000Y-193040000D03*
X251460000Y-185420000D03*
X248920000Y-185420000D03*
X246380000Y-185420000D03*
X243840000Y-185420000D03*
X241300000Y-185420000D03*
X238760000Y-185420000D03*
X236220000Y-185420000D03*
D11*
X152400000Y-208280000D03*
D10*
X154940000Y-208280000D03*
X157480000Y-208280000D03*
X160020000Y-208280000D03*
X162560000Y-208280000D03*
X165100000Y-208280000D03*
X167640000Y-208280000D03*
X167640000Y-200660000D03*
X165100000Y-200660000D03*
X162560000Y-200660000D03*
X160020000Y-200660000D03*
X157480000Y-200660000D03*
X154940000Y-200660000D03*
X152400000Y-200660000D03*
X233680000Y-132080000D03*
X335280000Y-163830000D03*
X340280000Y-163830000D03*
X330200000Y-190500000D03*
X330200000Y-193040000D03*
X330200000Y-195580000D03*
X330200000Y-198120000D03*
X330200000Y-200660000D03*
X330200000Y-203200000D03*
X330200000Y-205740000D03*
X330200000Y-208280000D03*
X330200000Y-210820000D03*
D11*
X236220000Y-91440000D03*
D10*
X236220000Y-93980000D03*
X236220000Y-96520000D03*
X236220000Y-99060000D03*
X236220000Y-101600000D03*
X236220000Y-104140000D03*
X236220000Y-106680000D03*
X236220000Y-109220000D03*
X236220000Y-111760000D03*
X236220000Y-114300000D03*
X236220000Y-116840000D03*
X236220000Y-119380000D03*
X236220000Y-121920000D03*
X236220000Y-124460000D03*
X236220000Y-127000000D03*
X236220000Y-129540000D03*
X236220000Y-132080000D03*
X236220000Y-134620000D03*
X236220000Y-137160000D03*
X236220000Y-139700000D03*
X251460000Y-139700000D03*
X251460000Y-137160000D03*
X251460000Y-134620000D03*
X251460000Y-132080000D03*
X251460000Y-129540000D03*
X251460000Y-127000000D03*
X251460000Y-124460000D03*
X251460000Y-121920000D03*
X251460000Y-119380000D03*
X251460000Y-116840000D03*
X251460000Y-114300000D03*
X251460000Y-111760000D03*
X251460000Y-109220000D03*
X251460000Y-106680000D03*
X251460000Y-104140000D03*
X251460000Y-101600000D03*
X251460000Y-99060000D03*
X251460000Y-96520000D03*
X251460000Y-93980000D03*
X251460000Y-91440000D03*
X251460000Y-87630000D03*
X246460000Y-87630000D03*
D11*
X203200000Y-144780000D03*
D10*
X205740000Y-144780000D03*
X208280000Y-144780000D03*
X210820000Y-144780000D03*
X213360000Y-144780000D03*
X215900000Y-144780000D03*
X218440000Y-144780000D03*
X220980000Y-144780000D03*
X223520000Y-144780000D03*
X226060000Y-144780000D03*
X226060000Y-137160000D03*
X223520000Y-137160000D03*
X220980000Y-137160000D03*
X218440000Y-137160000D03*
X215900000Y-137160000D03*
X213360000Y-137160000D03*
X210820000Y-137160000D03*
X208280000Y-137160000D03*
X205740000Y-137160000D03*
X203200000Y-137160000D03*
X285750000Y-62270000D03*
X285750000Y-67270000D03*
X229641505Y-176539819D03*
X221141505Y-176539819D03*
X193040000Y-83820000D03*
X193040000Y-86360000D03*
D11*
X317500000Y-109220000D03*
D10*
X320040000Y-109220000D03*
X322580000Y-109220000D03*
X325120000Y-109220000D03*
X327660000Y-109220000D03*
X330200000Y-109220000D03*
X332740000Y-109220000D03*
X335280000Y-109220000D03*
X337820000Y-109220000D03*
X340360000Y-109220000D03*
X340360000Y-101600000D03*
X337820000Y-101600000D03*
X335280000Y-101600000D03*
X332740000Y-101600000D03*
X330200000Y-101600000D03*
X327660000Y-101600000D03*
X325120000Y-101600000D03*
X322580000Y-101600000D03*
X320040000Y-101600000D03*
X317500000Y-101600000D03*
D11*
X322580000Y-96520000D03*
D10*
X325120000Y-96520000D03*
X327660000Y-96520000D03*
X330200000Y-96520000D03*
X332740000Y-96520000D03*
X335280000Y-96520000D03*
X337820000Y-96520000D03*
X340360000Y-96520000D03*
X340360000Y-88900000D03*
X337820000Y-88900000D03*
X335280000Y-88900000D03*
X332740000Y-88900000D03*
X330200000Y-88900000D03*
X327660000Y-88900000D03*
X325120000Y-88900000D03*
X322580000Y-88900000D03*
X257810000Y-76240000D03*
X257810000Y-81240000D03*
D11*
X261620000Y-134620000D03*
D10*
X264160000Y-134620000D03*
X266700000Y-134620000D03*
X269240000Y-134620000D03*
X271780000Y-134620000D03*
X274320000Y-134620000D03*
X276860000Y-134620000D03*
X279400000Y-134620000D03*
X281940000Y-134620000D03*
X284480000Y-134620000D03*
X284480000Y-127000000D03*
X281940000Y-127000000D03*
X279400000Y-127000000D03*
X276860000Y-127000000D03*
X274320000Y-127000000D03*
X271780000Y-127000000D03*
X269240000Y-127000000D03*
X266700000Y-127000000D03*
X264160000Y-127000000D03*
X261620000Y-127000000D03*
X215900000Y-196850000D03*
X205740000Y-196850000D03*
D11*
X116850000Y-83810000D03*
D10*
X119390000Y-83810000D03*
X121930000Y-83810000D03*
X124470000Y-83810000D03*
X124470000Y-76190000D03*
X121930000Y-76190000D03*
X119390000Y-76190000D03*
X116850000Y-76190000D03*
X132080000Y-208510000D03*
X132080000Y-195510000D03*
D11*
X139700000Y-149860000D03*
D10*
X139700000Y-152400000D03*
X139700000Y-154940000D03*
X139700000Y-157480000D03*
X139700000Y-160020000D03*
X139700000Y-162560000D03*
X139700000Y-165100000D03*
X139700000Y-167640000D03*
X139700000Y-170180000D03*
X139700000Y-172720000D03*
X139700000Y-175260000D03*
X139700000Y-177800000D03*
X154940000Y-177800000D03*
X154940000Y-175260000D03*
X154940000Y-172720000D03*
X154940000Y-170180000D03*
X154940000Y-167640000D03*
X154940000Y-165100000D03*
X154940000Y-162560000D03*
X154940000Y-160020000D03*
X154940000Y-157480000D03*
X154940000Y-154940000D03*
X154940000Y-152400000D03*
X154940000Y-149860000D03*
X198120000Y-205740000D03*
X195580000Y-205740000D03*
D11*
X203200000Y-110490000D03*
D10*
X205740000Y-110490000D03*
X208280000Y-110490000D03*
X210820000Y-110490000D03*
X213360000Y-110490000D03*
X215900000Y-110490000D03*
X218440000Y-110490000D03*
X220980000Y-110490000D03*
X223520000Y-110490000D03*
X226060000Y-110490000D03*
X226060000Y-102870000D03*
X223520000Y-102870000D03*
X220980000Y-102870000D03*
X218440000Y-102870000D03*
X215900000Y-102870000D03*
X213360000Y-102870000D03*
X210820000Y-102870000D03*
X208280000Y-102870000D03*
X205740000Y-102870000D03*
X203200000Y-102870000D03*
D11*
X119380000Y-111760000D03*
D10*
X119380000Y-114300000D03*
X119380000Y-116840000D03*
X119380000Y-119380000D03*
X119380000Y-121920000D03*
X119380000Y-124460000D03*
X119380000Y-127000000D03*
X119380000Y-129540000D03*
X119380000Y-132080000D03*
X119380000Y-134620000D03*
X119380000Y-137160000D03*
X119380000Y-139700000D03*
X134620000Y-139700000D03*
X134620000Y-137160000D03*
X134620000Y-134620000D03*
X134620000Y-132080000D03*
X134620000Y-129540000D03*
X134620000Y-127000000D03*
X134620000Y-124460000D03*
X134620000Y-121920000D03*
X134620000Y-119380000D03*
X134620000Y-116840000D03*
X134620000Y-114300000D03*
X134620000Y-111760000D03*
X137160000Y-208510000D03*
X137160000Y-195510000D03*
D11*
X99060000Y-111760000D03*
D10*
X99060000Y-114300000D03*
X99060000Y-116840000D03*
X99060000Y-119380000D03*
X99060000Y-121920000D03*
X99060000Y-124460000D03*
X99060000Y-127000000D03*
X99060000Y-129540000D03*
X99060000Y-132080000D03*
X99060000Y-134620000D03*
X99060000Y-137160000D03*
X99060000Y-139700000D03*
X114300000Y-139700000D03*
X114300000Y-137160000D03*
X114300000Y-134620000D03*
X114300000Y-132080000D03*
X114300000Y-129540000D03*
X114300000Y-127000000D03*
X114300000Y-124460000D03*
X114300000Y-121920000D03*
X114300000Y-119380000D03*
X114300000Y-116840000D03*
X114300000Y-114300000D03*
X114300000Y-111760000D03*
D11*
X171450000Y-63500000D03*
D10*
X171450000Y-66040000D03*
X171450000Y-68580000D03*
X171450000Y-71120000D03*
X171450000Y-73660000D03*
X171450000Y-76200000D03*
X171450000Y-78740000D03*
X171450000Y-81280000D03*
X171450000Y-83820000D03*
X171450000Y-86360000D03*
X171450000Y-88900000D03*
X171450000Y-91440000D03*
X171450000Y-93980000D03*
X171450000Y-96520000D03*
X171450000Y-99060000D03*
X171450000Y-101600000D03*
X171450000Y-104140000D03*
X171450000Y-106680000D03*
X171450000Y-109220000D03*
X171450000Y-111760000D03*
X186690000Y-111760000D03*
X186690000Y-109220000D03*
X186690000Y-106680000D03*
X186690000Y-104140000D03*
X186690000Y-101600000D03*
X186690000Y-99060000D03*
X186690000Y-96520000D03*
X186690000Y-93980000D03*
X186690000Y-91440000D03*
X186690000Y-88900000D03*
X186690000Y-86360000D03*
X186690000Y-83820000D03*
X186690000Y-81280000D03*
X186690000Y-78740000D03*
X186690000Y-76200000D03*
X186690000Y-73660000D03*
X186690000Y-71120000D03*
X186690000Y-68580000D03*
X186690000Y-66040000D03*
X186690000Y-63500000D03*
X232410000Y-172760000D03*
X232410000Y-177760000D03*
X101600000Y-101900000D03*
X101600000Y-88900000D03*
X154940000Y-146050000D03*
X149940000Y-146050000D03*
X232410000Y-160100000D03*
X232410000Y-165100000D03*
X83820000Y-87630000D03*
X83820000Y-90170000D03*
X83820000Y-92710000D03*
X83820000Y-95250000D03*
X83820000Y-97790000D03*
X83820000Y-100330000D03*
X91440000Y-188260000D03*
X91440000Y-175260000D03*
X93980000Y-173020000D03*
X93980000Y-160020000D03*
X109220000Y-101900000D03*
X109220000Y-88900000D03*
D11*
X140970000Y-83820000D03*
D10*
X143510000Y-83820000D03*
X146050000Y-83820000D03*
X148590000Y-83820000D03*
X151130000Y-83820000D03*
X153670000Y-83820000D03*
X156210000Y-83820000D03*
X158750000Y-83820000D03*
X158750000Y-76200000D03*
X156210000Y-76200000D03*
X153670000Y-76200000D03*
X151130000Y-76200000D03*
X148590000Y-76200000D03*
X146050000Y-76200000D03*
X143510000Y-76200000D03*
X140970000Y-76200000D03*
X166370000Y-112060000D03*
X166370000Y-99060000D03*
X172720000Y-197850000D03*
X172720000Y-185850000D03*
D11*
X289560000Y-83820000D03*
D10*
X292100000Y-83820000D03*
X294640000Y-83820000D03*
X297180000Y-83820000D03*
X299720000Y-83820000D03*
X302260000Y-83820000D03*
X304800000Y-83820000D03*
X307340000Y-83820000D03*
X309880000Y-83820000D03*
X312420000Y-83820000D03*
X312420000Y-76200000D03*
X309880000Y-76200000D03*
X307340000Y-76200000D03*
X304800000Y-76200000D03*
X302260000Y-76200000D03*
X299720000Y-76200000D03*
X297180000Y-76200000D03*
X294640000Y-76200000D03*
X292100000Y-76200000D03*
X289560000Y-76200000D03*
X227330000Y-200914000D03*
X227330000Y-205914000D03*
D11*
X119380000Y-149860000D03*
D10*
X119380000Y-152400000D03*
X119380000Y-154940000D03*
X119380000Y-157480000D03*
X119380000Y-160020000D03*
X119380000Y-162560000D03*
X119380000Y-165100000D03*
X119380000Y-167640000D03*
X119380000Y-170180000D03*
X119380000Y-172720000D03*
X119380000Y-175260000D03*
X119380000Y-177800000D03*
X134620000Y-177800000D03*
X134620000Y-175260000D03*
X134620000Y-172720000D03*
X134620000Y-170180000D03*
X134620000Y-167640000D03*
X134620000Y-165100000D03*
X134620000Y-162560000D03*
X134620000Y-160020000D03*
X134620000Y-157480000D03*
X134620000Y-154940000D03*
X134620000Y-152400000D03*
X134620000Y-149860000D03*
X231140000Y-195580000D03*
X231140000Y-208580000D03*
X226060000Y-170180000D03*
X228600000Y-170180000D03*
X226060000Y-160020000D03*
X228600000Y-160020000D03*
X226060000Y-167640000D03*
X228600000Y-167640000D03*
X274360000Y-189230000D03*
X279360000Y-189230000D03*
X99060000Y-101900000D03*
X99060000Y-88900000D03*
X199390000Y-88940000D03*
X199390000Y-93940000D03*
X264200000Y-189230000D03*
X269200000Y-189230000D03*
X137160000Y-193040000D03*
X147320000Y-193040000D03*
D11*
X271780000Y-193040000D03*
D10*
X271780000Y-195580000D03*
X271780000Y-198120000D03*
X271780000Y-200660000D03*
X271780000Y-203200000D03*
X271780000Y-205740000D03*
X271780000Y-208280000D03*
X271780000Y-210820000D03*
X279400000Y-210820000D03*
X279400000Y-208280000D03*
X279400000Y-205740000D03*
X279400000Y-203200000D03*
X279400000Y-200660000D03*
X279400000Y-198120000D03*
X279400000Y-195580000D03*
X279400000Y-193040000D03*
X314960000Y-163830000D03*
X319960000Y-163830000D03*
X114300000Y-107950000D03*
X109300000Y-107950000D03*
D11*
X160020000Y-149860000D03*
D10*
X160020000Y-152400000D03*
X160020000Y-154940000D03*
X160020000Y-157480000D03*
X160020000Y-160020000D03*
X160020000Y-162560000D03*
X160020000Y-165100000D03*
X160020000Y-167640000D03*
X160020000Y-170180000D03*
X160020000Y-172720000D03*
X160020000Y-175260000D03*
X160020000Y-177800000D03*
X175260000Y-177800000D03*
X175260000Y-175260000D03*
X175260000Y-172720000D03*
X175260000Y-170180000D03*
X175260000Y-167640000D03*
X175260000Y-165100000D03*
X175260000Y-162560000D03*
X175260000Y-160020000D03*
X175260000Y-157480000D03*
X175260000Y-154940000D03*
X175260000Y-152400000D03*
X175260000Y-149860000D03*
X226060000Y-162560000D03*
X228600000Y-162560000D03*
D11*
X289560000Y-121920000D03*
D10*
X292100000Y-121920000D03*
X294640000Y-121920000D03*
X297180000Y-121920000D03*
X299720000Y-121920000D03*
X302260000Y-121920000D03*
X304800000Y-121920000D03*
X307340000Y-121920000D03*
X309880000Y-121920000D03*
X312420000Y-121920000D03*
X312420000Y-114300000D03*
X309880000Y-114300000D03*
X307340000Y-114300000D03*
X304800000Y-114300000D03*
X302260000Y-114300000D03*
X299720000Y-114300000D03*
X297180000Y-114300000D03*
X294640000Y-114300000D03*
X292100000Y-114300000D03*
X289560000Y-114300000D03*
D11*
X322580000Y-167640000D03*
D10*
X322580000Y-170180000D03*
X322580000Y-172720000D03*
X322580000Y-175260000D03*
X322580000Y-177800000D03*
X322580000Y-180340000D03*
X322580000Y-182880000D03*
X322580000Y-185420000D03*
X330200000Y-185420000D03*
X330200000Y-182880000D03*
X330200000Y-180340000D03*
X330200000Y-177800000D03*
X330200000Y-175260000D03*
X330200000Y-172720000D03*
X330200000Y-170180000D03*
X330200000Y-167640000D03*
D11*
X140970000Y-109220000D03*
D10*
X143510000Y-109220000D03*
X146050000Y-109220000D03*
X148590000Y-109220000D03*
X151130000Y-109220000D03*
X153670000Y-109220000D03*
X156210000Y-109220000D03*
X158750000Y-109220000D03*
X158750000Y-101600000D03*
X156210000Y-101600000D03*
X153670000Y-101600000D03*
X151130000Y-101600000D03*
X148590000Y-101600000D03*
X146050000Y-101600000D03*
X143510000Y-101600000D03*
X140970000Y-101600000D03*
D11*
X203200000Y-121920000D03*
D10*
X205740000Y-121920000D03*
X208280000Y-121920000D03*
X210820000Y-121920000D03*
X213360000Y-121920000D03*
X215900000Y-121920000D03*
X218440000Y-121920000D03*
X220980000Y-121920000D03*
X223520000Y-121920000D03*
X226060000Y-121920000D03*
X226060000Y-114300000D03*
X223520000Y-114300000D03*
X220980000Y-114300000D03*
X218440000Y-114300000D03*
X215900000Y-114300000D03*
X213360000Y-114300000D03*
X210820000Y-114300000D03*
X208280000Y-114300000D03*
X205740000Y-114300000D03*
X203200000Y-114300000D03*
D13*
X130810000Y-71120000D03*
X205740000Y-200660000D03*
X154940000Y-203200000D03*
X143510000Y-68580000D03*
X128270000Y-182880000D03*
X255270000Y-162560000D03*
X312420000Y-71120000D03*
X304800000Y-99060000D03*
X242570000Y-121920000D03*
X242570000Y-102870000D03*
X207010000Y-71120000D03*
X210820000Y-68580000D03*
X199390000Y-71120000D03*
X229870000Y-68580000D03*
X226060000Y-68580000D03*
X189230000Y-71120000D03*
X231140000Y-78740000D03*
X242570000Y-87630000D03*
X241300000Y-105410000D03*
X298450000Y-104140000D03*
X241300000Y-68580000D03*
X236220000Y-87630000D03*
X238760000Y-68580000D03*
X196850000Y-68580000D03*
X261620000Y-124460000D03*
X276860000Y-87630000D03*
X261620000Y-88900000D03*
X226060000Y-129540000D03*
X299720000Y-67310000D03*
X243840000Y-68580000D03*
X312420000Y-138430000D03*
X95250000Y-120650000D03*
X166370000Y-67310000D03*
X152400000Y-68580000D03*
X166370000Y-69850000D03*
X144780000Y-115570000D03*
X137160000Y-115570000D03*
X187960000Y-179070000D03*
X215900000Y-182880000D03*
X142240000Y-184150000D03*
X187960000Y-184150000D03*
X233680000Y-78740000D03*
X245110000Y-102870000D03*
X243840000Y-80010000D03*
X285750000Y-101600000D03*
X173990000Y-74930000D03*
X262890000Y-81280000D03*
X209550000Y-73660000D03*
X262890000Y-101600000D03*
X168910000Y-83820000D03*
X215900000Y-86360000D03*
X162560000Y-78740000D03*
X163830000Y-68580000D03*
X175260000Y-82550000D03*
X175260000Y-72390000D03*
X199390000Y-68580000D03*
X203200000Y-105410000D03*
X158750000Y-64770000D03*
X156210000Y-123190000D03*
X181610000Y-111760000D03*
X101600000Y-128270000D03*
X132080000Y-146050000D03*
X132080000Y-128270000D03*
X180340000Y-101600000D03*
X176530000Y-77470000D03*
X176530000Y-101600000D03*
X176530000Y-104140000D03*
X196850000Y-139700000D03*
X226060000Y-139700000D03*
X168910000Y-81280000D03*
X156210000Y-81280000D03*
X175260000Y-111760000D03*
X173990000Y-97790000D03*
X176530000Y-106680000D03*
X187960000Y-175260000D03*
X173990000Y-93980000D03*
X177800000Y-115570000D03*
X177800000Y-93980000D03*
X148590000Y-116840000D03*
X179070000Y-78740000D03*
X261620000Y-163830000D03*
X181610000Y-107950000D03*
X187960000Y-167640000D03*
X193040000Y-107950000D03*
X184150000Y-113030000D03*
X133350000Y-93980000D03*
X177800000Y-149860000D03*
X156210000Y-93980000D03*
X132080000Y-119380000D03*
X199390000Y-146050000D03*
X102870000Y-106680000D03*
X198120000Y-198120000D03*
X160020000Y-190500000D03*
X171450000Y-163830000D03*
X177800000Y-190500000D03*
X167640000Y-163830000D03*
X123190000Y-123190000D03*
X123190000Y-127000000D03*
X137160000Y-162560000D03*
X137160000Y-180340000D03*
X175260000Y-88900000D03*
X175260000Y-109220000D03*
X148590000Y-105410000D03*
X121920000Y-149860000D03*
X121920000Y-111760000D03*
X121920000Y-104140000D03*
X144780000Y-105410000D03*
X180340000Y-105410000D03*
X181610000Y-96520000D03*
X121920000Y-143510000D03*
X195580000Y-114300000D03*
X226060000Y-142240000D03*
X196850000Y-143510000D03*
X177800000Y-90170000D03*
X180340000Y-88900000D03*
X182880000Y-82550000D03*
X190500000Y-90170000D03*
X190500000Y-173990000D03*
X190500000Y-168910000D03*
X165100000Y-172720000D03*
X189230000Y-115570000D03*
X157480000Y-139700000D03*
X148590000Y-139700000D03*
X228600000Y-114300000D03*
X180340000Y-73660000D03*
X180340000Y-81280000D03*
X223520000Y-80010000D03*
X213360000Y-86360000D03*
X128270000Y-67310000D03*
X124460000Y-130810000D03*
X181610000Y-78740000D03*
X128270000Y-110490000D03*
X181610000Y-64770000D03*
X124460000Y-110490000D03*
X158750000Y-124460000D03*
X182880000Y-92710000D03*
X96520000Y-161290000D03*
X152400000Y-92710000D03*
X120650000Y-100330000D03*
X168910000Y-101600000D03*
X168910000Y-86360000D03*
X252730000Y-81280000D03*
X250190000Y-71120000D03*
X210820000Y-71120000D03*
X246380000Y-72390000D03*
X219710000Y-72390000D03*
X212090000Y-80010000D03*
X195580000Y-80010000D03*
X214630000Y-81280000D03*
X198120000Y-74930000D03*
X250190000Y-73660000D03*
X238760000Y-73660000D03*
X254000000Y-99060000D03*
X302260000Y-100330000D03*
X254000000Y-73660000D03*
X242570000Y-97790000D03*
X242570000Y-92710000D03*
X247650000Y-92710000D03*
X261620000Y-78740000D03*
X256540000Y-85090000D03*
X256540000Y-100330000D03*
X288290000Y-100330000D03*
X241300000Y-100330000D03*
X246380000Y-69850000D03*
X222250000Y-69850000D03*
X279400000Y-87630000D03*
X233680000Y-88900000D03*
X294640000Y-87630000D03*
X267970000Y-87630000D03*
X238760000Y-87630000D03*
X297180000Y-87630000D03*
X238760000Y-120650000D03*
X284480000Y-86360000D03*
X270510000Y-86360000D03*
X289560000Y-80010000D03*
X231140000Y-114300000D03*
X233680000Y-92710000D03*
X232410000Y-99060000D03*
X168910000Y-116840000D03*
X168910000Y-104140000D03*
X231140000Y-93980000D03*
X231140000Y-111760000D03*
X231140000Y-102870000D03*
X220980000Y-93980000D03*
X284480000Y-81280000D03*
X294640000Y-95250000D03*
X226060000Y-99060000D03*
X226060000Y-116840000D03*
X247650000Y-116840000D03*
X292100000Y-95250000D03*
X292100000Y-80010000D03*
X247650000Y-96520000D03*
X246380000Y-105410000D03*
X287020000Y-80010000D03*
X223520000Y-105410000D03*
X246380000Y-90170000D03*
X283210000Y-63500000D03*
X299720000Y-80010000D03*
X328930000Y-80010000D03*
X322580000Y-81280000D03*
X321310000Y-73660000D03*
X336550000Y-86360000D03*
X311150000Y-86360000D03*
X240030000Y-146050000D03*
X340360000Y-105410000D03*
X256540000Y-111760000D03*
X256540000Y-146050000D03*
X270510000Y-111760000D03*
X271780000Y-104140000D03*
X334010000Y-106680000D03*
X264160000Y-110490000D03*
X241300000Y-109220000D03*
X334010000Y-81280000D03*
X320040000Y-83820000D03*
X321310000Y-119380000D03*
X266700000Y-109220000D03*
X308610000Y-93980000D03*
X308610000Y-78740000D03*
X297180000Y-148590000D03*
X299720000Y-93980000D03*
X100330000Y-109220000D03*
X107950000Y-132080000D03*
X163830000Y-165100000D03*
X243840000Y-144780000D03*
X161290000Y-121920000D03*
X233680000Y-144780000D03*
X233680000Y-124460000D03*
X168910000Y-91440000D03*
X203200000Y-129540000D03*
X199390000Y-121920000D03*
X177800000Y-121920000D03*
X213360000Y-129540000D03*
X125730000Y-92710000D03*
X158750000Y-91440000D03*
X135890000Y-91440000D03*
X163830000Y-161290000D03*
X143510000Y-144780000D03*
X143510000Y-177800000D03*
X140970000Y-92710000D03*
X140970000Y-144780000D03*
X149860000Y-177800000D03*
X148590000Y-160020000D03*
X113030000Y-99060000D03*
X111760000Y-127000000D03*
X143510000Y-99060000D03*
X139700000Y-114300000D03*
X166370000Y-114300000D03*
X193040000Y-114300000D03*
X218440000Y-129540000D03*
X191770000Y-124460000D03*
X175260000Y-124460000D03*
X208280000Y-92710000D03*
X177800000Y-132080000D03*
X210820000Y-92710000D03*
X163830000Y-138430000D03*
X220980000Y-119380000D03*
X184150000Y-138430000D03*
X223520000Y-128270000D03*
X187960000Y-138430000D03*
X177800000Y-139700000D03*
X137160000Y-132080000D03*
X214630000Y-118110000D03*
X137160000Y-135890000D03*
X172720000Y-121920000D03*
X170180000Y-129540000D03*
X153670000Y-129540000D03*
X148590000Y-123190000D03*
X203200000Y-91440000D03*
X148590000Y-129540000D03*
X204470000Y-116840000D03*
X161290000Y-124460000D03*
X215900000Y-105410000D03*
X226060000Y-105410000D03*
X185420000Y-123190000D03*
X256540000Y-153670000D03*
X236220000Y-151130000D03*
X238760000Y-101600000D03*
X266700000Y-118110000D03*
X332740000Y-138430000D03*
X251460000Y-144780000D03*
X342900000Y-93980000D03*
X339090000Y-124460000D03*
X265430000Y-88900000D03*
X331470000Y-132080000D03*
X331470000Y-93980000D03*
X325120000Y-129540000D03*
X270510000Y-96520000D03*
X337820000Y-104140000D03*
X264160000Y-97790000D03*
X137160000Y-121920000D03*
X151130000Y-121920000D03*
X143510000Y-111760000D03*
X158750000Y-111760000D03*
X127000000Y-105410000D03*
X161290000Y-107950000D03*
X127000000Y-165100000D03*
X152400000Y-166370000D03*
X252730000Y-153670000D03*
X245110000Y-153670000D03*
X220980000Y-170180000D03*
X217170000Y-171450000D03*
X220980000Y-129540000D03*
X254000000Y-107950000D03*
X254000000Y-113030000D03*
X229870000Y-130810000D03*
X229870000Y-73660000D03*
X213360000Y-73660000D03*
X250190000Y-163830000D03*
X223520000Y-187960000D03*
X226060000Y-153670000D03*
X245110000Y-114300000D03*
X246380000Y-133350000D03*
X213360000Y-151130000D03*
X243840000Y-133350000D03*
X212090000Y-162560000D03*
X246380000Y-109220000D03*
X236220000Y-153670000D03*
X248920000Y-78740000D03*
X233680000Y-73660000D03*
X240030000Y-111760000D03*
X190500000Y-139700000D03*
X240030000Y-140970000D03*
X279400000Y-116840000D03*
X276860000Y-118110000D03*
X231140000Y-193040000D03*
X231140000Y-118110000D03*
X254000000Y-158750000D03*
X290830000Y-111760000D03*
X255270000Y-132080000D03*
X290830000Y-132080000D03*
X342900000Y-115570000D03*
X342900000Y-153670000D03*
X308610000Y-109220000D03*
X232410000Y-107950000D03*
X240030000Y-175260000D03*
X292100000Y-119380000D03*
X287020000Y-163830000D03*
X246380000Y-137160000D03*
X281940000Y-138430000D03*
X323850000Y-195580000D03*
X265430000Y-196850000D03*
X283210000Y-129540000D03*
X297180000Y-101600000D03*
X266700000Y-104140000D03*
X302260000Y-95250000D03*
X297180000Y-95250000D03*
X270510000Y-116840000D03*
X264160000Y-124460000D03*
X255270000Y-167640000D03*
X271780000Y-124460000D03*
X267970000Y-129540000D03*
X243840000Y-128270000D03*
X318770000Y-91440000D03*
X254000000Y-101600000D03*
X255270000Y-120650000D03*
X274320000Y-102870000D03*
X247650000Y-120650000D03*
X303530000Y-110490000D03*
X273050000Y-110490000D03*
X306070000Y-132080000D03*
X297180000Y-130810000D03*
X264160000Y-104140000D03*
X233680000Y-101600000D03*
X228600000Y-118110000D03*
X233680000Y-116840000D03*
X302260000Y-137160000D03*
X345440000Y-123190000D03*
X276860000Y-111760000D03*
X276860000Y-130810000D03*
X276860000Y-140970000D03*
X308610000Y-130810000D03*
X309880000Y-119380000D03*
X337820000Y-151130000D03*
X144780000Y-182880000D03*
X168910000Y-212090000D03*
X146050000Y-130810000D03*
X171450000Y-160020000D03*
X172720000Y-130810000D03*
X171450000Y-157480000D03*
X172720000Y-138430000D03*
X182880000Y-153670000D03*
X189230000Y-130810000D03*
X151130000Y-130810000D03*
X152400000Y-156210000D03*
X186690000Y-160020000D03*
X266700000Y-175260000D03*
X241300000Y-128270000D03*
X279400000Y-130810000D03*
X270510000Y-129540000D03*
X287020000Y-173990000D03*
X293370000Y-132080000D03*
X307340000Y-146050000D03*
X317500000Y-138430000D03*
X327660000Y-138430000D03*
X292100000Y-138430000D03*
X287020000Y-167640000D03*
X302260000Y-165100000D03*
X303530000Y-132080000D03*
X295910000Y-119380000D03*
X311150000Y-124460000D03*
X177800000Y-163830000D03*
X147320000Y-167640000D03*
X185420000Y-157480000D03*
X185420000Y-176530000D03*
X182880000Y-161290000D03*
X182880000Y-168910000D03*
X190500000Y-165100000D03*
X191770000Y-171450000D03*
X191770000Y-152400000D03*
X185420000Y-146050000D03*
X181610000Y-146050000D03*
X170180000Y-176530000D03*
X193040000Y-154940000D03*
X193040000Y-144780000D03*
X170180000Y-154940000D03*
X179070000Y-144780000D03*
X177800000Y-179070000D03*
X177800000Y-168910000D03*
X193040000Y-194310000D03*
X193040000Y-158750000D03*
X118110000Y-194310000D03*
X198120000Y-186690000D03*
X198120000Y-157480000D03*
X189230000Y-189230000D03*
X151130000Y-189230000D03*
X198120000Y-195580000D03*
X151130000Y-172720000D03*
X189230000Y-195580000D03*
X191770000Y-187960000D03*
X218440000Y-187960000D03*
X191770000Y-181610000D03*
X133350000Y-181610000D03*
X149860000Y-149860000D03*
X149860000Y-170180000D03*
X198120000Y-151130000D03*
X182880000Y-179070000D03*
X152400000Y-175260000D03*
X185420000Y-149860000D03*
X152400000Y-177800000D03*
X238760000Y-152400000D03*
X322580000Y-162560000D03*
X327660000Y-161290000D03*
X317500000Y-161290000D03*
X332740000Y-165100000D03*
X327660000Y-147320000D03*
X327660000Y-165100000D03*
X226060000Y-187960000D03*
X193040000Y-196850000D03*
X177800000Y-166370000D03*
X157480000Y-198120000D03*
X185420000Y-196850000D03*
X185420000Y-179070000D03*
X217170000Y-163830000D03*
X247650000Y-163830000D03*
X238760000Y-163830000D03*
X265430000Y-204470000D03*
X254000000Y-175260000D03*
X283210000Y-198120000D03*
X297180000Y-190500000D03*
X321310000Y-203200000D03*
X327660000Y-204470000D03*
X312420000Y-199390000D03*
X255270000Y-182880000D03*
X143510000Y-205740000D03*
X144780000Y-189230000D03*
X251460000Y-189230000D03*
X163830000Y-212090000D03*
X138430000Y-190500000D03*
X162560000Y-187960000D03*
X154940000Y-198120000D03*
X240030000Y-187960000D03*
X266700000Y-190500000D03*
X254000000Y-191770000D03*
X254000000Y-203200000D03*
X252730000Y-195580000D03*
X264160000Y-201930000D03*
X264160000Y-207010000D03*
X95250000Y-123190000D03*
X96520000Y-118110000D03*
X101600000Y-114300000D03*
X91440000Y-185420000D03*
X113030000Y-187960000D03*
D14*
X91440000Y-95250000D02*
X91440000Y-101900000D01*
X83820000Y-95250000D02*
X91440000Y-95250000D01*
D15*
X315595000Y-127000000D02*
X317500000Y-127000000D01*
X261620000Y-160020000D02*
X264160000Y-160020000D01*
X140970000Y-71120000D02*
X139065000Y-71120000D01*
X315595000Y-127000000D02*
X315595000Y-137795000D01*
X274320000Y-136525000D02*
X284480000Y-136525000D01*
X190500000Y-78740000D02*
X190500000Y-83820000D01*
X163830000Y-112060000D02*
X163830000Y-105410000D01*
X274360000Y-193000000D02*
X274320000Y-193040000D01*
X189230000Y-63540000D02*
X191730000Y-63540000D01*
X259715000Y-73660000D02*
X281305000Y-73660000D01*
X231775000Y-148630000D02*
X233640000Y-148630000D01*
X140930000Y-88940000D02*
X140970000Y-88900000D01*
X166370000Y-61595000D02*
X166370000Y-63500000D01*
X199390000Y-102910000D02*
X203160000Y-102910000D01*
X294640000Y-185420000D02*
X292100000Y-185420000D01*
X139065000Y-118110000D02*
X139065000Y-134620000D01*
X134620000Y-143510000D02*
X125095000Y-143510000D01*
X138684000Y-109220000D02*
X134620000Y-109220000D01*
X335280000Y-193040000D02*
X335280000Y-190500000D01*
X210820000Y-193040000D02*
X210820000Y-187960000D01*
X314960000Y-188930000D02*
X313690000Y-190200000D01*
X284480000Y-138430000D02*
X284480000Y-136525000D01*
X203200000Y-158115000D02*
X203200000Y-160020000D01*
X294640000Y-138430000D02*
X294640000Y-160020000D01*
X203205000Y-86360000D02*
X210820000Y-86360000D01*
X125095000Y-107950000D02*
X125095000Y-101600000D01*
X210820000Y-187960000D02*
X215900000Y-187960000D01*
X191770000Y-63580000D02*
X191770000Y-77470000D01*
X154940000Y-149860000D02*
X154940000Y-147955000D01*
X304800000Y-193040000D02*
X304800000Y-189230000D01*
X168910000Y-63500000D02*
X168910000Y-76200000D01*
X312420000Y-160020000D02*
X314960000Y-160020000D01*
X122428000Y-73660000D02*
X116840000Y-73660000D01*
X88900000Y-104648000D02*
X88900000Y-116205000D01*
X234315000Y-182880000D02*
X234315000Y-180340000D01*
X138684000Y-101600000D02*
X138644000Y-101640000D01*
X138644000Y-101640000D02*
X137160000Y-101640000D01*
X199390000Y-87625000D02*
X198120000Y-86355000D01*
X201295000Y-88900000D02*
X201295000Y-158115000D01*
X294640000Y-163790000D02*
X294680000Y-163830000D01*
X281940000Y-185420000D02*
X284480000Y-185420000D01*
X254000000Y-127000000D02*
X254000000Y-125095000D01*
X259080000Y-136525000D02*
X264160000Y-136525000D01*
X200620000Y-76240000D02*
X201930000Y-76240000D01*
X289520000Y-62270000D02*
X289560000Y-62230000D01*
X201295000Y-88900000D02*
X199430000Y-88900000D01*
X289560000Y-127000000D02*
X287020000Y-127000000D01*
D16*
X101600000Y-71120000D02*
X101600000Y-61595000D01*
D15*
X234315000Y-200660000D02*
X234315000Y-197485000D01*
X257215000Y-91440000D02*
X257175000Y-91480000D01*
X186730000Y-63540000D02*
X186690000Y-63500000D01*
X191730000Y-63540000D02*
X191770000Y-63580000D01*
X312420000Y-185420000D02*
X314960000Y-185420000D01*
X114300000Y-107950000D02*
X114300000Y-104648000D01*
X203200000Y-185420000D02*
X203200000Y-187960000D01*
X210820000Y-196850000D02*
X210820000Y-193040000D01*
X257810000Y-195380000D02*
X257810000Y-198120000D01*
X246380000Y-185420000D02*
X246380000Y-182880000D01*
X259080000Y-125095000D02*
X259080000Y-127000000D01*
X200660000Y-187720000D02*
X202960000Y-187720000D01*
X151130000Y-63500000D02*
X151130000Y-61595000D01*
X116840000Y-88900000D02*
X116840000Y-86360000D01*
X236140000Y-160100000D02*
X236220000Y-160020000D01*
X234315000Y-170180000D02*
X234315000Y-160100000D01*
X259715000Y-87630000D02*
X259715000Y-73660000D01*
X139065000Y-134620000D02*
X139065000Y-147955000D01*
X152400000Y-185420000D02*
X152400000Y-182880000D01*
X335280000Y-160020000D02*
X335280000Y-163830000D01*
X163830000Y-116205000D02*
X167005000Y-116205000D01*
X236180000Y-185460000D02*
X236220000Y-185420000D01*
X234315000Y-160100000D02*
X236140000Y-160100000D01*
X281305000Y-73660000D02*
X289560000Y-73660000D01*
X261580000Y-76240000D02*
X261620000Y-76200000D01*
X234315000Y-180340000D02*
X227330000Y-180340000D01*
X287020000Y-136525000D02*
X294640000Y-136525000D01*
X116840000Y-86360000D02*
X113030000Y-86360000D01*
X154940000Y-147955000D02*
X154940000Y-146050000D01*
X199390000Y-125730000D02*
X203200000Y-125730000D01*
X314325000Y-73660000D02*
X318770000Y-73660000D01*
X116840000Y-76180000D02*
X116850000Y-76190000D01*
X218440000Y-179070000D02*
X218440000Y-185420000D01*
X314960000Y-138430000D02*
X314960000Y-160020000D01*
X104140000Y-104648000D02*
X96520000Y-104648000D01*
X332740000Y-160020000D02*
X335280000Y-160020000D01*
X114300000Y-104648000D02*
X109220000Y-104648000D01*
X232410000Y-185460000D02*
X234315000Y-185460000D01*
X274320000Y-185420000D02*
X274320000Y-189190000D01*
X88900000Y-137160000D02*
X91360000Y-137160000D01*
X199390000Y-88940000D02*
X199390000Y-87625000D01*
X167005000Y-116205000D02*
X167005000Y-119380000D01*
X166370000Y-105410000D02*
X166370000Y-99060000D01*
X294640000Y-164545000D02*
X294640000Y-185420000D01*
X264160000Y-138430000D02*
X264160000Y-136525000D01*
X294680000Y-164505000D02*
X294640000Y-164545000D01*
X137120000Y-101600000D02*
X137160000Y-101640000D01*
X318770000Y-73660000D02*
X318770000Y-76240000D01*
X175260000Y-182880000D02*
X157480000Y-182880000D01*
X137160000Y-88940000D02*
X140930000Y-88940000D01*
X257810000Y-185420000D02*
X257810000Y-195380000D01*
X304800000Y-185420000D02*
X304800000Y-189230000D01*
X231140000Y-76200000D02*
X227370000Y-76200000D01*
X335280000Y-163830000D02*
X335280000Y-165735000D01*
X285750000Y-59690000D02*
X289560000Y-59690000D01*
X229870000Y-148630000D02*
X231775000Y-148630000D01*
X302260000Y-160020000D02*
X304800000Y-160020000D01*
X234315000Y-180340000D02*
X234315000Y-170180000D01*
X191770000Y-77470000D02*
X190500000Y-78740000D01*
X114350000Y-76190000D02*
X114300000Y-76240000D01*
X210820000Y-86360000D02*
X210820000Y-83820000D01*
X284480000Y-193040000D02*
X279400000Y-193040000D01*
X140890000Y-119460000D02*
X140970000Y-119380000D01*
X279400000Y-193040000D02*
X274320000Y-193040000D01*
X116840000Y-73660000D02*
X116840000Y-76180000D01*
X148590000Y-73660000D02*
X139065000Y-73660000D01*
X317500000Y-114300000D02*
X315595000Y-114300000D01*
X236180000Y-172760000D02*
X236220000Y-172720000D01*
X281305000Y-59690000D02*
X285750000Y-59690000D01*
X138684000Y-86360000D02*
X116840000Y-86360000D01*
X140970000Y-134620000D02*
X139065000Y-134620000D01*
X186690000Y-59690000D02*
X281305000Y-59690000D01*
X261620000Y-127000000D02*
X259080000Y-127000000D01*
X294640000Y-185420000D02*
X294640000Y-189230000D01*
X170180000Y-134620000D02*
X167005000Y-134620000D01*
X269240000Y-193040000D02*
X264160000Y-193040000D01*
X281305000Y-59690000D02*
X281305000Y-73660000D01*
X152400000Y-195580000D02*
X152400000Y-200660000D01*
X191770000Y-77470000D02*
X199390000Y-77470000D01*
X137160000Y-119460000D02*
X140890000Y-119460000D01*
X203200000Y-196850000D02*
X203200000Y-200025000D01*
X109220000Y-104648000D02*
X104140000Y-104648000D01*
X146050000Y-61595000D02*
X147320000Y-61595000D01*
X139065000Y-73660000D02*
X139065000Y-71120000D01*
X137160000Y-63500000D02*
X139065000Y-63500000D01*
X289560000Y-59690000D02*
X314325000Y-59690000D01*
X271780000Y-160020000D02*
X274320000Y-160020000D01*
X138430000Y-61595000D02*
X140970000Y-61595000D01*
X203205000Y-88900000D02*
X201295000Y-88900000D01*
X264160000Y-160020000D02*
X264160000Y-163830000D01*
X203205000Y-86360000D02*
X203205000Y-88900000D01*
X332740000Y-185420000D02*
X335320000Y-185420000D01*
X254000000Y-125095000D02*
X259080000Y-125095000D01*
X315595000Y-101600000D02*
X315595000Y-99060000D01*
X264160000Y-189190000D02*
X264200000Y-189230000D01*
X264160000Y-138430000D02*
X264160000Y-160020000D01*
X340360000Y-193040000D02*
X335280000Y-193040000D01*
X137160000Y-76240000D02*
X140930000Y-76240000D01*
X139065000Y-63500000D02*
X140970000Y-63500000D01*
X259080000Y-127000000D02*
X259080000Y-136525000D01*
X201930000Y-76240000D02*
X201930000Y-72390000D01*
X315595000Y-114300000D02*
X315595000Y-127000000D01*
D17*
X82550000Y-75565000D02*
X82550000Y-71120000D01*
D15*
X304800000Y-185420000D02*
X302260000Y-185420000D01*
X93980000Y-101900000D02*
X96520000Y-101900000D01*
X148590000Y-182880000D02*
X148590000Y-185460000D01*
X203200000Y-83820000D02*
X203205000Y-83825000D01*
X259715000Y-97790000D02*
X259080000Y-98425000D01*
X198715000Y-147955000D02*
X199390000Y-148630000D01*
X284480000Y-187325000D02*
X325120000Y-187325000D01*
X147320000Y-61595000D02*
X151130000Y-61595000D01*
X134620000Y-111760000D02*
X134620000Y-109220000D01*
X289560000Y-59690000D02*
X289560000Y-62230000D01*
X146050000Y-63500000D02*
X146050000Y-61595000D01*
X256540000Y-129740000D02*
X258645000Y-129740000D01*
X259715000Y-87630000D02*
X259715000Y-97790000D01*
X175260000Y-185850000D02*
X175260000Y-182880000D01*
X264160000Y-163830000D02*
X264160000Y-185420000D01*
X134620000Y-109220000D02*
X134620000Y-107950000D01*
X93980000Y-104648000D02*
X88900000Y-104648000D01*
X233640000Y-148630000D02*
X233680000Y-148590000D01*
X205740000Y-196850000D02*
X203200000Y-196850000D01*
X234315000Y-193040000D02*
X234315000Y-194945000D01*
X309880000Y-193040000D02*
X304800000Y-193040000D01*
X137160000Y-101640000D02*
X140930000Y-101640000D01*
X226060000Y-197485000D02*
X224155000Y-199390000D01*
X232410000Y-172760000D02*
X236180000Y-172760000D01*
X139065000Y-110490000D02*
X139065000Y-73660000D01*
X325120000Y-185420000D02*
X322580000Y-185420000D01*
X141605000Y-115570000D02*
X139065000Y-118110000D01*
X234315000Y-195580000D02*
X243840000Y-195580000D01*
X104140000Y-101900000D02*
X104140000Y-104648000D01*
X166370000Y-61595000D02*
X186690000Y-61595000D01*
X317500000Y-101600000D02*
X315595000Y-101600000D01*
X139065000Y-71120000D02*
X139065000Y-63500000D01*
X229235000Y-76200000D02*
X229235000Y-85725000D01*
X315595000Y-99060000D02*
X332740000Y-99060000D01*
X151130000Y-61595000D02*
X166370000Y-61595000D01*
X251460000Y-127000000D02*
X254000000Y-127000000D01*
X203835000Y-76240000D02*
X205700000Y-76240000D01*
X289560000Y-73660000D02*
X289560000Y-76200000D01*
X122428000Y-62103000D02*
X122428000Y-73660000D01*
X254000000Y-172720000D02*
X254000000Y-170180000D01*
X199390000Y-148630000D02*
X203160000Y-148630000D01*
X325120000Y-138430000D02*
X325120000Y-160020000D01*
X234315000Y-185460000D02*
X234315000Y-193040000D01*
X88900000Y-104648000D02*
X83820000Y-104648000D01*
X224155000Y-199390000D02*
X210820000Y-199390000D01*
X203205000Y-83825000D02*
X203205000Y-86360000D01*
X274320000Y-189190000D02*
X274360000Y-189230000D01*
X114300000Y-107950000D02*
X114300000Y-111760000D01*
X314960000Y-185420000D02*
X314960000Y-188930000D01*
X294640000Y-160020000D02*
X294640000Y-163790000D01*
X189230000Y-63540000D02*
X186730000Y-63540000D01*
X116850000Y-76190000D02*
X114350000Y-76190000D01*
X284480000Y-187325000D02*
X284480000Y-190500000D01*
X199390000Y-137160000D02*
X203200000Y-137160000D01*
X139065000Y-110490000D02*
X141605000Y-113030000D01*
X335320000Y-187325000D02*
X335320000Y-189230000D01*
X318770000Y-86106000D02*
X332740000Y-86106000D01*
X140970000Y-61595000D02*
X146050000Y-61595000D01*
X332740000Y-86106000D02*
X332740000Y-83820000D01*
X138644000Y-76240000D02*
X138684000Y-76200000D01*
D17*
X87630000Y-75565000D02*
X87630000Y-71120000D01*
D15*
X113030000Y-86360000D02*
X113030000Y-88940000D01*
X91360000Y-137160000D02*
X91440000Y-137240000D01*
X322580000Y-160020000D02*
X325120000Y-160020000D01*
X231775000Y-159465000D02*
X232410000Y-160100000D01*
X264160000Y-136525000D02*
X274320000Y-136525000D01*
X261620000Y-185420000D02*
X257810000Y-185420000D01*
X109220000Y-101900000D02*
X109220000Y-104648000D01*
X198115000Y-86360000D02*
X198120000Y-86355000D01*
X203200000Y-160020000D02*
X203200000Y-185420000D01*
X315595000Y-137795000D02*
X314960000Y-138430000D01*
X304800000Y-138430000D02*
X304800000Y-160020000D01*
X157480000Y-182880000D02*
X152400000Y-182880000D01*
X325120000Y-160020000D02*
X325120000Y-163830000D01*
X289560000Y-190500000D02*
X284480000Y-190500000D01*
X243840000Y-195580000D02*
X243840000Y-193040000D01*
X141605000Y-113030000D02*
X141605000Y-115570000D01*
X274320000Y-138430000D02*
X274320000Y-160020000D01*
X199430000Y-88900000D02*
X199390000Y-88940000D01*
X134620000Y-149860000D02*
X134620000Y-147955000D01*
X203200000Y-200025000D02*
X177800000Y-200025000D01*
D16*
X101600000Y-73025000D02*
X101600000Y-71120000D01*
D15*
X261620000Y-185420000D02*
X264160000Y-185420000D01*
X140930000Y-76240000D02*
X140970000Y-76200000D01*
X294680000Y-163830000D02*
X294680000Y-164505000D01*
X177800000Y-195580000D02*
X152400000Y-195580000D01*
X114300000Y-146050000D02*
X114300000Y-149860000D01*
X318770000Y-88940000D02*
X318770000Y-86106000D01*
X203160000Y-102910000D02*
X203200000Y-102870000D01*
X335280000Y-190500000D02*
X330200000Y-190500000D01*
X167005000Y-134620000D02*
X167005000Y-147955000D01*
X325120000Y-185420000D02*
X325120000Y-187325000D01*
X88900000Y-116205000D02*
X88900000Y-137160000D01*
X152400000Y-182880000D02*
X148590000Y-182880000D01*
X163830000Y-105410000D02*
X166370000Y-105410000D01*
X201930000Y-76240000D02*
X203835000Y-76240000D01*
X264160000Y-185420000D02*
X264160000Y-189190000D01*
X259080000Y-98425000D02*
X259080000Y-125095000D01*
X251460000Y-85725000D02*
X251460000Y-87630000D01*
X315595000Y-99060000D02*
X315595000Y-88900000D01*
X227370000Y-76200000D02*
X227330000Y-76240000D01*
X92710000Y-116540000D02*
X89235000Y-116540000D01*
X264160000Y-193040000D02*
X264160000Y-189270000D01*
X259715000Y-87630000D02*
X251460000Y-87630000D01*
X335280000Y-165735000D02*
X335320000Y-165775000D01*
X186690000Y-63500000D02*
X186690000Y-59690000D01*
X199390000Y-114340000D02*
X203160000Y-114340000D01*
X289560000Y-62230000D02*
X285790000Y-62230000D01*
D17*
X87630000Y-71120000D02*
X101600000Y-71120000D01*
D15*
X284480000Y-138430000D02*
X284480000Y-160020000D01*
X148590000Y-71120000D02*
X148590000Y-73660000D01*
X294640000Y-193040000D02*
X294640000Y-189230000D01*
X318730000Y-88900000D02*
X318770000Y-88940000D01*
D16*
X101600000Y-61595000D02*
X138430000Y-61595000D01*
D15*
X201295000Y-158115000D02*
X203200000Y-158115000D01*
X205740000Y-160020000D02*
X203200000Y-160020000D01*
X199390000Y-77470000D02*
X200620000Y-76240000D01*
X139065000Y-147955000D02*
X134620000Y-147955000D01*
X287020000Y-114300000D02*
X287020000Y-127000000D01*
X83820000Y-104648000D02*
X83820000Y-107950000D01*
X163830000Y-112060000D02*
X163830000Y-116205000D01*
X210820000Y-199390000D02*
X210820000Y-196850000D01*
X314960000Y-160020000D02*
X314960000Y-163830000D01*
X234315000Y-197485000D02*
X226060000Y-197485000D01*
X287020000Y-127000000D02*
X287020000Y-136525000D01*
X257810000Y-76240000D02*
X261580000Y-76240000D01*
X299720000Y-193040000D02*
X294640000Y-193040000D01*
X231775000Y-148630000D02*
X231775000Y-159465000D01*
X271780000Y-185420000D02*
X274320000Y-185420000D01*
X114300000Y-107950000D02*
X125095000Y-107950000D01*
X157480000Y-147955000D02*
X157480000Y-149860000D01*
X284480000Y-190500000D02*
X284480000Y-193040000D01*
X335320000Y-185420000D02*
X335320000Y-187325000D01*
X203835000Y-83185000D02*
X203200000Y-83820000D01*
X246380000Y-182880000D02*
X234315000Y-182880000D01*
X264160000Y-189270000D02*
X264200000Y-189230000D01*
X256740000Y-114300000D02*
X256540000Y-114500000D01*
X93980000Y-101900000D02*
X93980000Y-104648000D01*
X281940000Y-160020000D02*
X284480000Y-160020000D01*
X304800000Y-163830000D02*
X304800000Y-185420000D01*
X205740000Y-196850000D02*
X210820000Y-196850000D01*
X193040000Y-86360000D02*
X198115000Y-86360000D01*
X175260000Y-146050000D02*
X175260000Y-149860000D01*
X274320000Y-138430000D02*
X274320000Y-136525000D01*
X254000000Y-170180000D02*
X234315000Y-170180000D01*
X274360000Y-189230000D02*
X274360000Y-193000000D01*
X140930000Y-101640000D02*
X140970000Y-101600000D01*
X292100000Y-160020000D02*
X294640000Y-160020000D01*
X314325000Y-59690000D02*
X314325000Y-73660000D01*
X236220000Y-200660000D02*
X234315000Y-200660000D01*
X289560000Y-114300000D02*
X287020000Y-114300000D01*
X261620000Y-114300000D02*
X256740000Y-114300000D01*
X203835000Y-76240000D02*
X203835000Y-83185000D01*
X203160000Y-114340000D02*
X203200000Y-114300000D01*
X168910000Y-76200000D02*
X163830000Y-76200000D01*
X170180000Y-119380000D02*
X167005000Y-119380000D01*
X335320000Y-165775000D02*
X335320000Y-185420000D01*
X315595000Y-88900000D02*
X318730000Y-88900000D01*
X304800000Y-160020000D02*
X304800000Y-163830000D01*
X236220000Y-193040000D02*
X234315000Y-193040000D01*
X325120000Y-187325000D02*
X335320000Y-187325000D01*
X234315000Y-197485000D02*
X234315000Y-194945000D01*
X195580000Y-146050000D02*
X195580000Y-149860000D01*
X96520000Y-104648000D02*
X93980000Y-104648000D01*
X234315000Y-185460000D02*
X234315000Y-182880000D01*
X203160000Y-148630000D02*
X203200000Y-148590000D01*
X154940000Y-147955000D02*
X198715000Y-147955000D01*
X285790000Y-62230000D02*
X285750000Y-62270000D01*
X205740000Y-185420000D02*
X203200000Y-185420000D01*
X203200000Y-187960000D02*
X203200000Y-196850000D01*
X205700000Y-76240000D02*
X205740000Y-76200000D01*
X125095000Y-101600000D02*
X137120000Y-101600000D01*
X134620000Y-147955000D02*
X134620000Y-146050000D01*
X284480000Y-136525000D02*
X287020000Y-136525000D01*
X236220000Y-185420000D02*
X238760000Y-185420000D01*
X335280000Y-189270000D02*
X335320000Y-189230000D01*
X332740000Y-99060000D02*
X332740000Y-96520000D01*
X314960000Y-163830000D02*
X314960000Y-185420000D01*
X166370000Y-63500000D02*
X168910000Y-63500000D01*
X215900000Y-187960000D02*
X218440000Y-185420000D01*
X122555000Y-146050000D02*
X114300000Y-146050000D01*
X315595000Y-101600000D02*
X315595000Y-114300000D01*
X274320000Y-163830000D02*
X274320000Y-185420000D01*
X325120000Y-163830000D02*
X325120000Y-185420000D01*
X157480000Y-149860000D02*
X157480000Y-182880000D01*
X134620000Y-146050000D02*
X134620000Y-143510000D01*
X125095000Y-143510000D02*
X122555000Y-146050000D01*
X335280000Y-190500000D02*
X335280000Y-189270000D01*
X284480000Y-185420000D02*
X284480000Y-187325000D01*
X294640000Y-136525000D02*
X294640000Y-138430000D01*
D17*
X82550000Y-71120000D02*
X87630000Y-71120000D01*
D15*
X229235000Y-85725000D02*
X251460000Y-85725000D01*
X167005000Y-119380000D02*
X167005000Y-134620000D01*
X274320000Y-193040000D02*
X271780000Y-193040000D01*
X89235000Y-116540000D02*
X88900000Y-116205000D01*
X234315000Y-185460000D02*
X236180000Y-185460000D01*
X232410000Y-160100000D02*
X234315000Y-160100000D01*
X284480000Y-160020000D02*
X284480000Y-185420000D01*
X177800000Y-200025000D02*
X177800000Y-195580000D01*
X274320000Y-160020000D02*
X274320000Y-163830000D01*
X261620000Y-91440000D02*
X257215000Y-91440000D01*
X335280000Y-138430000D02*
X335280000Y-160020000D01*
D14*
X184150000Y-163830000D02*
X184150000Y-149860000D01*
X200660000Y-172720000D02*
X200660000Y-165100000D01*
X200660000Y-163830000D02*
X184150000Y-163830000D01*
X200660000Y-163830000D02*
X200660000Y-165100000D01*
X184150000Y-149860000D02*
X180340000Y-149860000D01*
X205740000Y-171370000D02*
X205820000Y-171450000D01*
X205740000Y-167640000D02*
X205740000Y-171370000D01*
X205820000Y-171450000D02*
X205820000Y-175140000D01*
X205820000Y-175140000D02*
X205940000Y-175260000D01*
D15*
X121920000Y-215265000D02*
X104140000Y-215265000D01*
X104140000Y-188595000D02*
X107950000Y-188595000D01*
D17*
X80010000Y-215265000D02*
X80010000Y-177800000D01*
X80010000Y-177800000D02*
X80010000Y-80010000D01*
D15*
X83820000Y-177800000D02*
X80010000Y-177800000D01*
X104140000Y-195880000D02*
X104140000Y-215265000D01*
X129540000Y-208510000D02*
X132080000Y-208510000D01*
X121920000Y-215265000D02*
X121920000Y-182880000D01*
D17*
X80010000Y-80010000D02*
X92710000Y-80010000D01*
D15*
X132080000Y-215265000D02*
X121920000Y-215265000D01*
X104140000Y-215265000D02*
X80010000Y-215265000D01*
X104140000Y-195880000D02*
X104140000Y-188595000D01*
X132080000Y-208510000D02*
X132080000Y-215265000D01*
D17*
X92710000Y-80010000D02*
X92710000Y-75565000D01*
D14*
X220980000Y-196850000D02*
X220980000Y-193040000D01*
X218774000Y-196850000D02*
X220980000Y-196850000D01*
X215900000Y-196850000D02*
X218774000Y-196850000D01*
X222250000Y-196850000D02*
X222250000Y-191770000D01*
X222250000Y-191770000D02*
X218440000Y-191770000D01*
X223774000Y-196850000D02*
X222250000Y-196850000D01*
X218440000Y-193040000D02*
X218440000Y-191770000D01*
X236220000Y-208280000D02*
X237744000Y-206756000D01*
X252984000Y-206756000D02*
X252984000Y-210820000D01*
X252984000Y-210820000D02*
X251714000Y-210820000D01*
X234950000Y-205914000D02*
X227330000Y-205914000D01*
X234950000Y-208280000D02*
X234950000Y-205914000D01*
X236220000Y-208280000D02*
X234950000Y-208280000D01*
X237744000Y-206756000D02*
X252984000Y-206756000D01*
X227330000Y-200914000D02*
X227330000Y-202184000D01*
X227330000Y-202184000D02*
X241300000Y-202184000D01*
X241300000Y-202184000D02*
X241300000Y-200660000D01*
X238460000Y-199217000D02*
X238460000Y-198120000D01*
X238760000Y-199517000D02*
X238460000Y-199217000D01*
X220980000Y-214630000D02*
X220980000Y-203200000D01*
X238760000Y-199517000D02*
X238760000Y-200660000D01*
X220980000Y-203200000D02*
X223520000Y-203200000D01*
X149860000Y-72390000D02*
X151130000Y-71120000D01*
X149860000Y-94742000D02*
X149860000Y-72390000D01*
X144780000Y-100330000D02*
X144780000Y-94742000D01*
X146050000Y-101600000D02*
X144780000Y-100330000D01*
X144780000Y-94742000D02*
X149860000Y-94742000D01*
X218440000Y-175260000D02*
X218440000Y-167640000D01*
X299720000Y-120650000D02*
X299720000Y-121920000D01*
X299720000Y-120650000D02*
X302260000Y-120650000D01*
X302260000Y-120650000D02*
X302260000Y-114300000D01*
X298450000Y-87630000D02*
X313944000Y-87630000D01*
X298450000Y-74930000D02*
X298450000Y-87630000D01*
X313944000Y-136906000D02*
X312420000Y-136906000D01*
X313944000Y-87630000D02*
X313944000Y-136906000D01*
X292100000Y-74930000D02*
X298450000Y-74930000D01*
X292100000Y-69850000D02*
X292100000Y-74930000D01*
X312420000Y-136906000D02*
X312420000Y-138430000D01*
X105410000Y-87630000D02*
X105410000Y-83820000D01*
X105410000Y-83820000D02*
X116840000Y-83820000D01*
X104140000Y-88900000D02*
X105410000Y-87630000D01*
X100330000Y-87630000D02*
X100330000Y-90170000D01*
X102870000Y-87630000D02*
X104140000Y-88900000D01*
X102870000Y-87630000D02*
X100330000Y-87630000D01*
X116840000Y-83820000D02*
X116850000Y-83810000D01*
X83820000Y-90170000D02*
X100330000Y-90170000D01*
X121930000Y-83810000D02*
X121930000Y-82550000D01*
X104648000Y-82550000D02*
X104648000Y-86614000D01*
X93980000Y-86614000D02*
X93980000Y-88900000D01*
X121930000Y-82550000D02*
X104648000Y-82550000D01*
X104648000Y-86614000D02*
X93980000Y-86614000D01*
X91440000Y-88900000D02*
X93980000Y-88900000D01*
X82296000Y-115570000D02*
X83820000Y-115570000D01*
X82296000Y-88900000D02*
X91440000Y-88900000D01*
X82296000Y-115570000D02*
X82296000Y-88900000D01*
X169926000Y-87630000D02*
X169926000Y-63500000D01*
X154940000Y-86360000D02*
X154940000Y-77470000D01*
X163830000Y-87630000D02*
X163830000Y-86360000D01*
X153670000Y-76200000D02*
X154940000Y-77470000D01*
X163830000Y-87630000D02*
X169926000Y-87630000D01*
X171450000Y-63500000D02*
X169926000Y-63500000D01*
X163830000Y-86360000D02*
X154940000Y-86360000D01*
X166370000Y-85090000D02*
X166370000Y-86360000D01*
X156210000Y-85090000D02*
X156210000Y-83820000D01*
X166370000Y-85090000D02*
X156210000Y-85090000D01*
X161925000Y-73660000D02*
X161925000Y-76200000D01*
X158750000Y-76200000D02*
X161925000Y-76200000D01*
X219710000Y-100330000D02*
X219710000Y-104140000D01*
X218440000Y-99060000D02*
X219710000Y-100330000D01*
X218440000Y-99060000D02*
X218440000Y-96525000D01*
X219710000Y-104140000D02*
X218440000Y-104140000D01*
X218440000Y-104140000D02*
X218440000Y-110490000D01*
X190500000Y-86360000D02*
X188468000Y-86360000D01*
X188468000Y-86360000D02*
X188468000Y-73660000D01*
X188468000Y-73660000D02*
X186690000Y-73660000D01*
X147320000Y-98044000D02*
X151130000Y-98044000D01*
X148590000Y-127000000D02*
X147320000Y-125730000D01*
X147320000Y-125730000D02*
X147320000Y-98044000D01*
X151130000Y-98044000D02*
X151130000Y-96520000D01*
X217170000Y-109220000D02*
X217170000Y-100330000D01*
X215900000Y-110490000D02*
X217170000Y-109220000D01*
X217170000Y-94996000D02*
X223520000Y-94996000D01*
X217170000Y-97790000D02*
X217170000Y-94996000D01*
X223525000Y-95001000D02*
X223525000Y-96520000D01*
X215900000Y-99060000D02*
X217170000Y-97790000D01*
X217170000Y-100330000D02*
X215900000Y-99060000D01*
X223520000Y-94996000D02*
X223525000Y-95001000D01*
X187960000Y-142240000D02*
X189230000Y-140970000D01*
X189230000Y-137922000D02*
X196850000Y-137922000D01*
X196850000Y-106680000D02*
X186690000Y-106680000D01*
X196850000Y-137922000D02*
X196850000Y-106680000D01*
X189230000Y-140970000D02*
X189230000Y-137922000D01*
X97346000Y-114300000D02*
X99060000Y-114300000D01*
X97346000Y-152400000D02*
X99060000Y-152400000D01*
X97346000Y-114300000D02*
X97346000Y-152400000D01*
X223520000Y-110490000D02*
X224790000Y-109220000D01*
X223520000Y-99060000D02*
X224790000Y-97790000D01*
X224790000Y-101346000D02*
X227076000Y-101346000D01*
X227076000Y-97790000D02*
X224790000Y-97790000D01*
X224790000Y-109220000D02*
X224790000Y-101346000D01*
X227076000Y-101346000D02*
X227076000Y-97790000D01*
X184150000Y-114300000D02*
X184150000Y-113030000D01*
X172720000Y-142240000D02*
X173990000Y-140970000D01*
X173990000Y-114300000D02*
X184150000Y-114300000D01*
X173990000Y-140970000D02*
X173990000Y-114300000D01*
X172974000Y-71120000D02*
X171450000Y-71120000D01*
X156210000Y-93980000D02*
X156210000Y-92710000D01*
X203200000Y-144780000D02*
X204470000Y-143510000D01*
X112776000Y-157480000D02*
X114300000Y-157480000D01*
X112776000Y-119380000D02*
X114300000Y-119380000D01*
X204470000Y-143510000D02*
X204470000Y-134620000D01*
X172974000Y-71120000D02*
X172974000Y-92710000D01*
X172974000Y-92710000D02*
X156210000Y-92710000D01*
X112776000Y-119380000D02*
X112776000Y-157480000D01*
X203200000Y-133350000D02*
X204470000Y-134620000D01*
X222250000Y-100330000D02*
X222250000Y-109220000D01*
X220980000Y-99060000D02*
X222250000Y-100330000D01*
X222250000Y-109220000D02*
X220980000Y-110490000D01*
X180340000Y-177800000D02*
X176784000Y-177800000D01*
X176784000Y-179578000D02*
X176784000Y-177800000D01*
X171450000Y-179578000D02*
X171450000Y-163830000D01*
X176784000Y-179578000D02*
X171450000Y-179578000D01*
X213360000Y-99060000D02*
X214630000Y-97790000D01*
X223520000Y-91694000D02*
X223520000Y-90170000D01*
X214630000Y-109220000D02*
X213360000Y-110490000D01*
X214630000Y-100330000D02*
X214630000Y-109220000D01*
X223520000Y-90170000D02*
X223525000Y-90165000D01*
X214630000Y-97790000D02*
X214630000Y-91694000D01*
X223525000Y-90165000D02*
X223525000Y-88900000D01*
X213360000Y-99060000D02*
X214630000Y-100330000D01*
X214630000Y-91694000D02*
X223520000Y-91694000D01*
X185420000Y-112014000D02*
X185420000Y-113284000D01*
X227330000Y-168910000D02*
X227330000Y-161290000D01*
X173990000Y-106680000D02*
X173990000Y-113284000D01*
X182880000Y-112014000D02*
X185420000Y-112014000D01*
X173990000Y-113284000D02*
X182880000Y-113284000D01*
X194564000Y-113284000D02*
X195580000Y-114300000D01*
X227330000Y-161290000D02*
X226060000Y-160020000D01*
X171450000Y-106680000D02*
X173990000Y-106680000D01*
X185420000Y-113284000D02*
X194564000Y-113284000D01*
X226060000Y-170180000D02*
X227330000Y-168910000D01*
X182880000Y-113284000D02*
X182880000Y-112014000D01*
X210820000Y-99060000D02*
X212090000Y-100330000D01*
X212090000Y-100330000D02*
X212090000Y-109220000D01*
X212090000Y-109220000D02*
X210820000Y-110490000D01*
X208285000Y-88900000D02*
X207015000Y-90170000D01*
X207010000Y-97790000D02*
X205740000Y-99060000D01*
X205740000Y-90170000D02*
X205740000Y-95250000D01*
X205740000Y-110490000D02*
X204470000Y-109220000D01*
X207010000Y-95250000D02*
X207010000Y-97790000D01*
X204470000Y-100330000D02*
X205740000Y-100330000D01*
X204470000Y-109220000D02*
X204470000Y-100330000D01*
X205740000Y-95250000D02*
X207010000Y-95250000D01*
X207015000Y-90170000D02*
X205740000Y-90170000D01*
X205740000Y-100330000D02*
X205740000Y-99060000D01*
X228600000Y-114300000D02*
X227584000Y-115316000D01*
X227584000Y-148590000D02*
X226060000Y-148590000D01*
X227584000Y-115316000D02*
X227584000Y-148590000D01*
X208280000Y-108204000D02*
X208280000Y-110490000D01*
X213360000Y-91694000D02*
X213365000Y-91689000D01*
X209550000Y-100330000D02*
X209550000Y-108204000D01*
X209550000Y-91694000D02*
X213360000Y-91694000D01*
X209550000Y-97790000D02*
X209550000Y-91694000D01*
X208280000Y-99060000D02*
X209550000Y-97790000D01*
X209550000Y-108204000D02*
X208280000Y-108204000D01*
X213365000Y-91689000D02*
X213365000Y-88900000D01*
X208280000Y-99060000D02*
X209550000Y-100330000D01*
X157480000Y-107696000D02*
X153670000Y-107696000D01*
X157480000Y-124460000D02*
X157480000Y-107696000D01*
X153670000Y-107696000D02*
X153670000Y-109220000D01*
X157480000Y-124460000D02*
X158750000Y-124460000D01*
X160020000Y-118110000D02*
X160020000Y-95250000D01*
X160020000Y-120650000D02*
X160020000Y-135890000D01*
X185166000Y-88900000D02*
X186690000Y-88900000D01*
X160020000Y-95250000D02*
X185166000Y-95250000D01*
X143510000Y-135890000D02*
X143510000Y-142240000D01*
X160020000Y-135890000D02*
X143510000Y-135890000D01*
X185166000Y-95250000D02*
X185166000Y-88900000D01*
X158750000Y-119380000D02*
X160020000Y-118110000D01*
X158750000Y-119380000D02*
X160020000Y-120650000D01*
X248920000Y-72390000D02*
X246380000Y-72390000D01*
X248920000Y-64770000D02*
X248920000Y-72390000D01*
X247650000Y-63500000D02*
X248920000Y-64770000D01*
X191770000Y-97790000D02*
X191770000Y-85090000D01*
X193040000Y-99060000D02*
X191770000Y-97790000D01*
X191770000Y-85090000D02*
X193040000Y-83820000D01*
X232410000Y-67310000D02*
X219710000Y-67310000D01*
X233680000Y-83820000D02*
X232410000Y-82550000D01*
X219710000Y-67310000D02*
X219710000Y-66040000D01*
X232410000Y-82550000D02*
X232410000Y-67310000D01*
X245110000Y-67310000D02*
X246380000Y-67310000D01*
X231140000Y-61976000D02*
X246380000Y-61976000D01*
X247650000Y-73914000D02*
X247650000Y-82550000D01*
X248920000Y-83820000D02*
X247650000Y-82550000D01*
X245110000Y-73914000D02*
X247650000Y-73914000D01*
X245110000Y-67310000D02*
X245110000Y-73914000D01*
X229870000Y-66040000D02*
X231140000Y-64770000D01*
X231140000Y-64770000D02*
X231140000Y-61976000D01*
X246380000Y-61976000D02*
X246380000Y-67310000D01*
X243840000Y-67310000D02*
X243840000Y-64770000D01*
X241300000Y-83820000D02*
X240030000Y-82550000D01*
X243840000Y-64770000D02*
X245110000Y-63500000D01*
X240030000Y-67310000D02*
X243840000Y-67310000D01*
X240030000Y-82550000D02*
X240030000Y-67310000D01*
X208280000Y-144780000D02*
X207010000Y-146050000D01*
X209550000Y-157734000D02*
X209550000Y-151130000D01*
X209550000Y-151130000D02*
X207010000Y-151130000D01*
X205740000Y-157734000D02*
X209550000Y-157734000D01*
X207010000Y-128524000D02*
X208280000Y-128524000D01*
X205740000Y-121920000D02*
X207010000Y-123190000D01*
X207010000Y-134620000D02*
X207010000Y-143510000D01*
X207010000Y-151130000D02*
X207010000Y-146050000D01*
X208280000Y-102870000D02*
X207010000Y-104140000D01*
X207010000Y-104140000D02*
X207010000Y-120650000D01*
X207010000Y-123190000D02*
X207010000Y-128524000D01*
X205740000Y-156210000D02*
X205740000Y-157734000D01*
X208280000Y-128524000D02*
X208280000Y-133350000D01*
X208280000Y-133350000D02*
X207010000Y-134620000D01*
X207010000Y-120650000D02*
X205740000Y-121920000D01*
X207010000Y-143510000D02*
X208280000Y-144780000D01*
X279400000Y-91440000D02*
X279400000Y-87630000D01*
X209550000Y-127000000D02*
X209550000Y-120650000D01*
X210820000Y-133350000D02*
X210820000Y-127000000D01*
X209550000Y-111506000D02*
X209550000Y-120650000D01*
X210820000Y-108966000D02*
X209550000Y-108966000D01*
X213360000Y-156210000D02*
X212090000Y-154940000D01*
X213360000Y-120650000D02*
X213360000Y-121920000D01*
X210820000Y-127000000D02*
X209550000Y-127000000D01*
X210820000Y-147066000D02*
X210820000Y-144780000D01*
X209550000Y-135636000D02*
X210820000Y-135636000D01*
X210820000Y-144780000D02*
X209550000Y-143510000D01*
X209550000Y-108966000D02*
X209550000Y-111506000D01*
X210820000Y-135636000D02*
X210820000Y-133350000D01*
X209550000Y-120650000D02*
X213360000Y-120650000D01*
X212090000Y-154940000D02*
X212090000Y-147066000D01*
X209550000Y-143510000D02*
X209550000Y-135636000D01*
X212090000Y-147066000D02*
X210820000Y-147066000D01*
X210820000Y-102870000D02*
X210820000Y-108966000D01*
X220980000Y-137160000D02*
X222250000Y-135890000D01*
X222250000Y-146304000D02*
X223520000Y-146304000D01*
X222250000Y-138430000D02*
X222250000Y-146304000D01*
X219710000Y-115570000D02*
X223520000Y-115570000D01*
X219710000Y-123190000D02*
X220980000Y-123190000D01*
X223520000Y-115570000D02*
X223520000Y-114300000D01*
X222250000Y-127000000D02*
X220980000Y-125730000D01*
X219710000Y-123190000D02*
X219710000Y-115570000D01*
X222250000Y-135890000D02*
X222250000Y-127000000D01*
X223520000Y-146304000D02*
X223520000Y-148590000D01*
X220980000Y-125730000D02*
X220980000Y-123190000D01*
X220980000Y-137160000D02*
X222250000Y-138430000D01*
X208280000Y-134874000D02*
X209550000Y-134874000D01*
X208280000Y-137160000D02*
X208280000Y-134874000D01*
X209550000Y-127762000D02*
X208280000Y-127762000D01*
X208280000Y-127762000D02*
X208280000Y-125730000D01*
X209550000Y-134874000D02*
X209550000Y-127762000D01*
X215900000Y-156210000D02*
X217170000Y-154940000D01*
X219710000Y-143510000D02*
X218440000Y-144780000D01*
X218440000Y-133350000D02*
X219710000Y-134620000D01*
X217170000Y-154940000D02*
X217170000Y-147066000D01*
X217170000Y-147066000D02*
X218440000Y-147066000D01*
X219710000Y-134620000D02*
X219710000Y-143510000D01*
X218440000Y-147066000D02*
X218440000Y-144780000D01*
X223520000Y-100584000D02*
X226060000Y-100584000D01*
X212090000Y-138430000D02*
X212090000Y-146304000D01*
X226060000Y-99060000D02*
X226060000Y-100584000D01*
X210820000Y-137160000D02*
X212090000Y-138430000D01*
X223520000Y-102870000D02*
X223520000Y-100584000D01*
X213360000Y-146304000D02*
X213360000Y-148590000D01*
X212090000Y-146304000D02*
X213360000Y-146304000D01*
X217170000Y-115570000D02*
X217170000Y-124460000D01*
X215900000Y-146304000D02*
X215900000Y-148590000D01*
X217170000Y-124460000D02*
X218440000Y-125730000D01*
X219710000Y-127000000D02*
X218440000Y-125730000D01*
X218440000Y-137160000D02*
X217170000Y-135890000D01*
X217170000Y-135890000D02*
X217170000Y-130810000D01*
X217170000Y-146304000D02*
X215900000Y-146304000D01*
X217170000Y-138430000D02*
X217170000Y-146304000D01*
X219710000Y-130810000D02*
X219710000Y-127000000D01*
X218440000Y-137160000D02*
X217170000Y-138430000D01*
X220980000Y-104902000D02*
X220980000Y-102870000D01*
X219710000Y-113030000D02*
X219710000Y-104902000D01*
X217170000Y-113030000D02*
X219710000Y-113030000D01*
X217170000Y-130810000D02*
X219710000Y-130810000D01*
X219710000Y-104902000D02*
X220980000Y-104902000D01*
X215900000Y-114300000D02*
X217170000Y-115570000D01*
X215900000Y-114300000D02*
X217170000Y-113030000D01*
X223520000Y-156210000D02*
X222250000Y-154940000D01*
X222250000Y-147066000D02*
X220980000Y-147066000D01*
X220980000Y-147066000D02*
X220980000Y-144780000D01*
X222250000Y-154940000D02*
X222250000Y-147066000D01*
X302260000Y-85090000D02*
X330200000Y-85090000D01*
X302260000Y-85090000D02*
X302260000Y-83820000D01*
X330200000Y-85090000D02*
X330200000Y-83820000D01*
X302260000Y-77724000D02*
X302260000Y-76200000D01*
X339090000Y-77724000D02*
X302260000Y-77724000D01*
X337820000Y-96520000D02*
X337820000Y-90170000D01*
X339090000Y-90170000D02*
X339090000Y-77724000D01*
X337820000Y-90170000D02*
X339090000Y-90170000D01*
X337820000Y-82550000D02*
X337820000Y-83820000D01*
X337820000Y-82550000D02*
X299720000Y-82550000D01*
X299720000Y-82550000D02*
X299720000Y-83820000D01*
X271780000Y-106680000D02*
X270510000Y-107950000D01*
X270510000Y-107950000D02*
X270510000Y-111760000D01*
X335280000Y-87376000D02*
X335280000Y-83820000D01*
X336550000Y-87376000D02*
X335280000Y-87376000D01*
X335280000Y-101600000D02*
X336550000Y-100330000D01*
X336550000Y-100330000D02*
X336550000Y-87376000D01*
X331470000Y-115570000D02*
X331470000Y-118364000D01*
X330200000Y-121920000D02*
X331470000Y-120650000D01*
X341630000Y-115570000D02*
X331470000Y-115570000D01*
X331470000Y-120650000D02*
X331470000Y-118364000D01*
X330200000Y-109220000D02*
X331470000Y-110490000D01*
X341630000Y-76200000D02*
X341630000Y-115570000D01*
X341630000Y-76200000D02*
X340360000Y-76200000D01*
X331470000Y-110490000D02*
X331470000Y-118364000D01*
X106680000Y-87630000D02*
X111252000Y-87630000D01*
X101600000Y-90170000D02*
X101600000Y-88900000D01*
X106680000Y-90170000D02*
X106680000Y-87630000D01*
X111252000Y-87630000D02*
X111252000Y-90170000D01*
X111252000Y-90170000D02*
X119380000Y-90170000D01*
X119380000Y-90170000D02*
X119380000Y-96520000D01*
X101600000Y-90170000D02*
X106680000Y-90170000D01*
X83820000Y-92710000D02*
X116840000Y-92710000D01*
X116840000Y-92710000D02*
X116840000Y-96520000D01*
X144780000Y-133350000D02*
X144780000Y-117856000D01*
X170180000Y-135890000D02*
X172720000Y-135890000D01*
X142748000Y-112522000D02*
X140970000Y-110744000D01*
X142240000Y-140970000D02*
X142240000Y-135890000D01*
X140970000Y-110744000D02*
X140970000Y-109220000D01*
X172720000Y-135890000D02*
X172720000Y-134620000D01*
X142240000Y-135890000D02*
X143510000Y-134620000D01*
X140970000Y-142240000D02*
X142240000Y-140970000D01*
X144780000Y-117856000D02*
X142748000Y-117856000D01*
X142748000Y-117856000D02*
X142748000Y-112522000D01*
X170180000Y-142240000D02*
X170180000Y-135890000D01*
X143510000Y-134620000D02*
X144780000Y-133350000D01*
X148590000Y-165100000D02*
X148590000Y-160020000D01*
X154940000Y-165100000D02*
X148590000Y-165100000D01*
X167640000Y-112060000D02*
X167640000Y-97790000D01*
X167640000Y-112060000D02*
X166370000Y-112060000D01*
X161290000Y-96520000D02*
X161290000Y-97790000D01*
X167640000Y-97790000D02*
X161290000Y-97790000D01*
X215900000Y-129540000D02*
X215900000Y-133350000D01*
X218440000Y-129540000D02*
X215900000Y-129540000D01*
X212090000Y-123190000D02*
X210820000Y-121920000D01*
X213360000Y-133350000D02*
X212090000Y-132080000D01*
X212090000Y-132080000D02*
X212090000Y-123190000D01*
X227584000Y-113030000D02*
X220980000Y-113030000D01*
X222250000Y-123190000D02*
X222250000Y-119380000D01*
X222250000Y-123190000D02*
X223520000Y-123190000D01*
X222250000Y-119380000D02*
X220980000Y-119380000D01*
X227584000Y-88900000D02*
X226065000Y-88900000D01*
X223520000Y-125730000D02*
X223520000Y-123190000D01*
X220980000Y-114300000D02*
X220980000Y-113030000D01*
X227584000Y-88900000D02*
X227584000Y-113030000D01*
X205740000Y-88900000D02*
X204470000Y-90170000D01*
X204470000Y-95255000D02*
X204470000Y-90170000D01*
X203205000Y-96520000D02*
X204470000Y-95255000D01*
X205745000Y-88900000D02*
X205740000Y-88900000D01*
X340360000Y-88900000D02*
X340360000Y-90932000D01*
X340360000Y-114300000D02*
X339090000Y-113030000D01*
X339090000Y-113030000D02*
X339090000Y-90932000D01*
X339090000Y-90932000D02*
X340360000Y-90932000D01*
X334010000Y-105664000D02*
X335026000Y-105664000D01*
X335280000Y-96520000D02*
X334010000Y-97790000D01*
X334010000Y-97790000D02*
X334010000Y-105664000D01*
X334010000Y-107696000D02*
X334010000Y-113030000D01*
X334010000Y-113030000D02*
X335280000Y-114300000D01*
X335026000Y-107696000D02*
X334010000Y-107696000D01*
X335026000Y-105664000D02*
X335026000Y-107696000D01*
X154940000Y-121920000D02*
X151130000Y-121920000D01*
X154940000Y-110490000D02*
X154940000Y-121920000D01*
X156210000Y-109220000D02*
X154940000Y-110490000D01*
X149860000Y-125730000D02*
X149860000Y-102870000D01*
X149860000Y-102870000D02*
X151130000Y-101600000D01*
X151130000Y-127000000D02*
X149860000Y-125730000D01*
X153670000Y-119380000D02*
X152400000Y-118110000D01*
X152400000Y-118110000D02*
X152400000Y-110490000D01*
X152400000Y-110490000D02*
X151130000Y-109220000D01*
X250190000Y-143256000D02*
X247904000Y-143256000D01*
X250190000Y-150368000D02*
X248920000Y-150368000D01*
X248920000Y-156210000D02*
X248920000Y-150368000D01*
X250190000Y-150368000D02*
X250190000Y-143256000D01*
X247904000Y-127000000D02*
X236220000Y-127000000D01*
X247904000Y-143256000D02*
X247904000Y-127000000D01*
X231394000Y-123190000D02*
X231394000Y-146812000D01*
X231394000Y-146812000D02*
X228600000Y-146812000D01*
X224536000Y-170180000D02*
X220980000Y-170180000D01*
X228600000Y-158496000D02*
X224536000Y-158496000D01*
X228600000Y-146812000D02*
X228600000Y-158496000D01*
X250190000Y-123190000D02*
X231394000Y-123190000D01*
X251460000Y-121920000D02*
X250190000Y-123190000D01*
X224536000Y-158496000D02*
X224536000Y-170180000D01*
X236220000Y-111760000D02*
X237490000Y-113030000D01*
X255270000Y-160274000D02*
X257810000Y-160274000D01*
X254000000Y-148590000D02*
X255270000Y-149860000D01*
X255270000Y-149860000D02*
X255270000Y-160274000D01*
X237490000Y-113030000D02*
X254000000Y-113030000D01*
X257810000Y-160274000D02*
X257810000Y-182880000D01*
X252730000Y-150368000D02*
X252730000Y-141986000D01*
X251460000Y-156210000D02*
X251460000Y-150368000D01*
X252730000Y-150368000D02*
X251460000Y-150368000D01*
X250190000Y-124460000D02*
X236220000Y-124460000D01*
X252730000Y-141986000D02*
X250190000Y-141986000D01*
X250190000Y-141986000D02*
X250190000Y-124460000D01*
X213360000Y-67310000D02*
X213360000Y-73660000D01*
X212090000Y-66040000D02*
X213360000Y-67310000D01*
X245364000Y-144780000D02*
X245364000Y-129540000D01*
X248920000Y-144780000D02*
X245364000Y-144780000D01*
X245364000Y-129540000D02*
X236220000Y-129540000D01*
X248920000Y-148590000D02*
X248920000Y-144780000D01*
X322580000Y-114300000D02*
X322580000Y-109220000D01*
X322580000Y-109220000D02*
X322580000Y-101600000D01*
X332740000Y-114300000D02*
X332740000Y-109220000D01*
X332740000Y-109220000D02*
X332740000Y-101600000D01*
X320040000Y-101600000D02*
X318770000Y-102870000D01*
X320040000Y-110490000D02*
X320040000Y-114300000D01*
X318770000Y-110490000D02*
X320040000Y-110490000D01*
X318770000Y-102870000D02*
X318770000Y-110490000D01*
X327660000Y-114300000D02*
X327660000Y-101600000D01*
X318770000Y-123190000D02*
X320040000Y-123190000D01*
X320040000Y-127000000D02*
X320040000Y-123190000D01*
X318770000Y-111252000D02*
X317500000Y-111252000D01*
X318770000Y-123190000D02*
X318770000Y-111252000D01*
X317500000Y-111252000D02*
X317500000Y-109220000D01*
X275590000Y-125730000D02*
X275590000Y-123190000D01*
X261620000Y-106680000D02*
X262890000Y-107950000D01*
X274320000Y-121920000D02*
X274320000Y-120142000D01*
X262890000Y-120142000D02*
X274320000Y-120142000D01*
X275590000Y-123190000D02*
X274320000Y-121920000D01*
X276860000Y-127000000D02*
X275590000Y-125730000D01*
X262890000Y-107950000D02*
X262890000Y-120142000D01*
X307340000Y-91440000D02*
X306070000Y-92710000D01*
X307340000Y-127000000D02*
X308610000Y-125730000D01*
X308610000Y-112776000D02*
X308610000Y-125730000D01*
X307340000Y-127000000D02*
X306070000Y-125730000D01*
X306070000Y-92710000D02*
X306070000Y-112776000D01*
X289560000Y-125730000D02*
X306070000Y-125730000D01*
X306070000Y-112776000D02*
X308610000Y-112776000D01*
X289560000Y-121920000D02*
X289560000Y-125730000D01*
X279400000Y-106680000D02*
X279400000Y-112776000D01*
X279400000Y-112776000D02*
X266700000Y-112776000D01*
X266700000Y-112776000D02*
X266700000Y-114300000D01*
X281940000Y-121920000D02*
X283210000Y-120650000D01*
X283210000Y-120650000D02*
X283210000Y-92710000D01*
X299720000Y-91440000D02*
X298450000Y-92710000D01*
X283210000Y-92710000D02*
X298450000Y-92710000D01*
X283210000Y-129540000D02*
X281940000Y-129540000D01*
X281940000Y-127000000D02*
X281940000Y-129540000D01*
X280670000Y-115570000D02*
X280670000Y-125730000D01*
X276860000Y-114300000D02*
X278130000Y-115570000D01*
X278130000Y-115570000D02*
X280670000Y-115570000D01*
X280670000Y-125730000D02*
X281940000Y-127000000D01*
X327660000Y-69850000D02*
X327660000Y-64770000D01*
X327660000Y-64770000D02*
X331470000Y-64770000D01*
X303530000Y-120650000D02*
X303530000Y-112776000D01*
X304800000Y-121920000D02*
X303530000Y-120650000D01*
X303530000Y-112776000D02*
X297180000Y-112776000D01*
X297180000Y-112776000D02*
X297180000Y-106680000D01*
X345440000Y-208280000D02*
X345440000Y-123190000D01*
X345440000Y-208280000D02*
X340360000Y-208280000D01*
X317500000Y-123952000D02*
X318770000Y-123952000D01*
X318770000Y-133350000D02*
X318770000Y-123952000D01*
X317500000Y-123952000D02*
X317500000Y-121920000D01*
X317500000Y-134620000D02*
X318770000Y-133350000D01*
X327660000Y-127000000D02*
X327660000Y-121920000D01*
X322580000Y-127000000D02*
X322580000Y-121920000D01*
X323850000Y-135890000D02*
X337820000Y-135890000D01*
X322580000Y-127000000D02*
X323850000Y-128270000D01*
X323850000Y-128270000D02*
X323850000Y-135890000D01*
X337820000Y-134620000D02*
X337820000Y-135890000D01*
X327660000Y-134620000D02*
X327660000Y-128270000D01*
X327660000Y-128270000D02*
X332740000Y-128270000D01*
X332740000Y-127000000D02*
X332740000Y-121920000D01*
X332740000Y-128270000D02*
X332740000Y-127000000D01*
X339090000Y-136652000D02*
X322580000Y-136652000D01*
X337820000Y-127000000D02*
X337820000Y-121920000D01*
X322580000Y-136652000D02*
X322580000Y-134620000D01*
X337820000Y-127000000D02*
X339090000Y-128270000D01*
X339090000Y-128270000D02*
X339090000Y-136652000D01*
X185420000Y-134620000D02*
X184150000Y-133350000D01*
X184150000Y-133350000D02*
X184150000Y-120904000D01*
X184150000Y-120904000D02*
X180340000Y-120904000D01*
X180340000Y-120904000D02*
X180340000Y-119380000D01*
X180340000Y-162560000D02*
X180340000Y-160020000D01*
X173736000Y-172720000D02*
X175260000Y-172720000D01*
X179070000Y-158750000D02*
X173736000Y-158750000D01*
X173736000Y-158750000D02*
X173736000Y-172720000D01*
X180340000Y-157480000D02*
X179070000Y-158750000D01*
X161544000Y-172720000D02*
X160020000Y-172720000D01*
X180340000Y-152400000D02*
X177292000Y-152400000D01*
X161544000Y-153670000D02*
X161544000Y-172720000D01*
X177292000Y-153670000D02*
X161544000Y-153670000D01*
X177292000Y-152400000D02*
X177292000Y-153670000D01*
X175260000Y-177800000D02*
X176530000Y-176530000D01*
X180340000Y-154940000D02*
X181864000Y-156464000D01*
X176530000Y-176530000D02*
X181864000Y-176530000D01*
X181864000Y-176530000D02*
X181864000Y-156464000D01*
X223520000Y-144780000D02*
X224790000Y-146050000D01*
X224790000Y-157734000D02*
X220980000Y-157734000D01*
X224790000Y-146050000D02*
X224790000Y-157734000D01*
X220980000Y-157734000D02*
X220980000Y-156210000D01*
X210820000Y-157734000D02*
X210820000Y-156210000D01*
X214630000Y-157734000D02*
X210820000Y-157734000D01*
X214630000Y-146050000D02*
X214630000Y-157734000D01*
X213360000Y-144780000D02*
X214630000Y-146050000D01*
X204470000Y-152400000D02*
X208280000Y-152400000D01*
X120904000Y-170180000D02*
X120904000Y-179324000D01*
X163830000Y-187960000D02*
X180340000Y-187960000D01*
X205740000Y-146304000D02*
X204470000Y-146304000D01*
X163830000Y-186690000D02*
X163830000Y-187960000D01*
X119380000Y-170180000D02*
X120904000Y-170180000D01*
X139954000Y-186690000D02*
X163830000Y-186690000D01*
X205740000Y-144780000D02*
X205740000Y-146304000D01*
X139954000Y-179324000D02*
X139954000Y-186690000D01*
X208280000Y-152400000D02*
X208280000Y-156210000D01*
X204470000Y-146304000D02*
X204470000Y-152400000D01*
X120904000Y-179324000D02*
X139954000Y-179324000D01*
X279400000Y-208280000D02*
X289560000Y-208280000D01*
X280924000Y-200660000D02*
X280924000Y-201930000D01*
X273050000Y-201930000D02*
X271780000Y-200660000D01*
X280924000Y-201930000D02*
X273050000Y-201930000D01*
X289560000Y-200660000D02*
X280924000Y-200660000D01*
X281686000Y-201930000D02*
X290830000Y-201930000D01*
X289560000Y-205740000D02*
X290830000Y-204470000D01*
X290830000Y-204470000D02*
X290830000Y-201930000D01*
X298450000Y-201930000D02*
X290830000Y-201930000D01*
X299720000Y-200660000D02*
X298450000Y-201930000D01*
X279400000Y-203200000D02*
X281686000Y-203200000D01*
X281686000Y-201930000D02*
X281686000Y-203200000D01*
X328930000Y-194310000D02*
X303530000Y-194310000D01*
X330200000Y-193040000D02*
X328930000Y-194310000D01*
X303530000Y-194310000D02*
X302260000Y-195580000D01*
X334010000Y-210820000D02*
X330200000Y-210820000D01*
X331470000Y-201930000D02*
X303530000Y-201930000D01*
X334010000Y-200660000D02*
X334010000Y-210820000D01*
X332740000Y-200660000D02*
X334010000Y-200660000D01*
X302260000Y-200660000D02*
X303530000Y-201930000D01*
X332740000Y-200660000D02*
X331470000Y-201930000D01*
X303530000Y-196850000D02*
X328930000Y-196850000D01*
X302260000Y-198120000D02*
X303530000Y-196850000D01*
X328930000Y-196850000D02*
X330200000Y-198120000D01*
X165100000Y-185420000D02*
X165100000Y-187198000D01*
X195580000Y-185420000D02*
X181864000Y-185420000D01*
X176784000Y-186690000D02*
X176784000Y-187198000D01*
X181864000Y-186690000D02*
X181864000Y-185420000D01*
X181864000Y-186690000D02*
X176784000Y-186690000D01*
X176784000Y-187198000D02*
X165100000Y-187198000D01*
X162560000Y-191770000D02*
X194056000Y-191770000D01*
X196850000Y-186690000D02*
X196850000Y-182880000D01*
X194056000Y-186690000D02*
X196850000Y-186690000D01*
X162560000Y-193040000D02*
X162560000Y-191770000D01*
X194056000Y-191770000D02*
X194056000Y-186690000D01*
X195580000Y-182880000D02*
X196850000Y-182880000D01*
X219710000Y-189230000D02*
X219710000Y-161290000D01*
X218440000Y-160020000D02*
X219710000Y-161290000D01*
X213360000Y-189230000D02*
X219710000Y-189230000D01*
X213360000Y-193040000D02*
X213360000Y-189230000D01*
X246380000Y-160020000D02*
X243840000Y-160020000D01*
X248920000Y-160020000D02*
X248920000Y-167640000D01*
X251460000Y-158496000D02*
X247650000Y-158496000D01*
X247650000Y-161544000D02*
X236220000Y-161544000D01*
X247650000Y-158496000D02*
X247650000Y-161544000D01*
X236220000Y-161544000D02*
X236220000Y-167640000D01*
X251460000Y-160020000D02*
X251460000Y-158496000D01*
X238760000Y-181610000D02*
X250190000Y-181610000D01*
X261620000Y-200660000D02*
X260350000Y-201930000D01*
X250190000Y-194310000D02*
X250190000Y-181610000D01*
X255524000Y-168910000D02*
X246380000Y-168910000D01*
X248920000Y-200660000D02*
X248920000Y-201930000D01*
X260350000Y-201930000D02*
X248920000Y-201930000D01*
X246380000Y-168910000D02*
X246380000Y-167640000D01*
X238760000Y-181610000D02*
X238760000Y-180340000D01*
X255524000Y-181610000D02*
X255524000Y-168910000D01*
X250190000Y-181610000D02*
X255524000Y-181610000D01*
X248920000Y-200660000D02*
X248920000Y-194310000D01*
X248920000Y-194310000D02*
X250190000Y-194310000D01*
X273050000Y-207010000D02*
X273050000Y-204470000D01*
X292100000Y-205740000D02*
X290830000Y-207010000D01*
X273050000Y-204470000D02*
X271780000Y-203200000D01*
X290830000Y-207010000D02*
X273050000Y-207010000D01*
X289560000Y-193040000D02*
X290830000Y-194310000D01*
X290830000Y-196850000D02*
X292100000Y-198120000D01*
X271780000Y-198120000D02*
X270510000Y-196850000D01*
X270510000Y-194310000D02*
X288290000Y-194310000D01*
X290830000Y-194310000D02*
X290830000Y-196850000D01*
X289560000Y-193040000D02*
X288290000Y-193040000D01*
X288290000Y-193040000D02*
X288290000Y-194310000D01*
X270510000Y-196850000D02*
X270510000Y-194310000D01*
X273050000Y-196850000D02*
X288290000Y-196850000D01*
X288290000Y-196850000D02*
X289560000Y-195580000D01*
X271780000Y-195580000D02*
X273050000Y-196850000D01*
X309880000Y-205740000D02*
X328930000Y-205740000D01*
X330200000Y-208280000D02*
X332740000Y-205740000D01*
X328930000Y-208280000D02*
X330200000Y-208280000D01*
X328930000Y-205740000D02*
X328930000Y-208280000D01*
X302260000Y-203200000D02*
X303530000Y-204470000D01*
X321310000Y-204470000D02*
X321310000Y-203200000D01*
X303530000Y-204470000D02*
X321310000Y-204470000D01*
X251460000Y-179070000D02*
X251460000Y-180340000D01*
X236220000Y-179070000D02*
X251460000Y-179070000D01*
X236220000Y-179070000D02*
X236220000Y-180340000D01*
X165100000Y-194310000D02*
X150876000Y-194310000D01*
X124460000Y-197866000D02*
X124460000Y-195510000D01*
X150876000Y-194310000D02*
X150876000Y-197866000D01*
X150876000Y-197866000D02*
X124460000Y-197866000D01*
X165100000Y-193040000D02*
X165100000Y-194310000D01*
X205740000Y-186690000D02*
X205740000Y-193040000D01*
X213360000Y-186690000D02*
X205740000Y-186690000D01*
X213360000Y-185420000D02*
X213360000Y-186690000D01*
X220980000Y-179070000D02*
X228600000Y-179070000D01*
X228600000Y-179070000D02*
X228600000Y-170180000D01*
X220980000Y-185420000D02*
X220980000Y-179070000D01*
X269240000Y-200660000D02*
X269240000Y-203200000D01*
X251460000Y-200660000D02*
X252730000Y-199390000D01*
X252730000Y-199390000D02*
X262890000Y-199390000D01*
X270510000Y-199390000D02*
X269240000Y-198120000D01*
X262890000Y-199390000D02*
X262890000Y-198120000D01*
X271780000Y-208280000D02*
X273050000Y-209550000D01*
X302260000Y-208280000D02*
X300990000Y-209550000D01*
X270510000Y-207010000D02*
X270510000Y-199390000D01*
X273050000Y-209550000D02*
X300990000Y-209550000D01*
X271780000Y-208280000D02*
X270510000Y-207010000D01*
X262890000Y-198120000D02*
X269240000Y-198120000D01*
X280670000Y-199390000D02*
X293370000Y-199390000D01*
X302260000Y-193040000D02*
X300990000Y-194310000D01*
X279400000Y-200660000D02*
X280670000Y-199390000D01*
X293370000Y-199390000D02*
X293370000Y-194310000D01*
X293370000Y-194310000D02*
X300990000Y-194310000D01*
X238760000Y-208280000D02*
X241300000Y-208280000D01*
X223520000Y-210820000D02*
X223520000Y-208100000D01*
X238714000Y-210820000D02*
X223520000Y-210820000D01*
X223520000Y-208100000D02*
X224102000Y-208100000D01*
X238714000Y-210820000D02*
X238714000Y-208326000D01*
X83820000Y-180340000D02*
X91440000Y-180340000D01*
X91440000Y-180340000D02*
X91440000Y-175260000D01*
X124460000Y-206756000D02*
X124460000Y-208510000D01*
X137160000Y-206756000D02*
X124460000Y-206756000D01*
X104140000Y-182880000D02*
X93980000Y-182880000D01*
X93980000Y-182880000D02*
X93980000Y-175260000D01*
X137160000Y-206756000D02*
X137160000Y-208510000D01*
X108920000Y-182880000D02*
X117602000Y-182880000D01*
X117602000Y-191770000D02*
X119380000Y-191770000D01*
X117602000Y-182880000D02*
X117602000Y-191770000D01*
X130048000Y-188177898D02*
X130048000Y-182880000D01*
X130048000Y-182880000D02*
X137160000Y-182880000D01*
X130048000Y-188177898D02*
X128487898Y-188177898D01*
X142240000Y-187960000D02*
X138938000Y-187960000D01*
X138938000Y-186690000D02*
X132080000Y-186690000D01*
X132080000Y-189738000D02*
X134620000Y-189738000D01*
X134620000Y-195510000D02*
X134620000Y-196850000D01*
X138938000Y-187960000D02*
X138938000Y-186690000D01*
X134620000Y-196850000D02*
X136144000Y-196850000D01*
X132080000Y-189738000D02*
X132080000Y-188177898D01*
X133096000Y-196850000D02*
X129540000Y-196850000D01*
X139700000Y-195510000D02*
X139700000Y-196850000D01*
X139700000Y-196850000D02*
X136144000Y-196850000D01*
X133096000Y-196850000D02*
X134620000Y-196850000D01*
X127000000Y-195510000D02*
X129540000Y-195510000D01*
X132080000Y-186690000D02*
X132080000Y-188177898D01*
X129540000Y-196850000D02*
X129540000Y-195510000D01*
X139700000Y-195510000D02*
X142240000Y-195510000D01*
X134620000Y-189738000D02*
X134620000Y-195510000D01*
X132080000Y-195510000D02*
X132080000Y-191770000D01*
D15*
X204470000Y-63500000D02*
X204470000Y-66040000D01*
X201930000Y-66040000D02*
X201930000Y-63500000D01*
X201930000Y-69850000D02*
X201930000Y-66040000D01*
X204470000Y-66040000D02*
X201930000Y-66040000D01*
X201930000Y-63500000D02*
X204470000Y-63500000D01*
X207010000Y-63500000D02*
X207010000Y-66040000D01*
D14*
X82296000Y-147320000D02*
X83820000Y-147320000D01*
X82296000Y-167640000D02*
X82296000Y-147320000D01*
X82296000Y-167640000D02*
X83820000Y-167640000D01*
X85344000Y-144780000D02*
X83820000Y-144780000D01*
X85344000Y-165100000D02*
X83820000Y-165100000D01*
X85344000Y-144780000D02*
X85344000Y-165100000D01*
X154940000Y-191770000D02*
X137160000Y-191770000D01*
X137160000Y-191770000D02*
X137160000Y-193040000D01*
X137160000Y-195510000D02*
X137160000Y-193040000D01*
X154940000Y-193040000D02*
X154940000Y-191770000D01*
M02*
