G04 #@! TF.GenerationSoftware,KiCad,Pcbnew,9.0.0*
G04 #@! TF.CreationDate,2025-08-20T08:59:42+02:00*
G04 #@! TF.ProjectId,gdp,6764702e-6b69-4636-9164-5f7063625858,rev?*
G04 #@! TF.SameCoordinates,Original*
G04 #@! TF.FileFunction,Soldermask,Bot*
G04 #@! TF.FilePolarity,Negative*
%FSLAX46Y46*%
G04 Gerber Fmt 4.6, Leading zero omitted, Abs format (unit mm)*
G04 Created by KiCad (PCBNEW 9.0.0) date 2025-08-20 08:59:42*
%MOMM*%
%LPD*%
G01*
G04 APERTURE LIST*
%ADD10C,1.400000*%
%ADD11C,1.700000*%
%ADD12C,4.000000*%
G04 APERTURE END LIST*
D10*
X166370000Y-63500000D03*
X166370000Y-73660000D03*
X83820000Y-107950000D03*
X83820000Y-110490000D03*
X83820000Y-113030000D03*
X83820000Y-115570000D03*
X83820000Y-118110000D03*
X83820000Y-120650000D03*
X83820000Y-123190000D03*
X83820000Y-125730000D03*
X83820000Y-128270000D03*
X83820000Y-130810000D03*
X289560000Y-190500000D03*
X289560000Y-193040000D03*
X289560000Y-195580000D03*
X289560000Y-198120000D03*
X289560000Y-200660000D03*
X289560000Y-203200000D03*
X289560000Y-205740000D03*
X289560000Y-208280000D03*
X289560000Y-210820000D03*
D11*
X292100000Y-167640000D03*
D10*
X292100000Y-170180000D03*
X292100000Y-172720000D03*
X292100000Y-175260000D03*
X292100000Y-177800000D03*
X292100000Y-180340000D03*
X292100000Y-182880000D03*
X292100000Y-185420000D03*
X299720000Y-185420000D03*
X299720000Y-182880000D03*
X299720000Y-180340000D03*
X299720000Y-177800000D03*
X299720000Y-175260000D03*
X299720000Y-172720000D03*
X299720000Y-170180000D03*
X299720000Y-167640000D03*
X200660000Y-187720000D03*
X200660000Y-172720000D03*
X142240000Y-208510000D03*
X142240000Y-195510000D03*
X132080000Y-73660000D03*
X132080000Y-83820000D03*
X205940000Y-175260000D03*
X218440000Y-175260000D03*
X201930000Y-76240000D03*
X201930000Y-81240000D03*
D11*
X261620000Y-121920000D03*
D10*
X264160000Y-121920000D03*
X266700000Y-121920000D03*
X269240000Y-121920000D03*
X271780000Y-121920000D03*
X274320000Y-121920000D03*
X276860000Y-121920000D03*
X279400000Y-121920000D03*
X281940000Y-121920000D03*
X284480000Y-121920000D03*
X284480000Y-114300000D03*
X281940000Y-114300000D03*
X279400000Y-114300000D03*
X276860000Y-114300000D03*
X274320000Y-114300000D03*
X271780000Y-114300000D03*
X269240000Y-114300000D03*
X266700000Y-114300000D03*
X264160000Y-114300000D03*
X261620000Y-114300000D03*
X198120000Y-208280000D03*
X195580000Y-208280000D03*
X199390000Y-102910000D03*
X199390000Y-107910000D03*
X335280000Y-138430000D03*
X340280000Y-138430000D03*
X314960000Y-138430000D03*
X319960000Y-138430000D03*
X147320000Y-208510000D03*
X147320000Y-195510000D03*
X161925000Y-63500000D03*
X161925000Y-73660000D03*
D11*
X281940000Y-167640000D03*
D10*
X281940000Y-170180000D03*
X281940000Y-172720000D03*
X281940000Y-175260000D03*
X281940000Y-177800000D03*
X281940000Y-180340000D03*
X281940000Y-182880000D03*
X281940000Y-185420000D03*
X289560000Y-185420000D03*
X289560000Y-182880000D03*
X289560000Y-180340000D03*
X289560000Y-177800000D03*
X289560000Y-175260000D03*
X289560000Y-172720000D03*
X289560000Y-170180000D03*
X289560000Y-167640000D03*
X194310000Y-66040000D03*
X196850000Y-66040000D03*
X199390000Y-66040000D03*
X201930000Y-66040000D03*
X204470000Y-66040000D03*
X207010000Y-66040000D03*
X209550000Y-66040000D03*
X212090000Y-66040000D03*
X214630000Y-66040000D03*
X217170000Y-66040000D03*
X219710000Y-66040000D03*
X222250000Y-66040000D03*
X224790000Y-66040000D03*
X227330000Y-66040000D03*
X229870000Y-66040000D03*
X232410000Y-66040000D03*
X234950000Y-66040000D03*
X237490000Y-66040000D03*
X240030000Y-66040000D03*
X242570000Y-66040000D03*
X245110000Y-66040000D03*
X247650000Y-66040000D03*
X250190000Y-66040000D03*
X252730000Y-66040000D03*
X255270000Y-66040000D03*
X257810000Y-66040000D03*
X260350000Y-66040000D03*
X262890000Y-66040000D03*
X265430000Y-66040000D03*
X267970000Y-66040000D03*
X270510000Y-66040000D03*
X273050000Y-66040000D03*
D11*
X271780000Y-142240000D03*
D10*
X271780000Y-144780000D03*
X271780000Y-147320000D03*
X271780000Y-149860000D03*
X271780000Y-152400000D03*
X271780000Y-154940000D03*
X271780000Y-157480000D03*
X271780000Y-160020000D03*
X279400000Y-160020000D03*
X279400000Y-157480000D03*
X279400000Y-154940000D03*
X279400000Y-152400000D03*
X279400000Y-149860000D03*
X279400000Y-147320000D03*
X279400000Y-144780000D03*
X279400000Y-142240000D03*
X284480000Y-163830000D03*
X289480000Y-163830000D03*
X113030000Y-88940000D03*
X113030000Y-93940000D03*
X198120000Y-210820000D03*
X195580000Y-210820000D03*
X325120000Y-138430000D03*
X330120000Y-138430000D03*
X264160000Y-163830000D03*
X269160000Y-163830000D03*
D11*
X302260000Y-167640000D03*
D10*
X302260000Y-170180000D03*
X302260000Y-172720000D03*
X302260000Y-175260000D03*
X302260000Y-177800000D03*
X302260000Y-180340000D03*
X302260000Y-182880000D03*
X302260000Y-185420000D03*
X309880000Y-185420000D03*
X309880000Y-182880000D03*
X309880000Y-180340000D03*
X309880000Y-177800000D03*
X309880000Y-175260000D03*
X309880000Y-172720000D03*
X309880000Y-170180000D03*
X309880000Y-167640000D03*
X198120000Y-83815000D03*
X198120000Y-86355000D03*
X106680000Y-101900000D03*
X106680000Y-88900000D03*
X210820000Y-182880000D03*
X205820000Y-182880000D03*
X325120000Y-163830000D03*
X330120000Y-163830000D03*
D11*
X152400000Y-193040000D03*
D10*
X154940000Y-193040000D03*
X157480000Y-193040000D03*
X160020000Y-193040000D03*
X162560000Y-193040000D03*
X165100000Y-193040000D03*
X167640000Y-193040000D03*
X167640000Y-185420000D03*
X165100000Y-185420000D03*
X162560000Y-185420000D03*
X160020000Y-185420000D03*
X157480000Y-185420000D03*
X154940000Y-185420000D03*
X152400000Y-185420000D03*
D11*
X203205000Y-96520000D03*
D10*
X205745000Y-96520000D03*
X208285000Y-96520000D03*
X210825000Y-96520000D03*
X213365000Y-96520000D03*
X215905000Y-96520000D03*
X218445000Y-96520000D03*
X220985000Y-96520000D03*
X223525000Y-96520000D03*
X226065000Y-96520000D03*
X226065000Y-88900000D03*
X223525000Y-88900000D03*
X220985000Y-88900000D03*
X218445000Y-88900000D03*
X215905000Y-88900000D03*
X213365000Y-88900000D03*
X210825000Y-88900000D03*
X208285000Y-88900000D03*
X205745000Y-88900000D03*
X203205000Y-88900000D03*
X144780000Y-208510000D03*
X144780000Y-195510000D03*
D11*
X233680000Y-156210000D03*
D10*
X236220000Y-156210000D03*
X238760000Y-156210000D03*
X241300000Y-156210000D03*
X243840000Y-156210000D03*
X246380000Y-156210000D03*
X248920000Y-156210000D03*
X251460000Y-156210000D03*
X254000000Y-156210000D03*
X256540000Y-156210000D03*
X256540000Y-148590000D03*
X254000000Y-148590000D03*
X251460000Y-148590000D03*
X248920000Y-148590000D03*
X246380000Y-148590000D03*
X243840000Y-148590000D03*
X241300000Y-148590000D03*
X238760000Y-148590000D03*
X236220000Y-148590000D03*
X233680000Y-148590000D03*
X137240000Y-187960000D03*
X142240000Y-187960000D03*
X91440000Y-137240000D03*
X91440000Y-142240000D03*
X199390000Y-125730000D03*
X199390000Y-130730000D03*
X163830000Y-76200000D03*
X163830000Y-86360000D03*
D11*
X140970000Y-127000000D03*
D10*
X143510000Y-127000000D03*
X146050000Y-127000000D03*
X148590000Y-127000000D03*
X151130000Y-127000000D03*
X153670000Y-127000000D03*
X156210000Y-127000000D03*
X158750000Y-127000000D03*
X161290000Y-127000000D03*
X163830000Y-127000000D03*
X163830000Y-119380000D03*
X161290000Y-119380000D03*
X158750000Y-119380000D03*
X156210000Y-119380000D03*
X153670000Y-119380000D03*
X151130000Y-119380000D03*
X148590000Y-119380000D03*
X146050000Y-119380000D03*
X143510000Y-119380000D03*
X140970000Y-119380000D03*
D11*
X312420000Y-142240000D03*
D10*
X312420000Y-144780000D03*
X312420000Y-147320000D03*
X312420000Y-149860000D03*
X312420000Y-152400000D03*
X312420000Y-154940000D03*
X312420000Y-157480000D03*
X312420000Y-160020000D03*
X320040000Y-160020000D03*
X320040000Y-157480000D03*
X320040000Y-154940000D03*
X320040000Y-152400000D03*
X320040000Y-149860000D03*
X320040000Y-147320000D03*
X320040000Y-144780000D03*
X320040000Y-142240000D03*
X115787898Y-188177898D03*
X119380000Y-188177898D03*
X119380000Y-191770000D03*
X139700000Y-208510000D03*
X139700000Y-195510000D03*
X304800000Y-163830000D03*
X309800000Y-163830000D03*
X114300000Y-76240000D03*
X114300000Y-81240000D03*
X121920000Y-182880000D03*
X108920000Y-182880000D03*
D11*
X271780000Y-167640000D03*
D10*
X271780000Y-170180000D03*
X271780000Y-172720000D03*
X271780000Y-175260000D03*
X271780000Y-177800000D03*
X271780000Y-180340000D03*
X271780000Y-182880000D03*
X271780000Y-185420000D03*
X279400000Y-185420000D03*
X279400000Y-182880000D03*
X279400000Y-180340000D03*
X279400000Y-177800000D03*
X279400000Y-175260000D03*
X279400000Y-172720000D03*
X279400000Y-170180000D03*
X279400000Y-167640000D03*
D11*
X170180000Y-127000000D03*
D10*
X172720000Y-127000000D03*
X175260000Y-127000000D03*
X177800000Y-127000000D03*
X180340000Y-127000000D03*
X182880000Y-127000000D03*
X185420000Y-127000000D03*
X187960000Y-127000000D03*
X190500000Y-127000000D03*
X193040000Y-127000000D03*
X193040000Y-119380000D03*
X190500000Y-119380000D03*
X187960000Y-119380000D03*
X185420000Y-119380000D03*
X182880000Y-119380000D03*
X180340000Y-119380000D03*
X177800000Y-119380000D03*
X175260000Y-119380000D03*
X172720000Y-119380000D03*
X170180000Y-119380000D03*
D11*
X292100000Y-193040000D03*
D10*
X292100000Y-195580000D03*
X292100000Y-198120000D03*
X292100000Y-200660000D03*
X292100000Y-203200000D03*
X292100000Y-205740000D03*
X292100000Y-208280000D03*
X299720000Y-208280000D03*
X299720000Y-205740000D03*
X299720000Y-203200000D03*
X299720000Y-200660000D03*
X299720000Y-198120000D03*
X299720000Y-195580000D03*
X299720000Y-193040000D03*
X104140000Y-195880000D03*
X104140000Y-182880000D03*
X124460000Y-208510000D03*
X124460000Y-195510000D03*
D11*
X332740000Y-193040000D03*
D10*
X332740000Y-195580000D03*
X332740000Y-198120000D03*
X332740000Y-200660000D03*
X332740000Y-203200000D03*
X332740000Y-205740000D03*
X332740000Y-208280000D03*
X340360000Y-208280000D03*
X340360000Y-205740000D03*
X340360000Y-203200000D03*
X340360000Y-200660000D03*
X340360000Y-198120000D03*
X340360000Y-195580000D03*
X340360000Y-193040000D03*
D11*
X205740000Y-83820000D03*
D10*
X208280000Y-83820000D03*
X210820000Y-83820000D03*
X213360000Y-83820000D03*
X215900000Y-83820000D03*
X218440000Y-83820000D03*
X220980000Y-83820000D03*
X223520000Y-83820000D03*
X223520000Y-76200000D03*
X220980000Y-76200000D03*
X218440000Y-76200000D03*
X215900000Y-76200000D03*
X213360000Y-76200000D03*
X210820000Y-76200000D03*
X208280000Y-76200000D03*
X205740000Y-76200000D03*
D11*
X292100000Y-142240000D03*
D10*
X292100000Y-144780000D03*
X292100000Y-147320000D03*
X292100000Y-149860000D03*
X292100000Y-152400000D03*
X292100000Y-154940000D03*
X292100000Y-157480000D03*
X292100000Y-160020000D03*
X299720000Y-160020000D03*
X299720000Y-157480000D03*
X299720000Y-154940000D03*
X299720000Y-152400000D03*
X299720000Y-149860000D03*
X299720000Y-147320000D03*
X299720000Y-144780000D03*
X299720000Y-142240000D03*
X91440000Y-173020000D03*
X91440000Y-160020000D03*
D11*
X203200000Y-156210000D03*
D10*
X205740000Y-156210000D03*
X208280000Y-156210000D03*
X210820000Y-156210000D03*
X213360000Y-156210000D03*
X215900000Y-156210000D03*
X218440000Y-156210000D03*
X220980000Y-156210000D03*
X223520000Y-156210000D03*
X226060000Y-156210000D03*
X226060000Y-148590000D03*
X223520000Y-148590000D03*
X220980000Y-148590000D03*
X218440000Y-148590000D03*
X215900000Y-148590000D03*
X213360000Y-148590000D03*
X210820000Y-148590000D03*
X208280000Y-148590000D03*
X205740000Y-148590000D03*
X203200000Y-148590000D03*
X205820000Y-171450000D03*
X210820000Y-171450000D03*
X137160000Y-76240000D03*
X137160000Y-81240000D03*
X189230000Y-63540000D03*
X189230000Y-68540000D03*
X232410000Y-185460000D03*
X232410000Y-190460000D03*
X129540000Y-208510000D03*
X129540000Y-195510000D03*
D11*
X289560000Y-134620000D03*
D10*
X292100000Y-134620000D03*
X294640000Y-134620000D03*
X297180000Y-134620000D03*
X299720000Y-134620000D03*
X302260000Y-134620000D03*
X304800000Y-134620000D03*
X307340000Y-134620000D03*
X309880000Y-134620000D03*
X312420000Y-134620000D03*
X312420000Y-127000000D03*
X309880000Y-127000000D03*
X307340000Y-127000000D03*
X304800000Y-127000000D03*
X302260000Y-127000000D03*
X299720000Y-127000000D03*
X297180000Y-127000000D03*
X294640000Y-127000000D03*
X292100000Y-127000000D03*
X289560000Y-127000000D03*
X331470000Y-64770000D03*
X334010000Y-64770000D03*
X107950000Y-193595000D03*
X107950000Y-188595000D03*
X325120000Y-190200000D03*
X325120000Y-203200000D03*
X83820000Y-162560000D03*
X83820000Y-165100000D03*
X83820000Y-167640000D03*
X83820000Y-170180000D03*
X83820000Y-172720000D03*
X83820000Y-175260000D03*
X83820000Y-177800000D03*
X83820000Y-180340000D03*
X83820000Y-182880000D03*
X83820000Y-185420000D03*
X226060000Y-165100000D03*
X228600000Y-165100000D03*
D11*
X236220000Y-208280000D03*
D10*
X238760000Y-208280000D03*
X241300000Y-208280000D03*
X243840000Y-208280000D03*
X246380000Y-208280000D03*
X248920000Y-208280000D03*
X251460000Y-208280000D03*
X251460000Y-200660000D03*
X248920000Y-200660000D03*
X246380000Y-200660000D03*
X243840000Y-200660000D03*
X241300000Y-200660000D03*
X238760000Y-200660000D03*
X236220000Y-200660000D03*
X200660000Y-165100000D03*
X200660000Y-160100000D03*
D11*
X205740000Y-193040000D03*
D10*
X208280000Y-193040000D03*
X210820000Y-193040000D03*
X213360000Y-193040000D03*
X215900000Y-193040000D03*
X218440000Y-193040000D03*
X220980000Y-193040000D03*
X223520000Y-193040000D03*
X223520000Y-185420000D03*
X220980000Y-185420000D03*
X218440000Y-185420000D03*
X215900000Y-185420000D03*
X213360000Y-185420000D03*
X210820000Y-185420000D03*
X208280000Y-185420000D03*
X205740000Y-185420000D03*
D11*
X289560000Y-69850000D03*
D10*
X292100000Y-69850000D03*
X294640000Y-69850000D03*
X297180000Y-69850000D03*
X299720000Y-69850000D03*
X302260000Y-69850000D03*
X304800000Y-69850000D03*
X307340000Y-69850000D03*
X307340000Y-62230000D03*
X304800000Y-62230000D03*
X302260000Y-62230000D03*
X299720000Y-62230000D03*
X297180000Y-62230000D03*
X294640000Y-62230000D03*
X292100000Y-62230000D03*
X289560000Y-62230000D03*
X274320000Y-138430000D03*
X279320000Y-138430000D03*
X100330000Y-81280000D03*
X100330000Y-83820000D03*
X318770000Y-76240000D03*
X318770000Y-81240000D03*
X137160000Y-88940000D03*
X137160000Y-93940000D03*
D11*
X302260000Y-193040000D03*
D10*
X302260000Y-195580000D03*
X302260000Y-198120000D03*
X302260000Y-200660000D03*
X302260000Y-203200000D03*
X302260000Y-205740000D03*
X302260000Y-208280000D03*
X302260000Y-210820000D03*
X309880000Y-210820000D03*
X309880000Y-208280000D03*
X309880000Y-205740000D03*
X309880000Y-203200000D03*
X309880000Y-200660000D03*
X309880000Y-198120000D03*
X309880000Y-195580000D03*
X309880000Y-193040000D03*
X335320000Y-189230000D03*
X340320000Y-189230000D03*
D11*
X116840000Y-96520000D03*
D10*
X119380000Y-96520000D03*
X121920000Y-96520000D03*
X124460000Y-96520000D03*
X127000000Y-96520000D03*
X129540000Y-96520000D03*
X132080000Y-96520000D03*
X132080000Y-88900000D03*
X129540000Y-88900000D03*
X127000000Y-88900000D03*
X124460000Y-88900000D03*
X121920000Y-88900000D03*
X119380000Y-88900000D03*
X116840000Y-88900000D03*
X148590000Y-185460000D03*
X148590000Y-190460000D03*
X195580000Y-146050000D03*
X190580000Y-146050000D03*
D11*
X236220000Y-167640000D03*
D10*
X238760000Y-167640000D03*
X241300000Y-167640000D03*
X243840000Y-167640000D03*
X246380000Y-167640000D03*
X248920000Y-167640000D03*
X251460000Y-167640000D03*
X251460000Y-160020000D03*
X248920000Y-160020000D03*
X246380000Y-160020000D03*
X243840000Y-160020000D03*
X241300000Y-160020000D03*
X238760000Y-160020000D03*
X236220000Y-160020000D03*
X199390000Y-148630000D03*
X199390000Y-153630000D03*
D11*
X170180000Y-142240000D03*
D10*
X172720000Y-142240000D03*
X175260000Y-142240000D03*
X177800000Y-142240000D03*
X180340000Y-142240000D03*
X182880000Y-142240000D03*
X185420000Y-142240000D03*
X187960000Y-142240000D03*
X190500000Y-142240000D03*
X193040000Y-142240000D03*
X193040000Y-134620000D03*
X190500000Y-134620000D03*
X187960000Y-134620000D03*
X185420000Y-134620000D03*
X182880000Y-134620000D03*
X180340000Y-134620000D03*
X177800000Y-134620000D03*
X175260000Y-134620000D03*
X172720000Y-134620000D03*
X170180000Y-134620000D03*
X220980000Y-214630000D03*
X215980000Y-214630000D03*
X137160000Y-63500000D03*
X137160000Y-68500000D03*
X137160000Y-101640000D03*
X137160000Y-106640000D03*
X137160000Y-119460000D03*
X137160000Y-124460000D03*
X257810000Y-195380000D03*
X257810000Y-182880000D03*
D11*
X332740000Y-142240000D03*
D10*
X332740000Y-144780000D03*
X332740000Y-147320000D03*
X332740000Y-149860000D03*
X332740000Y-152400000D03*
X332740000Y-154940000D03*
X332740000Y-157480000D03*
X332740000Y-160020000D03*
X340360000Y-160020000D03*
X340360000Y-157480000D03*
X340360000Y-154940000D03*
X340360000Y-152400000D03*
X340360000Y-149860000D03*
X340360000Y-147320000D03*
X340360000Y-144780000D03*
X340360000Y-142240000D03*
X163830000Y-112060000D03*
X163830000Y-99060000D03*
X195580000Y-83815000D03*
X195580000Y-86355000D03*
X175260000Y-146050000D03*
X170260000Y-146050000D03*
X318770000Y-88940000D03*
X318770000Y-93940000D03*
D11*
X205740000Y-167640000D03*
D10*
X208280000Y-167640000D03*
X210820000Y-167640000D03*
X213360000Y-167640000D03*
X215900000Y-167640000D03*
X218440000Y-167640000D03*
X220980000Y-167640000D03*
X220980000Y-160020000D03*
X218440000Y-160020000D03*
X215900000Y-160020000D03*
X213360000Y-160020000D03*
X210820000Y-160020000D03*
X208280000Y-160020000D03*
X205740000Y-160020000D03*
X193040000Y-112060000D03*
X193040000Y-99060000D03*
X134620000Y-208510000D03*
X134620000Y-195510000D03*
X96520000Y-101900000D03*
X96520000Y-88900000D03*
X104140000Y-101900000D03*
X104140000Y-88900000D03*
X83820000Y-144780000D03*
X83820000Y-147320000D03*
X83820000Y-149860000D03*
X134620000Y-107950000D03*
X129620000Y-107950000D03*
D11*
X322580000Y-142240000D03*
D10*
X322580000Y-144780000D03*
X322580000Y-147320000D03*
X322580000Y-149860000D03*
X322580000Y-152400000D03*
X322580000Y-154940000D03*
X322580000Y-157480000D03*
X322580000Y-160020000D03*
X330200000Y-160020000D03*
X330200000Y-157480000D03*
X330200000Y-154940000D03*
X330200000Y-152400000D03*
X330200000Y-149860000D03*
X330200000Y-147320000D03*
X330200000Y-144780000D03*
X330200000Y-142240000D03*
D12*
X82550000Y-66675000D03*
X82550000Y-75565000D03*
X87630000Y-66675000D03*
X87630000Y-75565000D03*
X92710000Y-66675000D03*
X92710000Y-75565000D03*
D10*
X274320000Y-163830000D03*
X279320000Y-163830000D03*
X227330000Y-76240000D03*
X227330000Y-81240000D03*
X203200000Y-99060000D03*
X205740000Y-99060000D03*
X208280000Y-99060000D03*
X210820000Y-99060000D03*
X213360000Y-99060000D03*
X215900000Y-99060000D03*
X218440000Y-99060000D03*
X220980000Y-99060000D03*
X223520000Y-99060000D03*
X83820000Y-193675000D03*
X86360000Y-193675000D03*
X294680000Y-163830000D03*
X299680000Y-163830000D03*
X127000000Y-208510000D03*
X127000000Y-195510000D03*
D11*
X302260000Y-142240000D03*
D10*
X302260000Y-144780000D03*
X302260000Y-147320000D03*
X302260000Y-149860000D03*
X302260000Y-152400000D03*
X302260000Y-154940000D03*
X302260000Y-157480000D03*
X302260000Y-160020000D03*
X309880000Y-160020000D03*
X309880000Y-157480000D03*
X309880000Y-154940000D03*
X309880000Y-152400000D03*
X309880000Y-149860000D03*
X309880000Y-147320000D03*
X309880000Y-144780000D03*
X309880000Y-142240000D03*
X205940000Y-179070000D03*
X218440000Y-179070000D03*
X229870000Y-148630000D03*
X229870000Y-153630000D03*
X251714000Y-210820000D03*
X238714000Y-210820000D03*
X340660000Y-69850000D03*
X327660000Y-69850000D03*
D11*
X99060000Y-149860000D03*
D10*
X99060000Y-152400000D03*
X99060000Y-154940000D03*
X99060000Y-157480000D03*
X99060000Y-160020000D03*
X99060000Y-162560000D03*
X99060000Y-165100000D03*
X99060000Y-167640000D03*
X99060000Y-170180000D03*
X99060000Y-172720000D03*
X99060000Y-175260000D03*
X99060000Y-177800000D03*
X114300000Y-177800000D03*
X114300000Y-175260000D03*
X114300000Y-172720000D03*
X114300000Y-170180000D03*
X114300000Y-167640000D03*
X114300000Y-165100000D03*
X114300000Y-162560000D03*
X114300000Y-160020000D03*
X114300000Y-157480000D03*
X114300000Y-154940000D03*
X114300000Y-152400000D03*
X114300000Y-149860000D03*
X294640000Y-138430000D03*
X299640000Y-138430000D03*
D11*
X140970000Y-96520000D03*
D10*
X143510000Y-96520000D03*
X146050000Y-96520000D03*
X148590000Y-96520000D03*
X151130000Y-96520000D03*
X153670000Y-96520000D03*
X156210000Y-96520000D03*
X158750000Y-96520000D03*
X161290000Y-96520000D03*
X163830000Y-96520000D03*
X163830000Y-88900000D03*
X161290000Y-88900000D03*
X158750000Y-88900000D03*
X156210000Y-88900000D03*
X153670000Y-88900000D03*
X151130000Y-88900000D03*
X148590000Y-88900000D03*
X146050000Y-88900000D03*
X143510000Y-88900000D03*
X140970000Y-88900000D03*
D11*
X140970000Y-71120000D03*
D10*
X143510000Y-71120000D03*
X146050000Y-71120000D03*
X148590000Y-71120000D03*
X151130000Y-71120000D03*
X153670000Y-71120000D03*
X156210000Y-71120000D03*
X156210000Y-63500000D03*
X153670000Y-63500000D03*
X151130000Y-63500000D03*
X148590000Y-63500000D03*
X146050000Y-63500000D03*
X143510000Y-63500000D03*
X140970000Y-63500000D03*
X194310000Y-63500000D03*
X196850000Y-63500000D03*
X199390000Y-63500000D03*
X201930000Y-63500000D03*
X204470000Y-63500000D03*
X207010000Y-63500000D03*
X209550000Y-63500000D03*
X212090000Y-63500000D03*
X214630000Y-63500000D03*
X217170000Y-63500000D03*
X219710000Y-63500000D03*
X222250000Y-63500000D03*
X224790000Y-63500000D03*
X227330000Y-63500000D03*
X229870000Y-63500000D03*
X232410000Y-63500000D03*
X234950000Y-63500000D03*
X237490000Y-63500000D03*
X240030000Y-63500000D03*
X242570000Y-63500000D03*
X245110000Y-63500000D03*
X247650000Y-63500000D03*
X250190000Y-63500000D03*
X252730000Y-63500000D03*
X255270000Y-63500000D03*
X257810000Y-63500000D03*
X260350000Y-63500000D03*
X262890000Y-63500000D03*
X265430000Y-63500000D03*
X267970000Y-63500000D03*
X270510000Y-63500000D03*
X273050000Y-63500000D03*
X199390000Y-114340000D03*
X199390000Y-119340000D03*
X195580000Y-112060000D03*
X195580000Y-99060000D03*
D11*
X312420000Y-167640000D03*
D10*
X312420000Y-170180000D03*
X312420000Y-172720000D03*
X312420000Y-175260000D03*
X312420000Y-177800000D03*
X312420000Y-180340000D03*
X312420000Y-182880000D03*
X312420000Y-185420000D03*
X320040000Y-185420000D03*
X320040000Y-182880000D03*
X320040000Y-180340000D03*
X320040000Y-177800000D03*
X320040000Y-175260000D03*
X320040000Y-172720000D03*
X320040000Y-170180000D03*
X320040000Y-167640000D03*
D11*
X281940000Y-142240000D03*
D10*
X281940000Y-144780000D03*
X281940000Y-147320000D03*
X281940000Y-149860000D03*
X281940000Y-152400000D03*
X281940000Y-154940000D03*
X281940000Y-157480000D03*
X281940000Y-160020000D03*
X289560000Y-160020000D03*
X289560000Y-157480000D03*
X289560000Y-154940000D03*
X289560000Y-152400000D03*
X289560000Y-149860000D03*
X289560000Y-147320000D03*
X289560000Y-144780000D03*
X289560000Y-142240000D03*
D11*
X203200000Y-133350000D03*
D10*
X205740000Y-133350000D03*
X208280000Y-133350000D03*
X210820000Y-133350000D03*
X213360000Y-133350000D03*
X215900000Y-133350000D03*
X218440000Y-133350000D03*
X220980000Y-133350000D03*
X223520000Y-133350000D03*
X226060000Y-133350000D03*
X226060000Y-125730000D03*
X223520000Y-125730000D03*
X220980000Y-125730000D03*
X218440000Y-125730000D03*
X215900000Y-125730000D03*
X213360000Y-125730000D03*
X210820000Y-125730000D03*
X208280000Y-125730000D03*
X205740000Y-125730000D03*
X203200000Y-125730000D03*
D11*
X261620000Y-193040000D03*
D10*
X261620000Y-195580000D03*
X261620000Y-198120000D03*
X261620000Y-200660000D03*
X261620000Y-203200000D03*
X261620000Y-205740000D03*
X261620000Y-208280000D03*
X269240000Y-208280000D03*
X269240000Y-205740000D03*
X269240000Y-203200000D03*
X269240000Y-200660000D03*
X269240000Y-198120000D03*
X269240000Y-195580000D03*
X269240000Y-193040000D03*
D11*
X261620000Y-167640000D03*
D10*
X261620000Y-170180000D03*
X261620000Y-172720000D03*
X261620000Y-175260000D03*
X261620000Y-177800000D03*
X261620000Y-180340000D03*
X261620000Y-182880000D03*
X261620000Y-185420000D03*
X269240000Y-185420000D03*
X269240000Y-182880000D03*
X269240000Y-180340000D03*
X269240000Y-177800000D03*
X269240000Y-175260000D03*
X269240000Y-172720000D03*
X269240000Y-170180000D03*
X269240000Y-167640000D03*
X190500000Y-112060000D03*
X190500000Y-99060000D03*
X166370000Y-76200000D03*
X166370000Y-86360000D03*
X119126000Y-196850000D03*
X119126000Y-201850000D03*
D11*
X317500000Y-121920000D03*
D10*
X320040000Y-121920000D03*
X322580000Y-121920000D03*
X325120000Y-121920000D03*
X327660000Y-121920000D03*
X330200000Y-121920000D03*
X332740000Y-121920000D03*
X335280000Y-121920000D03*
X337820000Y-121920000D03*
X340360000Y-121920000D03*
X340360000Y-114300000D03*
X337820000Y-114300000D03*
X335280000Y-114300000D03*
X332740000Y-114300000D03*
X330200000Y-114300000D03*
X327660000Y-114300000D03*
X325120000Y-114300000D03*
X322580000Y-114300000D03*
X320040000Y-114300000D03*
X317500000Y-114300000D03*
X201930000Y-69850000D03*
X201930000Y-72390000D03*
D11*
X317500000Y-134620000D03*
D10*
X320040000Y-134620000D03*
X322580000Y-134620000D03*
X325120000Y-134620000D03*
X327660000Y-134620000D03*
X330200000Y-134620000D03*
X332740000Y-134620000D03*
X335280000Y-134620000D03*
X337820000Y-134620000D03*
X340360000Y-134620000D03*
X340360000Y-127000000D03*
X337820000Y-127000000D03*
X335280000Y-127000000D03*
X332740000Y-127000000D03*
X330200000Y-127000000D03*
X327660000Y-127000000D03*
X325120000Y-127000000D03*
X322580000Y-127000000D03*
X320040000Y-127000000D03*
X317500000Y-127000000D03*
X294640000Y-189230000D03*
X299640000Y-189230000D03*
X223774000Y-196850000D03*
X218774000Y-196850000D03*
X102870000Y-81280000D03*
X102870000Y-83820000D03*
X128487898Y-188177898D03*
X132080000Y-188177898D03*
X132080000Y-191770000D03*
X257175000Y-91480000D03*
X257175000Y-96480000D03*
X175260000Y-197850000D03*
X175260000Y-185850000D03*
D11*
X236220000Y-180340000D03*
D10*
X238760000Y-180340000D03*
X241300000Y-180340000D03*
X243840000Y-180340000D03*
X246380000Y-180340000D03*
X248920000Y-180340000D03*
X251460000Y-180340000D03*
X254000000Y-180340000D03*
X254000000Y-172720000D03*
X251460000Y-172720000D03*
X248920000Y-172720000D03*
X246380000Y-172720000D03*
X243840000Y-172720000D03*
X241300000Y-172720000D03*
X238760000Y-172720000D03*
X236220000Y-172720000D03*
X227330000Y-193340000D03*
X227330000Y-180340000D03*
X313690000Y-203200000D03*
X313690000Y-190200000D03*
X304800000Y-189230000D03*
X309800000Y-189230000D03*
X304800000Y-138430000D03*
X309800000Y-138430000D03*
X284480000Y-138430000D03*
X289480000Y-138430000D03*
D11*
X322580000Y-83820000D03*
D10*
X325120000Y-83820000D03*
X327660000Y-83820000D03*
X330200000Y-83820000D03*
X332740000Y-83820000D03*
X335280000Y-83820000D03*
X337820000Y-83820000D03*
X340360000Y-83820000D03*
X340360000Y-76200000D03*
X337820000Y-76200000D03*
X335280000Y-76200000D03*
X332740000Y-76200000D03*
X330200000Y-76200000D03*
X327660000Y-76200000D03*
X325120000Y-76200000D03*
X322580000Y-76200000D03*
D11*
X332740000Y-167640000D03*
D10*
X332740000Y-170180000D03*
X332740000Y-172720000D03*
X332740000Y-175260000D03*
X332740000Y-177800000D03*
X332740000Y-180340000D03*
X332740000Y-182880000D03*
X332740000Y-185420000D03*
X340360000Y-185420000D03*
X340360000Y-182880000D03*
X340360000Y-180340000D03*
X340360000Y-177800000D03*
X340360000Y-175260000D03*
X340360000Y-172720000D03*
X340360000Y-170180000D03*
X340360000Y-167640000D03*
X93980000Y-101900000D03*
X93980000Y-88900000D03*
D11*
X180340000Y-149860000D03*
D10*
X180340000Y-152400000D03*
X180340000Y-154940000D03*
X180340000Y-157480000D03*
X180340000Y-160020000D03*
X180340000Y-162560000D03*
X180340000Y-165100000D03*
X180340000Y-167640000D03*
X180340000Y-170180000D03*
X180340000Y-172720000D03*
X180340000Y-175260000D03*
X180340000Y-177800000D03*
X180340000Y-180340000D03*
X180340000Y-182880000D03*
X180340000Y-185420000D03*
X180340000Y-187960000D03*
X180340000Y-190500000D03*
X180340000Y-193040000D03*
X180340000Y-195580000D03*
X180340000Y-198120000D03*
X195580000Y-198120000D03*
X195580000Y-195580000D03*
X195580000Y-193040000D03*
X195580000Y-190500000D03*
X195580000Y-187960000D03*
X195580000Y-185420000D03*
X195580000Y-182880000D03*
X195580000Y-180340000D03*
X195580000Y-177800000D03*
X195580000Y-175260000D03*
X195580000Y-172720000D03*
X195580000Y-170180000D03*
X195580000Y-167640000D03*
X195580000Y-165100000D03*
X195580000Y-162560000D03*
X195580000Y-160020000D03*
X195580000Y-157480000D03*
X195580000Y-154940000D03*
X195580000Y-152400000D03*
X195580000Y-149860000D03*
X93980000Y-175260000D03*
X93980000Y-185420000D03*
X134620000Y-146050000D03*
X129620000Y-146050000D03*
X163830000Y-63500000D03*
X163830000Y-73660000D03*
X198125000Y-203200000D03*
X195585000Y-203200000D03*
X190500000Y-83820000D03*
X190500000Y-86360000D03*
D11*
X231140000Y-83820000D03*
D10*
X233680000Y-83820000D03*
X236220000Y-83820000D03*
X238760000Y-83820000D03*
X241300000Y-83820000D03*
X243840000Y-83820000D03*
X246380000Y-83820000D03*
X248920000Y-83820000D03*
X251460000Y-83820000D03*
X254000000Y-83820000D03*
X254000000Y-76200000D03*
X251460000Y-76200000D03*
X248920000Y-76200000D03*
X246380000Y-76200000D03*
X243840000Y-76200000D03*
X241300000Y-76200000D03*
X238760000Y-76200000D03*
X236220000Y-76200000D03*
X233680000Y-76200000D03*
X231140000Y-76200000D03*
D11*
X261620000Y-83820000D03*
D10*
X264160000Y-83820000D03*
X266700000Y-83820000D03*
X269240000Y-83820000D03*
X271780000Y-83820000D03*
X274320000Y-83820000D03*
X276860000Y-83820000D03*
X279400000Y-83820000D03*
X281940000Y-83820000D03*
X284480000Y-83820000D03*
X284480000Y-76200000D03*
X281940000Y-76200000D03*
X279400000Y-76200000D03*
X276860000Y-76200000D03*
X274320000Y-76200000D03*
X271780000Y-76200000D03*
X269240000Y-76200000D03*
X266700000Y-76200000D03*
X264160000Y-76200000D03*
X261620000Y-76200000D03*
D11*
X140970000Y-142240000D03*
D10*
X143510000Y-142240000D03*
X146050000Y-142240000D03*
X148590000Y-142240000D03*
X151130000Y-142240000D03*
X153670000Y-142240000D03*
X156210000Y-142240000D03*
X158750000Y-142240000D03*
X161290000Y-142240000D03*
X163830000Y-142240000D03*
X163830000Y-134620000D03*
X161290000Y-134620000D03*
X158750000Y-134620000D03*
X156210000Y-134620000D03*
X153670000Y-134620000D03*
X151130000Y-134620000D03*
X148590000Y-134620000D03*
X146050000Y-134620000D03*
X143510000Y-134620000D03*
X140970000Y-134620000D03*
X256540000Y-127000000D03*
X256540000Y-114500000D03*
X137160000Y-182880000D03*
X124160000Y-182880000D03*
D11*
X261620000Y-142240000D03*
D10*
X261620000Y-144780000D03*
X261620000Y-147320000D03*
X261620000Y-149860000D03*
X261620000Y-152400000D03*
X261620000Y-154940000D03*
X261620000Y-157480000D03*
X261620000Y-160020000D03*
X269240000Y-160020000D03*
X269240000Y-157480000D03*
X269240000Y-154940000D03*
X269240000Y-152400000D03*
X269240000Y-149860000D03*
X269240000Y-147320000D03*
X269240000Y-144780000D03*
X269240000Y-142240000D03*
X199390000Y-137160000D03*
X199390000Y-142160000D03*
X256540000Y-142240000D03*
X256540000Y-129740000D03*
X238460000Y-198120000D03*
X251460000Y-198120000D03*
X223520000Y-203200000D03*
X223520000Y-208100000D03*
X257810000Y-198120000D03*
X257810000Y-208280000D03*
D11*
X261620000Y-106680000D03*
D10*
X264160000Y-106680000D03*
X266700000Y-106680000D03*
X269240000Y-106680000D03*
X271780000Y-106680000D03*
X274320000Y-106680000D03*
X276860000Y-106680000D03*
X279400000Y-106680000D03*
X281940000Y-106680000D03*
X284480000Y-106680000D03*
X287020000Y-106680000D03*
X289560000Y-106680000D03*
X292100000Y-106680000D03*
X294640000Y-106680000D03*
X297180000Y-106680000D03*
X299720000Y-106680000D03*
X302260000Y-106680000D03*
X304800000Y-106680000D03*
X307340000Y-106680000D03*
X309880000Y-106680000D03*
X309880000Y-91440000D03*
X307340000Y-91440000D03*
X304800000Y-91440000D03*
X302260000Y-91440000D03*
X299720000Y-91440000D03*
X297180000Y-91440000D03*
X294640000Y-91440000D03*
X292100000Y-91440000D03*
X289560000Y-91440000D03*
X287020000Y-91440000D03*
X284480000Y-91440000D03*
X281940000Y-91440000D03*
X279400000Y-91440000D03*
X276860000Y-91440000D03*
X274320000Y-91440000D03*
X271780000Y-91440000D03*
X269240000Y-91440000D03*
X266700000Y-91440000D03*
X264160000Y-91440000D03*
X261620000Y-91440000D03*
X114300000Y-146050000D03*
X109300000Y-146050000D03*
X92710000Y-129540000D03*
X92710000Y-116540000D03*
X264160000Y-138430000D03*
X269160000Y-138430000D03*
X91440000Y-101900000D03*
X91440000Y-88900000D03*
D11*
X236220000Y-193040000D03*
D10*
X238760000Y-193040000D03*
X241300000Y-193040000D03*
X243840000Y-193040000D03*
X246380000Y-193040000D03*
X248920000Y-193040000D03*
X251460000Y-193040000D03*
X251460000Y-185420000D03*
X248920000Y-185420000D03*
X246380000Y-185420000D03*
X243840000Y-185420000D03*
X241300000Y-185420000D03*
X238760000Y-185420000D03*
X236220000Y-185420000D03*
D11*
X152400000Y-208280000D03*
D10*
X154940000Y-208280000D03*
X157480000Y-208280000D03*
X160020000Y-208280000D03*
X162560000Y-208280000D03*
X165100000Y-208280000D03*
X167640000Y-208280000D03*
X167640000Y-200660000D03*
X165100000Y-200660000D03*
X162560000Y-200660000D03*
X160020000Y-200660000D03*
X157480000Y-200660000D03*
X154940000Y-200660000D03*
X152400000Y-200660000D03*
X233680000Y-132080000D03*
X335280000Y-163830000D03*
X340280000Y-163830000D03*
X330200000Y-190500000D03*
X330200000Y-193040000D03*
X330200000Y-195580000D03*
X330200000Y-198120000D03*
X330200000Y-200660000D03*
X330200000Y-203200000D03*
X330200000Y-205740000D03*
X330200000Y-208280000D03*
X330200000Y-210820000D03*
D11*
X236220000Y-91440000D03*
D10*
X236220000Y-93980000D03*
X236220000Y-96520000D03*
X236220000Y-99060000D03*
X236220000Y-101600000D03*
X236220000Y-104140000D03*
X236220000Y-106680000D03*
X236220000Y-109220000D03*
X236220000Y-111760000D03*
X236220000Y-114300000D03*
X236220000Y-116840000D03*
X236220000Y-119380000D03*
X236220000Y-121920000D03*
X236220000Y-124460000D03*
X236220000Y-127000000D03*
X236220000Y-129540000D03*
X236220000Y-132080000D03*
X236220000Y-134620000D03*
X236220000Y-137160000D03*
X236220000Y-139700000D03*
X251460000Y-139700000D03*
X251460000Y-137160000D03*
X251460000Y-134620000D03*
X251460000Y-132080000D03*
X251460000Y-129540000D03*
X251460000Y-127000000D03*
X251460000Y-124460000D03*
X251460000Y-121920000D03*
X251460000Y-119380000D03*
X251460000Y-116840000D03*
X251460000Y-114300000D03*
X251460000Y-111760000D03*
X251460000Y-109220000D03*
X251460000Y-106680000D03*
X251460000Y-104140000D03*
X251460000Y-101600000D03*
X251460000Y-99060000D03*
X251460000Y-96520000D03*
X251460000Y-93980000D03*
X251460000Y-91440000D03*
X251460000Y-87630000D03*
X246460000Y-87630000D03*
D11*
X203200000Y-144780000D03*
D10*
X205740000Y-144780000D03*
X208280000Y-144780000D03*
X210820000Y-144780000D03*
X213360000Y-144780000D03*
X215900000Y-144780000D03*
X218440000Y-144780000D03*
X220980000Y-144780000D03*
X223520000Y-144780000D03*
X226060000Y-144780000D03*
X226060000Y-137160000D03*
X223520000Y-137160000D03*
X220980000Y-137160000D03*
X218440000Y-137160000D03*
X215900000Y-137160000D03*
X213360000Y-137160000D03*
X210820000Y-137160000D03*
X208280000Y-137160000D03*
X205740000Y-137160000D03*
X203200000Y-137160000D03*
X285750000Y-62270000D03*
X285750000Y-67270000D03*
X229641505Y-176539819D03*
X221141505Y-176539819D03*
X193040000Y-83820000D03*
X193040000Y-86360000D03*
D11*
X317500000Y-109220000D03*
D10*
X320040000Y-109220000D03*
X322580000Y-109220000D03*
X325120000Y-109220000D03*
X327660000Y-109220000D03*
X330200000Y-109220000D03*
X332740000Y-109220000D03*
X335280000Y-109220000D03*
X337820000Y-109220000D03*
X340360000Y-109220000D03*
X340360000Y-101600000D03*
X337820000Y-101600000D03*
X335280000Y-101600000D03*
X332740000Y-101600000D03*
X330200000Y-101600000D03*
X327660000Y-101600000D03*
X325120000Y-101600000D03*
X322580000Y-101600000D03*
X320040000Y-101600000D03*
X317500000Y-101600000D03*
D11*
X322580000Y-96520000D03*
D10*
X325120000Y-96520000D03*
X327660000Y-96520000D03*
X330200000Y-96520000D03*
X332740000Y-96520000D03*
X335280000Y-96520000D03*
X337820000Y-96520000D03*
X340360000Y-96520000D03*
X340360000Y-88900000D03*
X337820000Y-88900000D03*
X335280000Y-88900000D03*
X332740000Y-88900000D03*
X330200000Y-88900000D03*
X327660000Y-88900000D03*
X325120000Y-88900000D03*
X322580000Y-88900000D03*
X257810000Y-76240000D03*
X257810000Y-81240000D03*
D11*
X261620000Y-134620000D03*
D10*
X264160000Y-134620000D03*
X266700000Y-134620000D03*
X269240000Y-134620000D03*
X271780000Y-134620000D03*
X274320000Y-134620000D03*
X276860000Y-134620000D03*
X279400000Y-134620000D03*
X281940000Y-134620000D03*
X284480000Y-134620000D03*
X284480000Y-127000000D03*
X281940000Y-127000000D03*
X279400000Y-127000000D03*
X276860000Y-127000000D03*
X274320000Y-127000000D03*
X271780000Y-127000000D03*
X269240000Y-127000000D03*
X266700000Y-127000000D03*
X264160000Y-127000000D03*
X261620000Y-127000000D03*
X215900000Y-196850000D03*
X205740000Y-196850000D03*
D11*
X116850000Y-83810000D03*
D10*
X119390000Y-83810000D03*
X121930000Y-83810000D03*
X124470000Y-83810000D03*
X124470000Y-76190000D03*
X121930000Y-76190000D03*
X119390000Y-76190000D03*
X116850000Y-76190000D03*
X132080000Y-208510000D03*
X132080000Y-195510000D03*
D11*
X139700000Y-149860000D03*
D10*
X139700000Y-152400000D03*
X139700000Y-154940000D03*
X139700000Y-157480000D03*
X139700000Y-160020000D03*
X139700000Y-162560000D03*
X139700000Y-165100000D03*
X139700000Y-167640000D03*
X139700000Y-170180000D03*
X139700000Y-172720000D03*
X139700000Y-175260000D03*
X139700000Y-177800000D03*
X154940000Y-177800000D03*
X154940000Y-175260000D03*
X154940000Y-172720000D03*
X154940000Y-170180000D03*
X154940000Y-167640000D03*
X154940000Y-165100000D03*
X154940000Y-162560000D03*
X154940000Y-160020000D03*
X154940000Y-157480000D03*
X154940000Y-154940000D03*
X154940000Y-152400000D03*
X154940000Y-149860000D03*
X198120000Y-205740000D03*
X195580000Y-205740000D03*
D11*
X203200000Y-110490000D03*
D10*
X205740000Y-110490000D03*
X208280000Y-110490000D03*
X210820000Y-110490000D03*
X213360000Y-110490000D03*
X215900000Y-110490000D03*
X218440000Y-110490000D03*
X220980000Y-110490000D03*
X223520000Y-110490000D03*
X226060000Y-110490000D03*
X226060000Y-102870000D03*
X223520000Y-102870000D03*
X220980000Y-102870000D03*
X218440000Y-102870000D03*
X215900000Y-102870000D03*
X213360000Y-102870000D03*
X210820000Y-102870000D03*
X208280000Y-102870000D03*
X205740000Y-102870000D03*
X203200000Y-102870000D03*
D11*
X119380000Y-111760000D03*
D10*
X119380000Y-114300000D03*
X119380000Y-116840000D03*
X119380000Y-119380000D03*
X119380000Y-121920000D03*
X119380000Y-124460000D03*
X119380000Y-127000000D03*
X119380000Y-129540000D03*
X119380000Y-132080000D03*
X119380000Y-134620000D03*
X119380000Y-137160000D03*
X119380000Y-139700000D03*
X134620000Y-139700000D03*
X134620000Y-137160000D03*
X134620000Y-134620000D03*
X134620000Y-132080000D03*
X134620000Y-129540000D03*
X134620000Y-127000000D03*
X134620000Y-124460000D03*
X134620000Y-121920000D03*
X134620000Y-119380000D03*
X134620000Y-116840000D03*
X134620000Y-114300000D03*
X134620000Y-111760000D03*
X137160000Y-208510000D03*
X137160000Y-195510000D03*
D11*
X99060000Y-111760000D03*
D10*
X99060000Y-114300000D03*
X99060000Y-116840000D03*
X99060000Y-119380000D03*
X99060000Y-121920000D03*
X99060000Y-124460000D03*
X99060000Y-127000000D03*
X99060000Y-129540000D03*
X99060000Y-132080000D03*
X99060000Y-134620000D03*
X99060000Y-137160000D03*
X99060000Y-139700000D03*
X114300000Y-139700000D03*
X114300000Y-137160000D03*
X114300000Y-134620000D03*
X114300000Y-132080000D03*
X114300000Y-129540000D03*
X114300000Y-127000000D03*
X114300000Y-124460000D03*
X114300000Y-121920000D03*
X114300000Y-119380000D03*
X114300000Y-116840000D03*
X114300000Y-114300000D03*
X114300000Y-111760000D03*
D11*
X171450000Y-63500000D03*
D10*
X171450000Y-66040000D03*
X171450000Y-68580000D03*
X171450000Y-71120000D03*
X171450000Y-73660000D03*
X171450000Y-76200000D03*
X171450000Y-78740000D03*
X171450000Y-81280000D03*
X171450000Y-83820000D03*
X171450000Y-86360000D03*
X171450000Y-88900000D03*
X171450000Y-91440000D03*
X171450000Y-93980000D03*
X171450000Y-96520000D03*
X171450000Y-99060000D03*
X171450000Y-101600000D03*
X171450000Y-104140000D03*
X171450000Y-106680000D03*
X171450000Y-109220000D03*
X171450000Y-111760000D03*
X186690000Y-111760000D03*
X186690000Y-109220000D03*
X186690000Y-106680000D03*
X186690000Y-104140000D03*
X186690000Y-101600000D03*
X186690000Y-99060000D03*
X186690000Y-96520000D03*
X186690000Y-93980000D03*
X186690000Y-91440000D03*
X186690000Y-88900000D03*
X186690000Y-86360000D03*
X186690000Y-83820000D03*
X186690000Y-81280000D03*
X186690000Y-78740000D03*
X186690000Y-76200000D03*
X186690000Y-73660000D03*
X186690000Y-71120000D03*
X186690000Y-68580000D03*
X186690000Y-66040000D03*
X186690000Y-63500000D03*
X232410000Y-172760000D03*
X232410000Y-177760000D03*
X101600000Y-101900000D03*
X101600000Y-88900000D03*
X154940000Y-146050000D03*
X149940000Y-146050000D03*
X232410000Y-160100000D03*
X232410000Y-165100000D03*
X83820000Y-87630000D03*
X83820000Y-90170000D03*
X83820000Y-92710000D03*
X83820000Y-95250000D03*
X83820000Y-97790000D03*
X83820000Y-100330000D03*
X91440000Y-188260000D03*
X91440000Y-175260000D03*
X93980000Y-173020000D03*
X93980000Y-160020000D03*
X109220000Y-101900000D03*
X109220000Y-88900000D03*
D11*
X140970000Y-83820000D03*
D10*
X143510000Y-83820000D03*
X146050000Y-83820000D03*
X148590000Y-83820000D03*
X151130000Y-83820000D03*
X153670000Y-83820000D03*
X156210000Y-83820000D03*
X158750000Y-83820000D03*
X158750000Y-76200000D03*
X156210000Y-76200000D03*
X153670000Y-76200000D03*
X151130000Y-76200000D03*
X148590000Y-76200000D03*
X146050000Y-76200000D03*
X143510000Y-76200000D03*
X140970000Y-76200000D03*
X166370000Y-112060000D03*
X166370000Y-99060000D03*
X172720000Y-197850000D03*
X172720000Y-185850000D03*
D11*
X289560000Y-83820000D03*
D10*
X292100000Y-83820000D03*
X294640000Y-83820000D03*
X297180000Y-83820000D03*
X299720000Y-83820000D03*
X302260000Y-83820000D03*
X304800000Y-83820000D03*
X307340000Y-83820000D03*
X309880000Y-83820000D03*
X312420000Y-83820000D03*
X312420000Y-76200000D03*
X309880000Y-76200000D03*
X307340000Y-76200000D03*
X304800000Y-76200000D03*
X302260000Y-76200000D03*
X299720000Y-76200000D03*
X297180000Y-76200000D03*
X294640000Y-76200000D03*
X292100000Y-76200000D03*
X289560000Y-76200000D03*
X227330000Y-200914000D03*
X227330000Y-205914000D03*
D11*
X119380000Y-149860000D03*
D10*
X119380000Y-152400000D03*
X119380000Y-154940000D03*
X119380000Y-157480000D03*
X119380000Y-160020000D03*
X119380000Y-162560000D03*
X119380000Y-165100000D03*
X119380000Y-167640000D03*
X119380000Y-170180000D03*
X119380000Y-172720000D03*
X119380000Y-175260000D03*
X119380000Y-177800000D03*
X134620000Y-177800000D03*
X134620000Y-175260000D03*
X134620000Y-172720000D03*
X134620000Y-170180000D03*
X134620000Y-167640000D03*
X134620000Y-165100000D03*
X134620000Y-162560000D03*
X134620000Y-160020000D03*
X134620000Y-157480000D03*
X134620000Y-154940000D03*
X134620000Y-152400000D03*
X134620000Y-149860000D03*
X231140000Y-195580000D03*
X231140000Y-208580000D03*
X226060000Y-170180000D03*
X228600000Y-170180000D03*
X226060000Y-160020000D03*
X228600000Y-160020000D03*
X226060000Y-167640000D03*
X228600000Y-167640000D03*
X274360000Y-189230000D03*
X279360000Y-189230000D03*
X99060000Y-101900000D03*
X99060000Y-88900000D03*
X199390000Y-88940000D03*
X199390000Y-93940000D03*
X264200000Y-189230000D03*
X269200000Y-189230000D03*
X137160000Y-193040000D03*
X147320000Y-193040000D03*
D11*
X271780000Y-193040000D03*
D10*
X271780000Y-195580000D03*
X271780000Y-198120000D03*
X271780000Y-200660000D03*
X271780000Y-203200000D03*
X271780000Y-205740000D03*
X271780000Y-208280000D03*
X271780000Y-210820000D03*
X279400000Y-210820000D03*
X279400000Y-208280000D03*
X279400000Y-205740000D03*
X279400000Y-203200000D03*
X279400000Y-200660000D03*
X279400000Y-198120000D03*
X279400000Y-195580000D03*
X279400000Y-193040000D03*
X314960000Y-163830000D03*
X319960000Y-163830000D03*
X114300000Y-107950000D03*
X109300000Y-107950000D03*
D11*
X160020000Y-149860000D03*
D10*
X160020000Y-152400000D03*
X160020000Y-154940000D03*
X160020000Y-157480000D03*
X160020000Y-160020000D03*
X160020000Y-162560000D03*
X160020000Y-165100000D03*
X160020000Y-167640000D03*
X160020000Y-170180000D03*
X160020000Y-172720000D03*
X160020000Y-175260000D03*
X160020000Y-177800000D03*
X175260000Y-177800000D03*
X175260000Y-175260000D03*
X175260000Y-172720000D03*
X175260000Y-170180000D03*
X175260000Y-167640000D03*
X175260000Y-165100000D03*
X175260000Y-162560000D03*
X175260000Y-160020000D03*
X175260000Y-157480000D03*
X175260000Y-154940000D03*
X175260000Y-152400000D03*
X175260000Y-149860000D03*
X226060000Y-162560000D03*
X228600000Y-162560000D03*
D11*
X289560000Y-121920000D03*
D10*
X292100000Y-121920000D03*
X294640000Y-121920000D03*
X297180000Y-121920000D03*
X299720000Y-121920000D03*
X302260000Y-121920000D03*
X304800000Y-121920000D03*
X307340000Y-121920000D03*
X309880000Y-121920000D03*
X312420000Y-121920000D03*
X312420000Y-114300000D03*
X309880000Y-114300000D03*
X307340000Y-114300000D03*
X304800000Y-114300000D03*
X302260000Y-114300000D03*
X299720000Y-114300000D03*
X297180000Y-114300000D03*
X294640000Y-114300000D03*
X292100000Y-114300000D03*
X289560000Y-114300000D03*
D11*
X322580000Y-167640000D03*
D10*
X322580000Y-170180000D03*
X322580000Y-172720000D03*
X322580000Y-175260000D03*
X322580000Y-177800000D03*
X322580000Y-180340000D03*
X322580000Y-182880000D03*
X322580000Y-185420000D03*
X330200000Y-185420000D03*
X330200000Y-182880000D03*
X330200000Y-180340000D03*
X330200000Y-177800000D03*
X330200000Y-175260000D03*
X330200000Y-172720000D03*
X330200000Y-170180000D03*
X330200000Y-167640000D03*
D11*
X140970000Y-109220000D03*
D10*
X143510000Y-109220000D03*
X146050000Y-109220000D03*
X148590000Y-109220000D03*
X151130000Y-109220000D03*
X153670000Y-109220000D03*
X156210000Y-109220000D03*
X158750000Y-109220000D03*
X158750000Y-101600000D03*
X156210000Y-101600000D03*
X153670000Y-101600000D03*
X151130000Y-101600000D03*
X148590000Y-101600000D03*
X146050000Y-101600000D03*
X143510000Y-101600000D03*
X140970000Y-101600000D03*
D11*
X203200000Y-121920000D03*
D10*
X205740000Y-121920000D03*
X208280000Y-121920000D03*
X210820000Y-121920000D03*
X213360000Y-121920000D03*
X215900000Y-121920000D03*
X218440000Y-121920000D03*
X220980000Y-121920000D03*
X223520000Y-121920000D03*
X226060000Y-121920000D03*
X226060000Y-114300000D03*
X223520000Y-114300000D03*
X220980000Y-114300000D03*
X218440000Y-114300000D03*
X215900000Y-114300000D03*
X213360000Y-114300000D03*
X210820000Y-114300000D03*
X208280000Y-114300000D03*
X205740000Y-114300000D03*
X203200000Y-114300000D03*
M02*
