M48
; DRILL file {KiCad 9.0.0} date 2025-08-20T09:18:44+0200
; FORMAT={-:-/ absolute / metric / decimal}
; #@! TF.CreationDate,2025-08-20T09:18:44+02:00
; #@! TF.GenerationSoftware,Kicad,Pcbnew,9.0.0
; #@! TF.FileFunction,Plated,1,6,PTH
FMAT,2
METRIC
; #@! TA.AperFunction,Plated,PTH,ViaDrill
T1C0.600
; #@! TA.AperFunction,Plated,PTH,ComponentDrill
T2C0.800
; #@! TA.AperFunction,Plated,PTH,ComponentDrill
T3C2.000
%
G90
G05
T1
X91.44Y-185.42
X95.25Y-120.65
X95.25Y-123.19
X96.52Y-118.11
X96.52Y-161.29
X100.33Y-109.22
X101.6Y-114.3
X101.6Y-128.27
X102.87Y-106.68
X107.95Y-132.08
X111.76Y-127.0
X113.03Y-99.06
X113.03Y-187.96
X118.11Y-194.31
X120.65Y-100.33
X121.92Y-104.14
X121.92Y-111.76
X121.92Y-143.51
X121.92Y-149.86
X123.19Y-123.19
X123.19Y-127.0
X124.46Y-110.49
X124.46Y-130.81
X125.73Y-92.71
X127.0Y-105.41
X127.0Y-165.1
X128.27Y-67.31
X128.27Y-110.49
X128.27Y-182.88
X130.81Y-71.12
X132.08Y-119.38
X132.08Y-128.27
X132.08Y-146.05
X133.35Y-93.98
X133.35Y-181.61
X135.89Y-91.44
X137.16Y-115.57
X137.16Y-121.92
X137.16Y-132.08
X137.16Y-135.89
X137.16Y-162.56
X137.16Y-180.34
X138.43Y-190.5
X139.7Y-114.3
X140.97Y-92.71
X140.97Y-144.78
X142.24Y-184.15
X143.51Y-68.58
X143.51Y-99.06
X143.51Y-111.76
X143.51Y-144.78
X143.51Y-177.8
X143.51Y-205.74
X144.78Y-105.41
X144.78Y-115.57
X144.78Y-182.88
X144.78Y-189.23
X146.05Y-130.81
X147.32Y-167.64
X148.59Y-105.41
X148.59Y-116.84
X148.59Y-123.19
X148.59Y-129.54
X148.59Y-139.7
X148.59Y-160.02
X149.86Y-149.86
X149.86Y-170.18
X149.86Y-177.8
X151.13Y-121.92
X151.13Y-130.81
X151.13Y-172.72
X151.13Y-189.23
X152.4Y-68.58
X152.4Y-92.71
X152.4Y-156.21
X152.4Y-166.37
X152.4Y-175.26
X152.4Y-177.8
X153.67Y-129.54
X154.94Y-198.12
X154.94Y-203.2
X156.21Y-81.28
X156.21Y-93.98
X156.21Y-123.19
X157.48Y-139.7
X157.48Y-198.12
X158.75Y-64.77
X158.75Y-91.44
X158.75Y-111.76
X158.75Y-124.46
X160.02Y-190.5
X161.29Y-107.95
X161.29Y-121.92
X161.29Y-124.46
X162.56Y-78.74
X162.56Y-187.96
X163.83Y-68.58
X163.83Y-138.43
X163.83Y-161.29
X163.83Y-165.1
X163.83Y-212.09
X165.1Y-172.72
X166.37Y-67.31
X166.37Y-69.85
X166.37Y-114.3
X167.64Y-163.83
X168.91Y-81.28
X168.91Y-83.82
X168.91Y-86.36
X168.91Y-91.44
X168.91Y-101.6
X168.91Y-104.14
X168.91Y-116.84
X168.91Y-212.09
X170.18Y-129.54
X170.18Y-154.94
X170.18Y-176.53
X171.45Y-157.48
X171.45Y-160.02
X171.45Y-163.83
X172.72Y-121.92
X172.72Y-130.81
X172.72Y-138.43
X173.99Y-74.93
X173.99Y-93.98
X173.99Y-97.79
X175.26Y-72.39
X175.26Y-82.55
X175.26Y-88.9
X175.26Y-109.22
X175.26Y-111.76
X175.26Y-124.46
X176.53Y-77.47
X176.53Y-101.6
X176.53Y-104.14
X176.53Y-106.68
X177.8Y-90.17
X177.8Y-93.98
X177.8Y-115.57
X177.8Y-121.92
X177.8Y-132.08
X177.8Y-139.7
X177.8Y-149.86
X177.8Y-163.83
X177.8Y-166.37
X177.8Y-168.91
X177.8Y-179.07
X177.8Y-190.5
X179.07Y-78.74
X179.07Y-144.78
X180.34Y-73.66
X180.34Y-81.28
X180.34Y-88.9
X180.34Y-101.6
X180.34Y-105.41
X181.61Y-64.77
X181.61Y-78.74
X181.61Y-96.52
X181.61Y-107.95
X181.61Y-111.76
X181.61Y-146.05
X182.88Y-82.55
X182.88Y-92.71
X182.88Y-153.67
X182.88Y-161.29
X182.88Y-168.91
X182.88Y-179.07
X184.15Y-113.03
X184.15Y-138.43
X185.42Y-123.19
X185.42Y-146.05
X185.42Y-149.86
X185.42Y-157.48
X185.42Y-176.53
X185.42Y-179.07
X185.42Y-196.85
X186.69Y-160.02
X187.96Y-138.43
X187.96Y-167.64
X187.96Y-175.26
X187.96Y-179.07
X187.96Y-184.15
X189.23Y-71.12
X189.23Y-115.57
X189.23Y-130.81
X189.23Y-189.23
X189.23Y-195.58
X190.5Y-90.17
X190.5Y-139.7
X190.5Y-165.1
X190.5Y-168.91
X190.5Y-173.99
X191.77Y-124.46
X191.77Y-152.4
X191.77Y-171.45
X191.77Y-181.61
X191.77Y-187.96
X193.04Y-107.95
X193.04Y-114.3
X193.04Y-144.78
X193.04Y-154.94
X193.04Y-158.75
X193.04Y-194.31
X193.04Y-196.85
X195.58Y-80.01
X195.58Y-114.3
X196.85Y-68.58
X196.85Y-139.7
X196.85Y-143.51
X198.12Y-74.93
X198.12Y-151.13
X198.12Y-157.48
X198.12Y-186.69
X198.12Y-195.58
X198.12Y-198.12
X199.39Y-68.58
X199.39Y-71.12
X199.39Y-121.92
X199.39Y-146.05
X203.2Y-91.44
X203.2Y-105.41
X203.2Y-129.54
X204.47Y-116.84
X205.74Y-200.66
X207.01Y-71.12
X208.28Y-92.71
X209.55Y-73.66
X210.82Y-68.58
X210.82Y-71.12
X210.82Y-92.71
X212.09Y-80.01
X212.09Y-162.56
X213.36Y-73.66
X213.36Y-86.36
X213.36Y-129.54
X213.36Y-151.13
X214.63Y-81.28
X214.63Y-118.11
X215.9Y-86.36
X215.9Y-105.41
X215.9Y-182.88
X217.17Y-163.83
X217.17Y-171.45
X218.44Y-129.54
X218.44Y-187.96
X219.71Y-72.39
X220.98Y-93.98
X220.98Y-119.38
X220.98Y-129.54
X220.98Y-170.18
X222.25Y-69.85
X223.52Y-80.01
X223.52Y-105.41
X223.52Y-128.27
X223.52Y-187.96
X226.06Y-68.58
X226.06Y-99.06
X226.06Y-105.41
X226.06Y-116.84
X226.06Y-129.54
X226.06Y-139.7
X226.06Y-142.24
X226.06Y-153.67
X226.06Y-187.96
X228.6Y-114.3
X228.6Y-118.11
X229.87Y-68.58
X229.87Y-73.66
X229.87Y-130.81
X231.14Y-78.74
X231.14Y-93.98
X231.14Y-102.87
X231.14Y-111.76
X231.14Y-114.3
X231.14Y-118.11
X231.14Y-193.04
X232.41Y-99.06
X232.41Y-107.95
X233.68Y-73.66
X233.68Y-78.74
X233.68Y-88.9
X233.68Y-92.71
X233.68Y-101.6
X233.68Y-116.84
X233.68Y-124.46
X233.68Y-144.78
X236.22Y-87.63
X236.22Y-151.13
X236.22Y-153.67
X238.76Y-68.58
X238.76Y-73.66
X238.76Y-87.63
X238.76Y-101.6
X238.76Y-120.65
X238.76Y-152.4
X238.76Y-163.83
X240.03Y-111.76
X240.03Y-140.97
X240.03Y-146.05
X240.03Y-175.26
X240.03Y-187.96
X241.3Y-68.58
X241.3Y-100.33
X241.3Y-105.41
X241.3Y-109.22
X241.3Y-128.27
X242.57Y-87.63
X242.57Y-92.71
X242.57Y-97.79
X242.57Y-102.87
X242.57Y-121.92
X243.84Y-68.58
X243.84Y-80.01
X243.84Y-128.27
X243.84Y-133.35
X243.84Y-144.78
X245.11Y-102.87
X245.11Y-114.3
X245.11Y-153.67
X246.38Y-69.85
X246.38Y-72.39
X246.38Y-90.17
X246.38Y-105.41
X246.38Y-109.22
X246.38Y-133.35
X246.38Y-137.16
X247.65Y-92.71
X247.65Y-96.52
X247.65Y-116.84
X247.65Y-120.65
X247.65Y-163.83
X248.92Y-78.74
X250.19Y-71.12
X250.19Y-73.66
X250.19Y-163.83
X251.46Y-144.78
X251.46Y-189.23
X252.73Y-81.28
X252.73Y-153.67
X252.73Y-195.58
X254.0Y-73.66
X254.0Y-99.06
X254.0Y-101.6
X254.0Y-107.95
X254.0Y-113.03
X254.0Y-158.75
X254.0Y-175.26
X254.0Y-191.77
X254.0Y-203.2
X255.27Y-120.65
X255.27Y-132.08
X255.27Y-162.56
X255.27Y-167.64
X255.27Y-182.88
X256.54Y-85.09
X256.54Y-100.33
X256.54Y-111.76
X256.54Y-146.05
X256.54Y-153.67
X261.62Y-78.74
X261.62Y-88.9
X261.62Y-124.46
X261.62Y-163.83
X262.89Y-81.28
X262.89Y-101.6
X264.16Y-97.79
X264.16Y-104.14
X264.16Y-110.49
X264.16Y-124.46
X264.16Y-201.93
X264.16Y-207.01
X265.43Y-88.9
X265.43Y-196.85
X265.43Y-204.47
X266.7Y-104.14
X266.7Y-109.22
X266.7Y-118.11
X266.7Y-175.26
X266.7Y-190.5
X267.97Y-87.63
X267.97Y-129.54
X270.51Y-86.36
X270.51Y-96.52
X270.51Y-111.76
X270.51Y-116.84
X270.51Y-129.54
X271.78Y-104.14
X271.78Y-124.46
X273.05Y-110.49
X274.32Y-102.87
X276.86Y-87.63
X276.86Y-111.76
X276.86Y-118.11
X276.86Y-130.81
X276.86Y-140.97
X279.4Y-87.63
X279.4Y-116.84
X279.4Y-130.81
X281.94Y-138.43
X283.21Y-63.5
X283.21Y-129.54
X283.21Y-198.12
X284.48Y-81.28
X284.48Y-86.36
X285.75Y-101.6
X287.02Y-80.01
X287.02Y-163.83
X287.02Y-167.64
X287.02Y-173.99
X288.29Y-100.33
X289.56Y-80.01
X290.83Y-111.76
X290.83Y-132.08
X292.1Y-80.01
X292.1Y-95.25
X292.1Y-119.38
X292.1Y-138.43
X293.37Y-132.08
X294.64Y-87.63
X294.64Y-95.25
X295.91Y-119.38
X297.18Y-87.63
X297.18Y-95.25
X297.18Y-101.6
X297.18Y-130.81
X297.18Y-148.59
X297.18Y-190.5
X298.45Y-104.14
X299.72Y-67.31
X299.72Y-80.01
X299.72Y-93.98
X302.26Y-95.25
X302.26Y-100.33
X302.26Y-137.16
X302.26Y-165.1
X303.53Y-110.49
X303.53Y-132.08
X304.8Y-99.06
X306.07Y-132.08
X307.34Y-146.05
X308.61Y-78.74
X308.61Y-93.98
X308.61Y-109.22
X308.61Y-130.81
X309.88Y-119.38
X311.15Y-86.36
X311.15Y-124.46
X312.42Y-71.12
X312.42Y-138.43
X312.42Y-199.39
X317.5Y-138.43
X317.5Y-161.29
X318.77Y-91.44
X320.04Y-83.82
X321.31Y-73.66
X321.31Y-119.38
X321.31Y-203.2
X322.58Y-81.28
X322.58Y-162.56
X323.85Y-195.58
X325.12Y-129.54
X327.66Y-138.43
X327.66Y-147.32
X327.66Y-161.29
X327.66Y-165.1
X327.66Y-204.47
X328.93Y-80.01
X331.47Y-93.98
X331.47Y-132.08
X332.74Y-138.43
X332.74Y-165.1
X334.01Y-81.28
X334.01Y-106.68
X336.55Y-86.36
X337.82Y-104.14
X337.82Y-151.13
X339.09Y-124.46
X340.36Y-105.41
X342.9Y-93.98
X342.9Y-115.57
X342.9Y-153.67
X345.44Y-123.19
T2
X83.82Y-87.63
X83.82Y-90.17
X83.82Y-92.71
X83.82Y-95.25
X83.82Y-97.79
X83.82Y-100.33
X83.82Y-107.95
X83.82Y-110.49
X83.82Y-113.03
X83.82Y-115.57
X83.82Y-118.11
X83.82Y-120.65
X83.82Y-123.19
X83.82Y-125.73
X83.82Y-128.27
X83.82Y-130.81
X83.82Y-144.78
X83.82Y-147.32
X83.82Y-149.86
X83.82Y-162.56
X83.82Y-165.1
X83.82Y-167.64
X83.82Y-170.18
X83.82Y-172.72
X83.82Y-175.26
X83.82Y-177.8
X83.82Y-180.34
X83.82Y-182.88
X83.82Y-185.42
X83.82Y-193.675
X86.36Y-193.675
X91.44Y-88.9
X91.44Y-101.9
X91.44Y-137.24
X91.44Y-142.24
X91.44Y-160.02
X91.44Y-173.02
X91.44Y-175.26
X91.44Y-188.26
X92.71Y-116.54
X92.71Y-129.54
X93.98Y-88.9
X93.98Y-101.9
X93.98Y-160.02
X93.98Y-173.02
X93.98Y-175.26
X93.98Y-185.42
X96.52Y-88.9
X96.52Y-101.9
X99.06Y-88.9
X99.06Y-101.9
X99.06Y-111.76
X99.06Y-114.3
X99.06Y-116.84
X99.06Y-119.38
X99.06Y-121.92
X99.06Y-124.46
X99.06Y-127.0
X99.06Y-129.54
X99.06Y-132.08
X99.06Y-134.62
X99.06Y-137.16
X99.06Y-139.7
X99.06Y-149.86
X99.06Y-152.4
X99.06Y-154.94
X99.06Y-157.48
X99.06Y-160.02
X99.06Y-162.56
X99.06Y-165.1
X99.06Y-167.64
X99.06Y-170.18
X99.06Y-172.72
X99.06Y-175.26
X99.06Y-177.8
X100.33Y-81.28
X100.33Y-83.82
X101.6Y-88.9
X101.6Y-101.9
X102.87Y-81.28
X102.87Y-83.82
X104.14Y-88.9
X104.14Y-101.9
X104.14Y-182.88
X104.14Y-195.88
X106.68Y-88.9
X106.68Y-101.9
X107.95Y-188.595
X107.95Y-193.595
X108.92Y-182.88
X109.22Y-88.9
X109.22Y-101.9
X109.3Y-107.95
X109.3Y-146.05
X113.03Y-88.94
X113.03Y-93.94
X114.3Y-76.24
X114.3Y-81.24
X114.3Y-107.95
X114.3Y-111.76
X114.3Y-114.3
X114.3Y-116.84
X114.3Y-119.38
X114.3Y-121.92
X114.3Y-124.46
X114.3Y-127.0
X114.3Y-129.54
X114.3Y-132.08
X114.3Y-134.62
X114.3Y-137.16
X114.3Y-139.7
X114.3Y-146.05
X114.3Y-149.86
X114.3Y-152.4
X114.3Y-154.94
X114.3Y-157.48
X114.3Y-160.02
X114.3Y-162.56
X114.3Y-165.1
X114.3Y-167.64
X114.3Y-170.18
X114.3Y-172.72
X114.3Y-175.26
X114.3Y-177.8
X115.788Y-188.178
X116.84Y-88.9
X116.84Y-96.52
X116.85Y-76.19
X116.85Y-83.81
X119.126Y-196.85
X119.126Y-201.85
X119.38Y-88.9
X119.38Y-96.52
X119.38Y-111.76
X119.38Y-114.3
X119.38Y-116.84
X119.38Y-119.38
X119.38Y-121.92
X119.38Y-124.46
X119.38Y-127.0
X119.38Y-129.54
X119.38Y-132.08
X119.38Y-134.62
X119.38Y-137.16
X119.38Y-139.7
X119.38Y-149.86
X119.38Y-152.4
X119.38Y-154.94
X119.38Y-157.48
X119.38Y-160.02
X119.38Y-162.56
X119.38Y-165.1
X119.38Y-167.64
X119.38Y-170.18
X119.38Y-172.72
X119.38Y-175.26
X119.38Y-177.8
X119.38Y-188.178
X119.38Y-191.77
X119.39Y-76.19
X119.39Y-83.81
X121.92Y-88.9
X121.92Y-96.52
X121.92Y-182.88
X121.93Y-76.19
X121.93Y-83.81
X124.16Y-182.88
X124.46Y-88.9
X124.46Y-96.52
X124.46Y-195.51
X124.46Y-208.51
X124.47Y-76.19
X124.47Y-83.81
X127.0Y-88.9
X127.0Y-96.52
X127.0Y-195.51
X127.0Y-208.51
X128.488Y-188.178
X129.54Y-88.9
X129.54Y-96.52
X129.54Y-195.51
X129.54Y-208.51
X129.62Y-107.95
X129.62Y-146.05
X132.08Y-73.66
X132.08Y-83.82
X132.08Y-88.9
X132.08Y-96.52
X132.08Y-188.178
X132.08Y-191.77
X132.08Y-195.51
X132.08Y-208.51
X134.62Y-107.95
X134.62Y-111.76
X134.62Y-114.3
X134.62Y-116.84
X134.62Y-119.38
X134.62Y-121.92
X134.62Y-124.46
X134.62Y-127.0
X134.62Y-129.54
X134.62Y-132.08
X134.62Y-134.62
X134.62Y-137.16
X134.62Y-139.7
X134.62Y-146.05
X134.62Y-149.86
X134.62Y-152.4
X134.62Y-154.94
X134.62Y-157.48
X134.62Y-160.02
X134.62Y-162.56
X134.62Y-165.1
X134.62Y-167.64
X134.62Y-170.18
X134.62Y-172.72
X134.62Y-175.26
X134.62Y-177.8
X134.62Y-195.51
X134.62Y-208.51
X137.16Y-63.5
X137.16Y-68.5
X137.16Y-76.24
X137.16Y-81.24
X137.16Y-88.94
X137.16Y-93.94
X137.16Y-101.64
X137.16Y-106.64
X137.16Y-119.46
X137.16Y-124.46
X137.16Y-182.88
X137.16Y-193.04
X137.16Y-195.51
X137.16Y-208.51
X137.24Y-187.96
X139.7Y-149.86
X139.7Y-152.4
X139.7Y-154.94
X139.7Y-157.48
X139.7Y-160.02
X139.7Y-162.56
X139.7Y-165.1
X139.7Y-167.64
X139.7Y-170.18
X139.7Y-172.72
X139.7Y-175.26
X139.7Y-177.8
X139.7Y-195.51
X139.7Y-208.51
X140.97Y-63.5
X140.97Y-71.12
X140.97Y-76.2
X140.97Y-83.82
X140.97Y-88.9
X140.97Y-96.52
X140.97Y-101.6
X140.97Y-109.22
X140.97Y-119.38
X140.97Y-127.0
X140.97Y-134.62
X140.97Y-142.24
X142.24Y-187.96
X142.24Y-195.51
X142.24Y-208.51
X143.51Y-63.5
X143.51Y-71.12
X143.51Y-76.2
X143.51Y-83.82
X143.51Y-88.9
X143.51Y-96.52
X143.51Y-101.6
X143.51Y-109.22
X143.51Y-119.38
X143.51Y-127.0
X143.51Y-134.62
X143.51Y-142.24
X144.78Y-195.51
X144.78Y-208.51
X146.05Y-63.5
X146.05Y-71.12
X146.05Y-76.2
X146.05Y-83.82
X146.05Y-88.9
X146.05Y-96.52
X146.05Y-101.6
X146.05Y-109.22
X146.05Y-119.38
X146.05Y-127.0
X146.05Y-134.62
X146.05Y-142.24
X147.32Y-193.04
X147.32Y-195.51
X147.32Y-208.51
X148.59Y-63.5
X148.59Y-71.12
X148.59Y-76.2
X148.59Y-83.82
X148.59Y-88.9
X148.59Y-96.52
X148.59Y-101.6
X148.59Y-109.22
X148.59Y-119.38
X148.59Y-127.0
X148.59Y-134.62
X148.59Y-142.24
X148.59Y-185.46
X148.59Y-190.46
X149.94Y-146.05
X151.13Y-63.5
X151.13Y-71.12
X151.13Y-76.2
X151.13Y-83.82
X151.13Y-88.9
X151.13Y-96.52
X151.13Y-101.6
X151.13Y-109.22
X151.13Y-119.38
X151.13Y-127.0
X151.13Y-134.62
X151.13Y-142.24
X152.4Y-185.42
X152.4Y-193.04
X152.4Y-200.66
X152.4Y-208.28
X153.67Y-63.5
X153.67Y-71.12
X153.67Y-76.2
X153.67Y-83.82
X153.67Y-88.9
X153.67Y-96.52
X153.67Y-101.6
X153.67Y-109.22
X153.67Y-119.38
X153.67Y-127.0
X153.67Y-134.62
X153.67Y-142.24
X154.94Y-146.05
X154.94Y-149.86
X154.94Y-152.4
X154.94Y-154.94
X154.94Y-157.48
X154.94Y-160.02
X154.94Y-162.56
X154.94Y-165.1
X154.94Y-167.64
X154.94Y-170.18
X154.94Y-172.72
X154.94Y-175.26
X154.94Y-177.8
X154.94Y-185.42
X154.94Y-193.04
X154.94Y-200.66
X154.94Y-208.28
X156.21Y-63.5
X156.21Y-71.12
X156.21Y-76.2
X156.21Y-83.82
X156.21Y-88.9
X156.21Y-96.52
X156.21Y-101.6
X156.21Y-109.22
X156.21Y-119.38
X156.21Y-127.0
X156.21Y-134.62
X156.21Y-142.24
X157.48Y-185.42
X157.48Y-193.04
X157.48Y-200.66
X157.48Y-208.28
X158.75Y-76.2
X158.75Y-83.82
X158.75Y-88.9
X158.75Y-96.52
X158.75Y-101.6
X158.75Y-109.22
X158.75Y-119.38
X158.75Y-127.0
X158.75Y-134.62
X158.75Y-142.24
X160.02Y-149.86
X160.02Y-152.4
X160.02Y-154.94
X160.02Y-157.48
X160.02Y-160.02
X160.02Y-162.56
X160.02Y-165.1
X160.02Y-167.64
X160.02Y-170.18
X160.02Y-172.72
X160.02Y-175.26
X160.02Y-177.8
X160.02Y-185.42
X160.02Y-193.04
X160.02Y-200.66
X160.02Y-208.28
X161.29Y-88.9
X161.29Y-96.52
X161.29Y-119.38
X161.29Y-127.0
X161.29Y-134.62
X161.29Y-142.24
X161.925Y-63.5
X161.925Y-73.66
X162.56Y-185.42
X162.56Y-193.04
X162.56Y-200.66
X162.56Y-208.28
X163.83Y-63.5
X163.83Y-73.66
X163.83Y-76.2
X163.83Y-86.36
X163.83Y-88.9
X163.83Y-96.52
X163.83Y-99.06
X163.83Y-112.06
X163.83Y-119.38
X163.83Y-127.0
X163.83Y-134.62
X163.83Y-142.24
X165.1Y-185.42
X165.1Y-193.04
X165.1Y-200.66
X165.1Y-208.28
X166.37Y-63.5
X166.37Y-73.66
X166.37Y-76.2
X166.37Y-86.36
X166.37Y-99.06
X166.37Y-112.06
X167.64Y-185.42
X167.64Y-193.04
X167.64Y-200.66
X167.64Y-208.28
X170.18Y-119.38
X170.18Y-127.0
X170.18Y-134.62
X170.18Y-142.24
X170.26Y-146.05
X171.45Y-63.5
X171.45Y-66.04
X171.45Y-68.58
X171.45Y-71.12
X171.45Y-73.66
X171.45Y-76.2
X171.45Y-78.74
X171.45Y-81.28
X171.45Y-83.82
X171.45Y-86.36
X171.45Y-88.9
X171.45Y-91.44
X171.45Y-93.98
X171.45Y-96.52
X171.45Y-99.06
X171.45Y-101.6
X171.45Y-104.14
X171.45Y-106.68
X171.45Y-109.22
X171.45Y-111.76
X172.72Y-119.38
X172.72Y-127.0
X172.72Y-134.62
X172.72Y-142.24
X172.72Y-185.85
X172.72Y-197.85
X175.26Y-119.38
X175.26Y-127.0
X175.26Y-134.62
X175.26Y-142.24
X175.26Y-146.05
X175.26Y-149.86
X175.26Y-152.4
X175.26Y-154.94
X175.26Y-157.48
X175.26Y-160.02
X175.26Y-162.56
X175.26Y-165.1
X175.26Y-167.64
X175.26Y-170.18
X175.26Y-172.72
X175.26Y-175.26
X175.26Y-177.8
X175.26Y-185.85
X175.26Y-197.85
X177.8Y-119.38
X177.8Y-127.0
X177.8Y-134.62
X177.8Y-142.24
X180.34Y-119.38
X180.34Y-127.0
X180.34Y-134.62
X180.34Y-142.24
X180.34Y-149.86
X180.34Y-152.4
X180.34Y-154.94
X180.34Y-157.48
X180.34Y-160.02
X180.34Y-162.56
X180.34Y-165.1
X180.34Y-167.64
X180.34Y-170.18
X180.34Y-172.72
X180.34Y-175.26
X180.34Y-177.8
X180.34Y-180.34
X180.34Y-182.88
X180.34Y-185.42
X180.34Y-187.96
X180.34Y-190.5
X180.34Y-193.04
X180.34Y-195.58
X180.34Y-198.12
X182.88Y-119.38
X182.88Y-127.0
X182.88Y-134.62
X182.88Y-142.24
X185.42Y-119.38
X185.42Y-127.0
X185.42Y-134.62
X185.42Y-142.24
X186.69Y-63.5
X186.69Y-66.04
X186.69Y-68.58
X186.69Y-71.12
X186.69Y-73.66
X186.69Y-76.2
X186.69Y-78.74
X186.69Y-81.28
X186.69Y-83.82
X186.69Y-86.36
X186.69Y-88.9
X186.69Y-91.44
X186.69Y-93.98
X186.69Y-96.52
X186.69Y-99.06
X186.69Y-101.6
X186.69Y-104.14
X186.69Y-106.68
X186.69Y-109.22
X186.69Y-111.76
X187.96Y-119.38
X187.96Y-127.0
X187.96Y-134.62
X187.96Y-142.24
X189.23Y-63.54
X189.23Y-68.54
X190.5Y-83.82
X190.5Y-86.36
X190.5Y-99.06
X190.5Y-112.06
X190.5Y-119.38
X190.5Y-127.0
X190.5Y-134.62
X190.5Y-142.24
X190.58Y-146.05
X193.04Y-83.82
X193.04Y-86.36
X193.04Y-99.06
X193.04Y-112.06
X193.04Y-119.38
X193.04Y-127.0
X193.04Y-134.62
X193.04Y-142.24
X194.31Y-63.5
X194.31Y-66.04
X195.58Y-83.815
X195.58Y-86.355
X195.58Y-99.06
X195.58Y-112.06
X195.58Y-146.05
X195.58Y-149.86
X195.58Y-152.4
X195.58Y-154.94
X195.58Y-157.48
X195.58Y-160.02
X195.58Y-162.56
X195.58Y-165.1
X195.58Y-167.64
X195.58Y-170.18
X195.58Y-172.72
X195.58Y-175.26
X195.58Y-177.8
X195.58Y-180.34
X195.58Y-182.88
X195.58Y-185.42
X195.58Y-187.96
X195.58Y-190.5
X195.58Y-193.04
X195.58Y-195.58
X195.58Y-198.12
X195.58Y-205.74
X195.58Y-208.28
X195.58Y-210.82
X195.585Y-203.2
X196.85Y-63.5
X196.85Y-66.04
X198.12Y-83.815
X198.12Y-86.355
X198.12Y-205.74
X198.12Y-208.28
X198.12Y-210.82
X198.125Y-203.2
X199.39Y-63.5
X199.39Y-66.04
X199.39Y-88.94
X199.39Y-93.94
X199.39Y-102.91
X199.39Y-107.91
X199.39Y-114.34
X199.39Y-119.34
X199.39Y-125.73
X199.39Y-130.73
X199.39Y-137.16
X199.39Y-142.16
X199.39Y-148.63
X199.39Y-153.63
X200.66Y-160.1
X200.66Y-165.1
X200.66Y-172.72
X200.66Y-187.72
X201.93Y-63.5
X201.93Y-66.04
X201.93Y-69.85
X201.93Y-72.39
X201.93Y-76.24
X201.93Y-81.24
X203.2Y-99.06
X203.2Y-102.87
X203.2Y-110.49
X203.2Y-114.3
X203.2Y-121.92
X203.2Y-125.73
X203.2Y-133.35
X203.2Y-137.16
X203.2Y-144.78
X203.2Y-148.59
X203.2Y-156.21
X203.205Y-88.9
X203.205Y-96.52
X204.47Y-63.5
X204.47Y-66.04
X205.74Y-76.2
X205.74Y-83.82
X205.74Y-99.06
X205.74Y-102.87
X205.74Y-110.49
X205.74Y-114.3
X205.74Y-121.92
X205.74Y-125.73
X205.74Y-133.35
X205.74Y-137.16
X205.74Y-144.78
X205.74Y-148.59
X205.74Y-156.21
X205.74Y-160.02
X205.74Y-167.64
X205.74Y-185.42
X205.74Y-193.04
X205.74Y-196.85
X205.745Y-88.9
X205.745Y-96.52
X205.82Y-171.45
X205.82Y-182.88
X205.94Y-175.26
X205.94Y-179.07
X207.01Y-63.5
X207.01Y-66.04
X208.28Y-76.2
X208.28Y-83.82
X208.28Y-99.06
X208.28Y-102.87
X208.28Y-110.49
X208.28Y-114.3
X208.28Y-121.92
X208.28Y-125.73
X208.28Y-133.35
X208.28Y-137.16
X208.28Y-144.78
X208.28Y-148.59
X208.28Y-156.21
X208.28Y-160.02
X208.28Y-167.64
X208.28Y-185.42
X208.28Y-193.04
X208.285Y-88.9
X208.285Y-96.52
X209.55Y-63.5
X209.55Y-66.04
X210.82Y-76.2
X210.82Y-83.82
X210.82Y-99.06
X210.82Y-102.87
X210.82Y-110.49
X210.82Y-114.3
X210.82Y-121.92
X210.82Y-125.73
X210.82Y-133.35
X210.82Y-137.16
X210.82Y-144.78
X210.82Y-148.59
X210.82Y-156.21
X210.82Y-160.02
X210.82Y-167.64
X210.82Y-171.45
X210.82Y-182.88
X210.82Y-185.42
X210.82Y-193.04
X210.825Y-88.9
X210.825Y-96.52
X212.09Y-63.5
X212.09Y-66.04
X213.36Y-76.2
X213.36Y-83.82
X213.36Y-99.06
X213.36Y-102.87
X213.36Y-110.49
X213.36Y-114.3
X213.36Y-121.92
X213.36Y-125.73
X213.36Y-133.35
X213.36Y-137.16
X213.36Y-144.78
X213.36Y-148.59
X213.36Y-156.21
X213.36Y-160.02
X213.36Y-167.64
X213.36Y-185.42
X213.36Y-193.04
X213.365Y-88.9
X213.365Y-96.52
X214.63Y-63.5
X214.63Y-66.04
X215.9Y-76.2
X215.9Y-83.82
X215.9Y-99.06
X215.9Y-102.87
X215.9Y-110.49
X215.9Y-114.3
X215.9Y-121.92
X215.9Y-125.73
X215.9Y-133.35
X215.9Y-137.16
X215.9Y-144.78
X215.9Y-148.59
X215.9Y-156.21
X215.9Y-160.02
X215.9Y-167.64
X215.9Y-185.42
X215.9Y-193.04
X215.9Y-196.85
X215.905Y-88.9
X215.905Y-96.52
X215.98Y-214.63
X217.17Y-63.5
X217.17Y-66.04
X218.44Y-76.2
X218.44Y-83.82
X218.44Y-99.06
X218.44Y-102.87
X218.44Y-110.49
X218.44Y-114.3
X218.44Y-121.92
X218.44Y-125.73
X218.44Y-133.35
X218.44Y-137.16
X218.44Y-144.78
X218.44Y-148.59
X218.44Y-156.21
X218.44Y-160.02
X218.44Y-167.64
X218.44Y-175.26
X218.44Y-179.07
X218.44Y-185.42
X218.44Y-193.04
X218.445Y-88.9
X218.445Y-96.52
X218.774Y-196.85
X219.71Y-63.5
X219.71Y-66.04
X220.98Y-76.2
X220.98Y-83.82
X220.98Y-99.06
X220.98Y-102.87
X220.98Y-110.49
X220.98Y-114.3
X220.98Y-121.92
X220.98Y-125.73
X220.98Y-133.35
X220.98Y-137.16
X220.98Y-144.78
X220.98Y-148.59
X220.98Y-156.21
X220.98Y-160.02
X220.98Y-167.64
X220.98Y-185.42
X220.98Y-193.04
X220.98Y-214.63
X220.985Y-88.9
X220.985Y-96.52
X221.142Y-176.54
X222.25Y-63.5
X222.25Y-66.04
X223.52Y-76.2
X223.52Y-83.82
X223.52Y-99.06
X223.52Y-102.87
X223.52Y-110.49
X223.52Y-114.3
X223.52Y-121.92
X223.52Y-125.73
X223.52Y-133.35
X223.52Y-137.16
X223.52Y-144.78
X223.52Y-148.59
X223.52Y-156.21
X223.52Y-185.42
X223.52Y-193.04
X223.52Y-203.2
X223.52Y-208.1
X223.525Y-88.9
X223.525Y-96.52
X223.774Y-196.85
X224.79Y-63.5
X224.79Y-66.04
X226.06Y-102.87
X226.06Y-110.49
X226.06Y-114.3
X226.06Y-121.92
X226.06Y-125.73
X226.06Y-133.35
X226.06Y-137.16
X226.06Y-144.78
X226.06Y-148.59
X226.06Y-156.21
X226.06Y-160.02
X226.06Y-162.56
X226.06Y-165.1
X226.06Y-167.64
X226.06Y-170.18
X226.065Y-88.9
X226.065Y-96.52
X227.33Y-63.5
X227.33Y-66.04
X227.33Y-76.24
X227.33Y-81.24
X227.33Y-180.34
X227.33Y-193.34
X227.33Y-200.914
X227.33Y-205.914
X228.6Y-160.02
X228.6Y-162.56
X228.6Y-165.1
X228.6Y-167.64
X228.6Y-170.18
X229.642Y-176.54
X229.87Y-63.5
X229.87Y-66.04
X229.87Y-148.63
X229.87Y-153.63
X231.14Y-76.2
X231.14Y-83.82
X231.14Y-195.58
X231.14Y-208.58
X232.41Y-63.5
X232.41Y-66.04
X232.41Y-160.1
X232.41Y-165.1
X232.41Y-172.76
X232.41Y-177.76
X232.41Y-185.46
X232.41Y-190.46
X233.68Y-76.2
X233.68Y-83.82
X233.68Y-132.08
X233.68Y-148.59
X233.68Y-156.21
X234.95Y-63.5
X234.95Y-66.04
X236.22Y-76.2
X236.22Y-83.82
X236.22Y-91.44
X236.22Y-93.98
X236.22Y-96.52
X236.22Y-99.06
X236.22Y-101.6
X236.22Y-104.14
X236.22Y-106.68
X236.22Y-109.22
X236.22Y-111.76
X236.22Y-114.3
X236.22Y-116.84
X236.22Y-119.38
X236.22Y-121.92
X236.22Y-124.46
X236.22Y-127.0
X236.22Y-129.54
X236.22Y-132.08
X236.22Y-134.62
X236.22Y-137.16
X236.22Y-139.7
X236.22Y-148.59
X236.22Y-156.21
X236.22Y-160.02
X236.22Y-167.64
X236.22Y-172.72
X236.22Y-180.34
X236.22Y-185.42
X236.22Y-193.04
X236.22Y-200.66
X236.22Y-208.28
X237.49Y-63.5
X237.49Y-66.04
X238.46Y-198.12
X238.714Y-210.82
X238.76Y-76.2
X238.76Y-83.82
X238.76Y-148.59
X238.76Y-156.21
X238.76Y-160.02
X238.76Y-167.64
X238.76Y-172.72
X238.76Y-180.34
X238.76Y-185.42
X238.76Y-193.04
X238.76Y-200.66
X238.76Y-208.28
X240.03Y-63.5
X240.03Y-66.04
X241.3Y-76.2
X241.3Y-83.82
X241.3Y-148.59
X241.3Y-156.21
X241.3Y-160.02
X241.3Y-167.64
X241.3Y-172.72
X241.3Y-180.34
X241.3Y-185.42
X241.3Y-193.04
X241.3Y-200.66
X241.3Y-208.28
X242.57Y-63.5
X242.57Y-66.04
X243.84Y-76.2
X243.84Y-83.82
X243.84Y-148.59
X243.84Y-156.21
X243.84Y-160.02
X243.84Y-167.64
X243.84Y-172.72
X243.84Y-180.34
X243.84Y-185.42
X243.84Y-193.04
X243.84Y-200.66
X243.84Y-208.28
X245.11Y-63.5
X245.11Y-66.04
X246.38Y-76.2
X246.38Y-83.82
X246.38Y-148.59
X246.38Y-156.21
X246.38Y-160.02
X246.38Y-167.64
X246.38Y-172.72
X246.38Y-180.34
X246.38Y-185.42
X246.38Y-193.04
X246.38Y-200.66
X246.38Y-208.28
X246.46Y-87.63
X247.65Y-63.5
X247.65Y-66.04
X248.92Y-76.2
X248.92Y-83.82
X248.92Y-148.59
X248.92Y-156.21
X248.92Y-160.02
X248.92Y-167.64
X248.92Y-172.72
X248.92Y-180.34
X248.92Y-185.42
X248.92Y-193.04
X248.92Y-200.66
X248.92Y-208.28
X250.19Y-63.5
X250.19Y-66.04
X251.46Y-76.2
X251.46Y-83.82
X251.46Y-87.63
X251.46Y-91.44
X251.46Y-93.98
X251.46Y-96.52
X251.46Y-99.06
X251.46Y-101.6
X251.46Y-104.14
X251.46Y-106.68
X251.46Y-109.22
X251.46Y-111.76
X251.46Y-114.3
X251.46Y-116.84
X251.46Y-119.38
X251.46Y-121.92
X251.46Y-124.46
X251.46Y-127.0
X251.46Y-129.54
X251.46Y-132.08
X251.46Y-134.62
X251.46Y-137.16
X251.46Y-139.7
X251.46Y-148.59
X251.46Y-156.21
X251.46Y-160.02
X251.46Y-167.64
X251.46Y-172.72
X251.46Y-180.34
X251.46Y-185.42
X251.46Y-193.04
X251.46Y-198.12
X251.46Y-200.66
X251.46Y-208.28
X251.714Y-210.82
X252.73Y-63.5
X252.73Y-66.04
X254.0Y-76.2
X254.0Y-83.82
X254.0Y-148.59
X254.0Y-156.21
X254.0Y-172.72
X254.0Y-180.34
X255.27Y-63.5
X255.27Y-66.04
X256.54Y-114.5
X256.54Y-127.0
X256.54Y-129.74
X256.54Y-142.24
X256.54Y-148.59
X256.54Y-156.21
X257.175Y-91.48
X257.175Y-96.48
X257.81Y-63.5
X257.81Y-66.04
X257.81Y-76.24
X257.81Y-81.24
X257.81Y-182.88
X257.81Y-195.38
X257.81Y-198.12
X257.81Y-208.28
X260.35Y-63.5
X260.35Y-66.04
X261.62Y-76.2
X261.62Y-83.82
X261.62Y-91.44
X261.62Y-106.68
X261.62Y-114.3
X261.62Y-121.92
X261.62Y-127.0
X261.62Y-134.62
X261.62Y-142.24
X261.62Y-144.78
X261.62Y-147.32
X261.62Y-149.86
X261.62Y-152.4
X261.62Y-154.94
X261.62Y-157.48
X261.62Y-160.02
X261.62Y-167.64
X261.62Y-170.18
X261.62Y-172.72
X261.62Y-175.26
X261.62Y-177.8
X261.62Y-180.34
X261.62Y-182.88
X261.62Y-185.42
X261.62Y-193.04
X261.62Y-195.58
X261.62Y-198.12
X261.62Y-200.66
X261.62Y-203.2
X261.62Y-205.74
X261.62Y-208.28
X262.89Y-63.5
X262.89Y-66.04
X264.16Y-76.2
X264.16Y-83.82
X264.16Y-91.44
X264.16Y-106.68
X264.16Y-114.3
X264.16Y-121.92
X264.16Y-127.0
X264.16Y-134.62
X264.16Y-138.43
X264.16Y-163.83
X264.2Y-189.23
X265.43Y-63.5
X265.43Y-66.04
X266.7Y-76.2
X266.7Y-83.82
X266.7Y-91.44
X266.7Y-106.68
X266.7Y-114.3
X266.7Y-121.92
X266.7Y-127.0
X266.7Y-134.62
X267.97Y-63.5
X267.97Y-66.04
X269.16Y-138.43
X269.16Y-163.83
X269.2Y-189.23
X269.24Y-76.2
X269.24Y-83.82
X269.24Y-91.44
X269.24Y-106.68
X269.24Y-114.3
X269.24Y-121.92
X269.24Y-127.0
X269.24Y-134.62
X269.24Y-142.24
X269.24Y-144.78
X269.24Y-147.32
X269.24Y-149.86
X269.24Y-152.4
X269.24Y-154.94
X269.24Y-157.48
X269.24Y-160.02
X269.24Y-167.64
X269.24Y-170.18
X269.24Y-172.72
X269.24Y-175.26
X269.24Y-177.8
X269.24Y-180.34
X269.24Y-182.88
X269.24Y-185.42
X269.24Y-193.04
X269.24Y-195.58
X269.24Y-198.12
X269.24Y-200.66
X269.24Y-203.2
X269.24Y-205.74
X269.24Y-208.28
X270.51Y-63.5
X270.51Y-66.04
X271.78Y-76.2
X271.78Y-83.82
X271.78Y-91.44
X271.78Y-106.68
X271.78Y-114.3
X271.78Y-121.92
X271.78Y-127.0
X271.78Y-134.62
X271.78Y-142.24
X271.78Y-144.78
X271.78Y-147.32
X271.78Y-149.86
X271.78Y-152.4
X271.78Y-154.94
X271.78Y-157.48
X271.78Y-160.02
X271.78Y-167.64
X271.78Y-170.18
X271.78Y-172.72
X271.78Y-175.26
X271.78Y-177.8
X271.78Y-180.34
X271.78Y-182.88
X271.78Y-185.42
X271.78Y-193.04
X271.78Y-195.58
X271.78Y-198.12
X271.78Y-200.66
X271.78Y-203.2
X271.78Y-205.74
X271.78Y-208.28
X271.78Y-210.82
X273.05Y-63.5
X273.05Y-66.04
X274.32Y-76.2
X274.32Y-83.82
X274.32Y-91.44
X274.32Y-106.68
X274.32Y-114.3
X274.32Y-121.92
X274.32Y-127.0
X274.32Y-134.62
X274.32Y-138.43
X274.32Y-163.83
X274.36Y-189.23
X276.86Y-76.2
X276.86Y-83.82
X276.86Y-91.44
X276.86Y-106.68
X276.86Y-114.3
X276.86Y-121.92
X276.86Y-127.0
X276.86Y-134.62
X279.32Y-138.43
X279.32Y-163.83
X279.36Y-189.23
X279.4Y-76.2
X279.4Y-83.82
X279.4Y-91.44
X279.4Y-106.68
X279.4Y-114.3
X279.4Y-121.92
X279.4Y-127.0
X279.4Y-134.62
X279.4Y-142.24
X279.4Y-144.78
X279.4Y-147.32
X279.4Y-149.86
X279.4Y-152.4
X279.4Y-154.94
X279.4Y-157.48
X279.4Y-160.02
X279.4Y-167.64
X279.4Y-170.18
X279.4Y-172.72
X279.4Y-175.26
X279.4Y-177.8
X279.4Y-180.34
X279.4Y-182.88
X279.4Y-185.42
X279.4Y-193.04
X279.4Y-195.58
X279.4Y-198.12
X279.4Y-200.66
X279.4Y-203.2
X279.4Y-205.74
X279.4Y-208.28
X279.4Y-210.82
X281.94Y-76.2
X281.94Y-83.82
X281.94Y-91.44
X281.94Y-106.68
X281.94Y-114.3
X281.94Y-121.92
X281.94Y-127.0
X281.94Y-134.62
X281.94Y-142.24
X281.94Y-144.78
X281.94Y-147.32
X281.94Y-149.86
X281.94Y-152.4
X281.94Y-154.94
X281.94Y-157.48
X281.94Y-160.02
X281.94Y-167.64
X281.94Y-170.18
X281.94Y-172.72
X281.94Y-175.26
X281.94Y-177.8
X281.94Y-180.34
X281.94Y-182.88
X281.94Y-185.42
X284.48Y-76.2
X284.48Y-83.82
X284.48Y-91.44
X284.48Y-106.68
X284.48Y-114.3
X284.48Y-121.92
X284.48Y-127.0
X284.48Y-134.62
X284.48Y-138.43
X284.48Y-163.83
X285.75Y-62.27
X285.75Y-67.27
X287.02Y-91.44
X287.02Y-106.68
X289.48Y-138.43
X289.48Y-163.83
X289.56Y-62.23
X289.56Y-69.85
X289.56Y-76.2
X289.56Y-83.82
X289.56Y-91.44
X289.56Y-106.68
X289.56Y-114.3
X289.56Y-121.92
X289.56Y-127.0
X289.56Y-134.62
X289.56Y-142.24
X289.56Y-144.78
X289.56Y-147.32
X289.56Y-149.86
X289.56Y-152.4
X289.56Y-154.94
X289.56Y-157.48
X289.56Y-160.02
X289.56Y-167.64
X289.56Y-170.18
X289.56Y-172.72
X289.56Y-175.26
X289.56Y-177.8
X289.56Y-180.34
X289.56Y-182.88
X289.56Y-185.42
X289.56Y-190.5
X289.56Y-193.04
X289.56Y-195.58
X289.56Y-198.12
X289.56Y-200.66
X289.56Y-203.2
X289.56Y-205.74
X289.56Y-208.28
X289.56Y-210.82
X292.1Y-62.23
X292.1Y-69.85
X292.1Y-76.2
X292.1Y-83.82
X292.1Y-91.44
X292.1Y-106.68
X292.1Y-114.3
X292.1Y-121.92
X292.1Y-127.0
X292.1Y-134.62
X292.1Y-142.24
X292.1Y-144.78
X292.1Y-147.32
X292.1Y-149.86
X292.1Y-152.4
X292.1Y-154.94
X292.1Y-157.48
X292.1Y-160.02
X292.1Y-167.64
X292.1Y-170.18
X292.1Y-172.72
X292.1Y-175.26
X292.1Y-177.8
X292.1Y-180.34
X292.1Y-182.88
X292.1Y-185.42
X292.1Y-193.04
X292.1Y-195.58
X292.1Y-198.12
X292.1Y-200.66
X292.1Y-203.2
X292.1Y-205.74
X292.1Y-208.28
X294.64Y-62.23
X294.64Y-69.85
X294.64Y-76.2
X294.64Y-83.82
X294.64Y-91.44
X294.64Y-106.68
X294.64Y-114.3
X294.64Y-121.92
X294.64Y-127.0
X294.64Y-134.62
X294.64Y-138.43
X294.64Y-189.23
X294.68Y-163.83
X297.18Y-62.23
X297.18Y-69.85
X297.18Y-76.2
X297.18Y-83.82
X297.18Y-91.44
X297.18Y-106.68
X297.18Y-114.3
X297.18Y-121.92
X297.18Y-127.0
X297.18Y-134.62
X299.64Y-138.43
X299.64Y-189.23
X299.68Y-163.83
X299.72Y-62.23
X299.72Y-69.85
X299.72Y-76.2
X299.72Y-83.82
X299.72Y-91.44
X299.72Y-106.68
X299.72Y-114.3
X299.72Y-121.92
X299.72Y-127.0
X299.72Y-134.62
X299.72Y-142.24
X299.72Y-144.78
X299.72Y-147.32
X299.72Y-149.86
X299.72Y-152.4
X299.72Y-154.94
X299.72Y-157.48
X299.72Y-160.02
X299.72Y-167.64
X299.72Y-170.18
X299.72Y-172.72
X299.72Y-175.26
X299.72Y-177.8
X299.72Y-180.34
X299.72Y-182.88
X299.72Y-185.42
X299.72Y-193.04
X299.72Y-195.58
X299.72Y-198.12
X299.72Y-200.66
X299.72Y-203.2
X299.72Y-205.74
X299.72Y-208.28
X302.26Y-62.23
X302.26Y-69.85
X302.26Y-76.2
X302.26Y-83.82
X302.26Y-91.44
X302.26Y-106.68
X302.26Y-114.3
X302.26Y-121.92
X302.26Y-127.0
X302.26Y-134.62
X302.26Y-142.24
X302.26Y-144.78
X302.26Y-147.32
X302.26Y-149.86
X302.26Y-152.4
X302.26Y-154.94
X302.26Y-157.48
X302.26Y-160.02
X302.26Y-167.64
X302.26Y-170.18
X302.26Y-172.72
X302.26Y-175.26
X302.26Y-177.8
X302.26Y-180.34
X302.26Y-182.88
X302.26Y-185.42
X302.26Y-193.04
X302.26Y-195.58
X302.26Y-198.12
X302.26Y-200.66
X302.26Y-203.2
X302.26Y-205.74
X302.26Y-208.28
X302.26Y-210.82
X304.8Y-62.23
X304.8Y-69.85
X304.8Y-76.2
X304.8Y-83.82
X304.8Y-91.44
X304.8Y-106.68
X304.8Y-114.3
X304.8Y-121.92
X304.8Y-127.0
X304.8Y-134.62
X304.8Y-138.43
X304.8Y-163.83
X304.8Y-189.23
X307.34Y-62.23
X307.34Y-69.85
X307.34Y-76.2
X307.34Y-83.82
X307.34Y-91.44
X307.34Y-106.68
X307.34Y-114.3
X307.34Y-121.92
X307.34Y-127.0
X307.34Y-134.62
X309.8Y-138.43
X309.8Y-163.83
X309.8Y-189.23
X309.88Y-76.2
X309.88Y-83.82
X309.88Y-91.44
X309.88Y-106.68
X309.88Y-114.3
X309.88Y-121.92
X309.88Y-127.0
X309.88Y-134.62
X309.88Y-142.24
X309.88Y-144.78
X309.88Y-147.32
X309.88Y-149.86
X309.88Y-152.4
X309.88Y-154.94
X309.88Y-157.48
X309.88Y-160.02
X309.88Y-167.64
X309.88Y-170.18
X309.88Y-172.72
X309.88Y-175.26
X309.88Y-177.8
X309.88Y-180.34
X309.88Y-182.88
X309.88Y-185.42
X309.88Y-193.04
X309.88Y-195.58
X309.88Y-198.12
X309.88Y-200.66
X309.88Y-203.2
X309.88Y-205.74
X309.88Y-208.28
X309.88Y-210.82
X312.42Y-76.2
X312.42Y-83.82
X312.42Y-114.3
X312.42Y-121.92
X312.42Y-127.0
X312.42Y-134.62
X312.42Y-142.24
X312.42Y-144.78
X312.42Y-147.32
X312.42Y-149.86
X312.42Y-152.4
X312.42Y-154.94
X312.42Y-157.48
X312.42Y-160.02
X312.42Y-167.64
X312.42Y-170.18
X312.42Y-172.72
X312.42Y-175.26
X312.42Y-177.8
X312.42Y-180.34
X312.42Y-182.88
X312.42Y-185.42
X313.69Y-190.2
X313.69Y-203.2
X314.96Y-138.43
X314.96Y-163.83
X317.5Y-101.6
X317.5Y-109.22
X317.5Y-114.3
X317.5Y-121.92
X317.5Y-127.0
X317.5Y-134.62
X318.77Y-76.24
X318.77Y-81.24
X318.77Y-88.94
X318.77Y-93.94
X319.96Y-138.43
X319.96Y-163.83
X320.04Y-101.6
X320.04Y-109.22
X320.04Y-114.3
X320.04Y-121.92
X320.04Y-127.0
X320.04Y-134.62
X320.04Y-142.24
X320.04Y-144.78
X320.04Y-147.32
X320.04Y-149.86
X320.04Y-152.4
X320.04Y-154.94
X320.04Y-157.48
X320.04Y-160.02
X320.04Y-167.64
X320.04Y-170.18
X320.04Y-172.72
X320.04Y-175.26
X320.04Y-177.8
X320.04Y-180.34
X320.04Y-182.88
X320.04Y-185.42
X322.58Y-76.2
X322.58Y-83.82
X322.58Y-88.9
X322.58Y-96.52
X322.58Y-101.6
X322.58Y-109.22
X322.58Y-114.3
X322.58Y-121.92
X322.58Y-127.0
X322.58Y-134.62
X322.58Y-142.24
X322.58Y-144.78
X322.58Y-147.32
X322.58Y-149.86
X322.58Y-152.4
X322.58Y-154.94
X322.58Y-157.48
X322.58Y-160.02
X322.58Y-167.64
X322.58Y-170.18
X322.58Y-172.72
X322.58Y-175.26
X322.58Y-177.8
X322.58Y-180.34
X322.58Y-182.88
X322.58Y-185.42
X325.12Y-76.2
X325.12Y-83.82
X325.12Y-88.9
X325.12Y-96.52
X325.12Y-101.6
X325.12Y-109.22
X325.12Y-114.3
X325.12Y-121.92
X325.12Y-127.0
X325.12Y-134.62
X325.12Y-138.43
X325.12Y-163.83
X325.12Y-190.2
X325.12Y-203.2
X327.66Y-69.85
X327.66Y-76.2
X327.66Y-83.82
X327.66Y-88.9
X327.66Y-96.52
X327.66Y-101.6
X327.66Y-109.22
X327.66Y-114.3
X327.66Y-121.92
X327.66Y-127.0
X327.66Y-134.62
X330.12Y-138.43
X330.12Y-163.83
X330.2Y-76.2
X330.2Y-83.82
X330.2Y-88.9
X330.2Y-96.52
X330.2Y-101.6
X330.2Y-109.22
X330.2Y-114.3
X330.2Y-121.92
X330.2Y-127.0
X330.2Y-134.62
X330.2Y-142.24
X330.2Y-144.78
X330.2Y-147.32
X330.2Y-149.86
X330.2Y-152.4
X330.2Y-154.94
X330.2Y-157.48
X330.2Y-160.02
X330.2Y-167.64
X330.2Y-170.18
X330.2Y-172.72
X330.2Y-175.26
X330.2Y-177.8
X330.2Y-180.34
X330.2Y-182.88
X330.2Y-185.42
X330.2Y-190.5
X330.2Y-193.04
X330.2Y-195.58
X330.2Y-198.12
X330.2Y-200.66
X330.2Y-203.2
X330.2Y-205.74
X330.2Y-208.28
X330.2Y-210.82
X331.47Y-64.77
X332.74Y-76.2
X332.74Y-83.82
X332.74Y-88.9
X332.74Y-96.52
X332.74Y-101.6
X332.74Y-109.22
X332.74Y-114.3
X332.74Y-121.92
X332.74Y-127.0
X332.74Y-134.62
X332.74Y-142.24
X332.74Y-144.78
X332.74Y-147.32
X332.74Y-149.86
X332.74Y-152.4
X332.74Y-154.94
X332.74Y-157.48
X332.74Y-160.02
X332.74Y-167.64
X332.74Y-170.18
X332.74Y-172.72
X332.74Y-175.26
X332.74Y-177.8
X332.74Y-180.34
X332.74Y-182.88
X332.74Y-185.42
X332.74Y-193.04
X332.74Y-195.58
X332.74Y-198.12
X332.74Y-200.66
X332.74Y-203.2
X332.74Y-205.74
X332.74Y-208.28
X334.01Y-64.77
X335.28Y-76.2
X335.28Y-83.82
X335.28Y-88.9
X335.28Y-96.52
X335.28Y-101.6
X335.28Y-109.22
X335.28Y-114.3
X335.28Y-121.92
X335.28Y-127.0
X335.28Y-134.62
X335.28Y-138.43
X335.28Y-163.83
X335.32Y-189.23
X337.82Y-76.2
X337.82Y-83.82
X337.82Y-88.9
X337.82Y-96.52
X337.82Y-101.6
X337.82Y-109.22
X337.82Y-114.3
X337.82Y-121.92
X337.82Y-127.0
X337.82Y-134.62
X340.28Y-138.43
X340.28Y-163.83
X340.32Y-189.23
X340.36Y-76.2
X340.36Y-83.82
X340.36Y-88.9
X340.36Y-96.52
X340.36Y-101.6
X340.36Y-109.22
X340.36Y-114.3
X340.36Y-121.92
X340.36Y-127.0
X340.36Y-134.62
X340.36Y-142.24
X340.36Y-144.78
X340.36Y-147.32
X340.36Y-149.86
X340.36Y-152.4
X340.36Y-154.94
X340.36Y-157.48
X340.36Y-160.02
X340.36Y-167.64
X340.36Y-170.18
X340.36Y-172.72
X340.36Y-175.26
X340.36Y-177.8
X340.36Y-180.34
X340.36Y-182.88
X340.36Y-185.42
X340.36Y-193.04
X340.36Y-195.58
X340.36Y-198.12
X340.36Y-200.66
X340.36Y-203.2
X340.36Y-205.74
X340.36Y-208.28
X340.66Y-69.85
T3
X82.55Y-66.675
X82.55Y-75.565
X87.63Y-66.675
X87.63Y-75.565
X92.71Y-66.675
X92.71Y-75.565
M30
