<?xml version="1.0" encoding="UTF-8" standalone="no"?>
<!-- Created with Inkscape (http://www.inkscape.org/) -->

<svg
   width="210mm"
   height="297mm"
   viewBox="0 0 210 297"
   version="1.1"
   id="svg1"
   xml:space="preserve"
   inkscape:version="1.4 (86a8ad7, 2024-10-11)"
   sodipodi:docname="1_video_g.svg"
   xmlns:inkscape="http://www.inkscape.org/namespaces/inkscape"
   xmlns:sodipodi="http://sodipodi.sourceforge.net/DTD/sodipodi-0.dtd"
   xmlns="http://www.w3.org/2000/svg"
   xmlns:svg="http://www.w3.org/2000/svg"><sodipodi:namedview
     id="namedview1"
     pagecolor="#ffffff"
     bordercolor="#000000"
     borderopacity="0.25"
     inkscape:showpageshadow="2"
     inkscape:pageopacity="0.0"
     inkscape:pagecheckerboard="0"
     inkscape:deskcolor="#d1d1d1"
     inkscape:document-units="mm"
     inkscape:zoom="0.75962466"
     inkscape:cx="412.0456"
     inkscape:cy="652.29584"
     inkscape:window-width="1920"
     inkscape:window-height="1001"
     inkscape:window-x="-9"
     inkscape:window-y="-9"
     inkscape:window-maximized="1"
     inkscape:current-layer="layer1" /><defs
     id="defs1"><pattern
       id="EMFhbasepattern"
       patternUnits="userSpaceOnUse"
       width="6"
       height="6"
       x="0"
       y="0" /></defs><g
     inkscape:label="Layer 1"
     inkscape:groupmode="layer"
     id="layer1"><path
       style="font-size:12.6017px;font-family:FifteenTwenty;-inkscape-font-specification:FifteenTwenty;letter-spacing:0.0899583px;stroke:#000000;stroke-width:0"
       d="m 20.50024,145.70242 c -0.06301,0 -0.138618,0.0378 -0.176423,0.0756 l -1.171958,1.17196 c -0.05041,0.0378 -0.07561,0.12602 -0.07561,0.18903 0,0.15122 0.113416,0.26463 0.264636,0.26463 0.06301,0 0.15122,-0.0252 0.189026,-0.0756 l 0.718296,-0.71829 v 6.12442 h -0.907322 c -0.15122,0 -0.264636,0.11342 -0.264636,0.26464 0,0.15122 0.113416,0.26463 0.264636,0.26463 h 1.134153 0.0378 0.03781 1.134153 c 0.151221,0 0.264636,-0.11341 0.264636,-0.26463 0,-0.15122 -0.113415,-0.26464 -0.264636,-0.26464 h -0.907322 v -6.77971 c 0,-0.15122 -0.113416,-0.25204 -0.264636,-0.25204 z m 12.10113,0.25204 v 4.70043 c 0,0.063 0.0378,0.15122 0.07561,0.18903 l 2.343916,2.34391 c 0.0378,0.0378 0.126017,0.0756 0.189026,0.0756 0.06301,0 0.15122,-0.0378 0.189025,-0.0756 l 2.343916,-2.34391 c 0.03781,-0.0378 0.07561,-0.12602 0.07561,-0.18903 v -4.70043 c 0,-0.15122 -0.113416,-0.25204 -0.264636,-0.25204 -0.15122,0 -0.264636,0.10082 -0.264636,0.25204 v 4.58702 l -2.07928,2.07928 -2.079281,-2.07928 v -4.58702 c 0,-0.15122 -0.113415,-0.25204 -0.264635,-0.25204 -0.138619,0 -0.264636,0.11342 -0.264636,0.25204 z m 9.957092,-0.25204 h -0.0378 -1.134153 c -0.15122,0 -0.264636,0.11342 -0.264636,0.26464 0,0.15122 0.113416,0.26463 0.264636,0.26463 h 0.907322 v 6.50248 h -0.907322 c -0.15122,0 -0.264636,0.11342 -0.264636,0.26464 0,0.15122 0.113416,0.26463 0.264636,0.26463 h 1.134153 0.0378 0.0378 1.134153 c 0.151221,0 0.264636,-0.11341 0.264636,-0.26463 0,-0.15122 -0.113415,-0.26464 -0.264636,-0.26464 h -0.907322 v -6.50248 h 0.907322 c 0.151221,0 0.264636,-0.11341 0.264636,-0.26463 0,-0.15122 -0.113415,-0.26464 -0.264636,-0.26464 h -1.134153 z m 5.004623,0 c -0.15122,0 -0.264635,0.11342 -0.264635,0.26464 v 6.99394 0.0378 c 0,0.063 0.0378,0.15122 0.07561,0.18902 0.0378,0.0378 0.126017,0.0756 0.189025,0.0756 h 0.0378 3.47807 c 0.06301,0 0.15122,-0.0378 0.189025,-0.0756 l 1.171958,-1.17196 c 0.0378,-0.0378 0.07561,-0.12601 0.07561,-0.18902 v -4.68783 c 0,-0.063 -0.0378,-0.15122 -0.07561,-0.18903 l -1.171958,-1.17196 c -0.03781,-0.0378 -0.126017,-0.0756 -0.189025,-0.0756 z m 0.264636,0.52927 h 3.137823 l 1.020738,1.02074 v 4.461 l -1.020738,1.02074 h -3.137823 z m 7.083904,-0.52927 c -0.151221,0 -0.264636,0.11342 -0.264636,0.26464 v 3.46547 0.0504 0.0378 3.47807 c 0,0.15122 0.113415,0.26463 0.264636,0.26463 h 4.687832 c 0.15122,0 0.264636,-0.11341 0.264636,-0.26463 0,-0.15122 -0.113416,-0.26464 -0.264636,-0.26464 H 55.17626 v -2.9866 h 3.251239 c 0.15122,0 0.264636,-0.11342 0.264636,-0.26464 0,-0.15122 -0.113416,-0.26463 -0.264636,-0.26463 H 55.17626 v -2.98661 h 4.423197 c 0.15122,0 0.264636,-0.11341 0.264636,-0.26463 0,-0.15122 -0.113416,-0.26464 -0.264636,-0.26464 z m 8.520499,0 c -0.06301,0 -0.15122,0.0378 -0.189026,0.0756 l -1.171958,1.17196 c -0.0378,0.0378 -0.07561,0.12602 -0.07561,0.18903 v 4.65002 0.0378 c 0,0.0252 0.0126,0.0756 0.0252,0.10081 v 0.0126 c 0.0126,0.0378 0.05041,0.0756 0.07561,0.10082 l 1.146754,1.14675 c 0.03781,0.0378 0.126017,0.0756 0.189026,0.0756 h 2.343916 c 0.06301,0 0.151221,-0.0378 0.189026,-0.0756 l 1.171958,-1.17196 c 0.03781,-0.0378 0.07561,-0.12601 0.07561,-0.18902 v -4.68783 c 0,-0.063 -0.0378,-0.15122 -0.07561,-0.18903 l -1.171958,-1.17196 c -0.0378,-0.0378 -0.126017,-0.0756 -0.189026,-0.0756 z m 0.113415,0.52927 h 2.129688 l 1.008136,1.02074 v 4.461 l -1.008136,1.02074 h -2.129688 l -1.020737,-1.02074 v -4.461 z m 14.583664,-0.52927 c -0.06301,0 -0.151221,0.0378 -0.189026,0.0756 l -1.171958,1.17196 c -0.03781,0.0378 -0.07561,0.12602 -0.07561,0.18903 v 4.68783 c 0,0.063 0.0378,0.15122 0.07561,0.18902 l 1.171958,1.17196 c 0.0378,0.0378 0.126017,0.0756 0.189026,0.0756 h 3.515874 c 0.15122,0 0.264636,-0.11341 0.264636,-0.26463 v -3.51588 c 0,-0.15122 -0.113416,-0.26463 -0.264636,-0.26463 h -2.343916 c -0.151221,0 -0.264636,0.11341 -0.264636,0.26463 0,0.15122 0.113415,0.26464 0.264636,0.26464 h 2.07928 v 2.9866 h -3.137823 l -1.020738,-1.02074 v -4.461 l 1.020738,-1.02074 h 2.117086 l 1.096347,1.09635 c 0.03781,0.0378 0.126017,0.0756 0.189026,0.0756 0.15122,0 0.264636,-0.11341 0.264636,-0.26463 0,-0.063 -0.0378,-0.15122 -0.07561,-0.18903 l -1.171958,-1.17196 c -0.0378,-0.0378 -0.126017,-0.0756 -0.189025,-0.0756 z m 15.856435,0 c -0.06301,0 -0.138619,0.0378 -0.176424,0.0756 l -1.171958,1.17196 c -0.05041,0.0378 -0.07561,0.12602 -0.07561,0.18903 0,0.15122 0.113415,0.26463 0.264635,0.26463 0.06301,0 0.151221,-0.0252 0.189026,-0.0756 l 0.718297,-0.71829 v 6.12442 h -0.907323 c -0.15122,0 -0.264635,0.11342 -0.264635,0.26464 0,0.15122 0.113415,0.26463 0.264635,0.26463 h 1.134153 0.0378 0.03781 1.134153 c 0.15122,0 0.264635,-0.11341 0.264635,-0.26463 0,-0.15122 -0.113415,-0.26464 -0.264635,-0.26464 h -0.907323 v -6.77971 c 0,-0.15122 -0.113415,-0.25204 -0.264636,-0.25204 z m 6.189182,0 c -0.063,0 -0.15122,0.0378 -0.189023,0.0756 l -1.171958,1.17196 c -0.03781,0.0378 -0.07561,0.12602 -0.07561,0.18903 v 1.17195 c 0,0.063 0.0378,0.15123 0.07561,0.18903 l 1.171958,1.17196 c 0.0378,0.0378 0.126013,0.0756 0.189023,0.0756 h 2.34392 c 0.063,0 0.15122,-0.0378 0.18902,-0.0756 l 0.7183,-0.7183 v 2.75977 l -1.02074,1.02074 h -2.11708 l -1.09635,-1.09635 c -0.03781,-0.0378 -0.126017,-0.0756 -0.189025,-0.0756 -0.151221,0 -0.264636,0.11342 -0.264636,0.26464 0,0.063 0.0378,0.15122 0.07561,0.18902 l 1.171958,1.17196 c 0.0378,0.0378 0.126013,0.0756 0.189023,0.0756 h 2.34392 c 0.063,0 0.15122,-0.0378 0.18902,-0.0756 l 1.17196,-1.17196 c 0.0378,-0.0378 0.0756,-0.12601 0.0756,-0.18902 v -3.49067 -0.0252 -0.0378 -1.13415 c 0,-0.063 -0.0378,-0.15122 -0.0756,-0.18903 l -1.17196,-1.17196 c -0.0378,-0.0378 -0.12601,-0.0756 -0.18902,-0.0756 z m 0.11342,0.52927 h 2.11708 l 1.02074,1.02074 v 0.94513 l -1.02074,1.02074 h -2.11708 l -1.02074,-1.02074 v -0.94513 z m 14.58367,-0.52927 c -0.063,0 -0.15123,0.0378 -0.18903,0.0756 l -1.17196,1.17196 c -0.0378,0.0378 -0.0756,0.12602 -0.0756,0.18903 v 1.17195 c 0,0.063 0.0378,0.15123 0.0756,0.18903 l 1.17196,1.17196 c 0.0378,0.0378 0.12602,0.0756 0.18903,0.0756 h 2.34391 c 0.063,0 0.15122,-0.0378 0.18903,-0.0756 l 0.71829,-0.7183 v 2.75977 l -1.02073,1.02074 h -2.11709 l -1.09635,-1.09635 c -0.0378,-0.0378 -0.12601,-0.0756 -0.18902,-0.0756 -0.15122,0 -0.26464,0.11342 -0.26464,0.26464 0,0.063 0.0378,0.15122 0.0756,0.18902 l 1.17196,1.17196 c 0.0378,0.0378 0.12602,0.0756 0.18903,0.0756 h 2.34391 c 0.063,0 0.15122,-0.0378 0.18903,-0.0756 l 1.17195,-1.17196 c 0.0378,-0.0378 0.0756,-0.12601 0.0756,-0.18902 v -3.49067 -0.0252 -0.0378 -1.13415 c 0,-0.063 -0.0378,-0.15122 -0.0756,-0.18903 l -1.17195,-1.17196 c -0.0378,-0.0378 -0.12602,-0.0756 -0.18903,-0.0756 z m 0.11341,0.52927 h 2.11709 l 1.02073,1.02074 v 0.94513 l -1.02073,1.02074 h -2.11709 l -1.02074,-1.02074 v -0.94513 z m 6.06317,-0.52927 c -0.15122,0 -0.26464,0.11342 -0.26464,0.26464 0,0.15122 0.11342,0.26463 0.26464,0.26463 h 4.42319 v 1.96587 l -4.61222,4.61222 c -0.0504,0.0378 -0.0756,0.12602 -0.0756,0.18903 0,0.15122 0.11342,0.26463 0.26464,0.26463 0.063,0 0.15122,-0.0252 0.18902,-0.0756 L 125.92535,148.5 c 0.0378,-0.0378 0.0756,-0.12602 0.0756,-0.18903 v -2.34391 c 0,-0.15122 -0.11342,-0.26464 -0.26464,-0.26464 z m 10.8518,0 c -0.063,0 -0.13861,0.0378 -0.17642,0.0756 l -3.51587,3.51588 c -0.0378,0.0378 -0.0756,0.12601 -0.0756,0.18902 v 1.17196 c 0,0.15122 0.11341,0.26464 0.26463,0.26464 h 3.25124 v 2.07928 c 0,0.15122 0.11342,0.26463 0.26464,0.26463 0.15122,0 0.26463,-0.11341 0.26463,-0.26463 v -2.07928 h 0.90732 c 0.15122,0 0.26464,-0.11342 0.26464,-0.26464 0,-0.15122 -0.11342,-0.26463 -0.26464,-0.26463 h -0.90732 v -4.4358 c 0,-0.15122 -0.11341,-0.25204 -0.26463,-0.25204 z m -0.25203,0.90733 v 3.78051 h -2.9866 v -0.79391 z m 12.6178,-0.90733 c -0.063,0 -0.15122,0.0378 -0.18902,0.0756 l -1.17196,1.17196 c -0.0378,0.0378 -0.0756,0.12602 -0.0756,0.18903 v 4.65002 0.0378 c 0,0.0756 0.0504,0.17642 0.11341,0.21423 l 1.13416,1.14675 c 0.0378,0.0378 0.12601,0.0756 0.18902,0.0756 h 2.34392 c 0.063,0 0.15122,-0.0378 0.18902,-0.0756 l 1.17196,-1.17196 c 0.0378,-0.0378 0.0756,-0.12601 0.0756,-0.18902 v -4.68783 -0.0126 c 0,-0.0756 -0.0504,-0.16383 -0.10081,-0.20163 l -1.14676,-1.14676 c -0.0378,-0.0378 -0.12601,-0.0756 -0.18902,-0.0756 z m 0.11342,0.52927 h 2.11708 l 0.90733,0.90733 -4.04515,4.04514 v -3.93173 z m 3.13782,1.55001 v 3.93173 l -1.02074,1.02074 h -2.11708 l -0.90732,-0.90732 z m 6.42861,-2.07928 c -0.063,0 -0.13862,0.0378 -0.17642,0.0756 l -3.51588,3.51588 c -0.0378,0.0378 -0.0756,0.12601 -0.0756,0.18902 v 1.17196 c 0,0.15122 0.11342,0.26464 0.26464,0.26464 h 3.25124 v 2.07928 c 0,0.15122 0.11341,0.26463 0.26463,0.26463 0.15122,0 0.26464,-0.11341 0.26464,-0.26463 v -2.07928 h 0.90732 c 0.15122,0 0.26464,-0.11342 0.26464,-0.26464 0,-0.15122 -0.11342,-0.26463 -0.26464,-0.26463 h -0.90732 v -4.4358 c 0,-0.15122 -0.11342,-0.25204 -0.26464,-0.25204 z m -0.25203,0.90733 v 3.78051 h -2.98661 v -0.79391 z m 7.60057,-0.90733 c -0.063,0 -0.13862,0.0378 -0.17642,0.0756 l -3.51588,3.51588 c -0.0378,0.0378 -0.0756,0.12601 -0.0756,0.18902 v 1.17196 c 0,0.15122 0.11342,0.26464 0.26464,0.26464 h 3.25124 v 2.07928 c 0,0.15122 0.11341,0.26463 0.26463,0.26463 0.15122,0 0.26464,-0.11341 0.26464,-0.26463 v -2.07928 h 0.90732 c 0.15122,0 0.26464,-0.11342 0.26464,-0.26464 0,-0.15122 -0.11342,-0.26463 -0.26464,-0.26463 h -0.90732 v -4.4358 c 0,-0.15122 -0.11342,-0.25204 -0.26464,-0.25204 z m -0.25203,0.90733 v 3.78051 h -2.9866 v -0.79391 z m 12.6178,-0.90733 c -0.063,0 -0.15122,0.0378 -0.18903,0.0756 l -1.17195,1.17196 c -0.0378,0.0378 -0.0756,0.12602 -0.0756,0.18903 v 4.68783 c 0,0.063 0.0378,0.15122 0.0756,0.18902 l 1.17195,1.17196 c 0.0378,0.0378 0.12602,0.0756 0.18903,0.0756 h 2.34392 c 0.063,0 0.15122,-0.0378 0.18902,-0.0756 l 1.17196,-1.17196 c 0.0378,-0.0378 0.0756,-0.12601 0.0756,-0.18902 0,-0.15122 -0.11342,-0.26464 -0.26464,-0.26464 -0.063,0 -0.15122,0.0378 -0.18902,0.0756 l -1.09635,1.09635 h -2.11708 l -1.02074,-1.02074 v -4.461 l 1.02074,-1.02074 h 2.11708 l 1.09635,1.09635 c 0.0378,0.0378 0.12602,0.0756 0.18902,0.0756 0.15122,0 0.26464,-0.11341 0.26464,-0.26463 0,-0.063 -0.0378,-0.15122 -0.0756,-0.18903 l -1.17196,-1.17196 c -0.0378,-0.0378 -0.12602,-0.0756 -0.18902,-0.0756 z"
       id="text1-1"
       aria-label="1 VIDEO G 19 974 044 C" /><text
       xml:space="preserve"
       style="font-size:3.175px;font-family:FifteenTwenty;-inkscape-font-specification:FifteenTwenty;text-align:start;letter-spacing:-2.42094px;writing-mode:lr-tb;direction:ltr;text-anchor:start;fill:#000000;stroke:#000000;stroke-width:0"
       x="56.75705"
       y="178.42242"
       id="text1"><tspan
         sodipodi:role="line"
         id="tspan1"
         style="stroke-width:0"
         x="56.75705"
         y="178.42242" /></text></g></svg>
