<?xml version="1.0" encoding="UTF-8" standalone="no"?>
<!-- Created with Inkscape (http://www.inkscape.org/) -->

<svg
   width="210mm"
   height="297mm"
   viewBox="0 0 210 297"
   version="1.1"
   id="svg1"
   xml:space="preserve"
   inkscape:version="1.4 (86a8ad7, 2024-10-11)"
   sodipodi:docname="1_video_g_W.svg"
   xmlns:inkscape="http://www.inkscape.org/namespaces/inkscape"
   xmlns:sodipodi="http://sodipodi.sourceforge.net/DTD/sodipodi-0.dtd"
   xmlns="http://www.w3.org/2000/svg"
   xmlns:svg="http://www.w3.org/2000/svg"><sodipodi:namedview
     id="namedview1"
     pagecolor="#ffffff"
     bordercolor="#000000"
     borderopacity="0.25"
     inkscape:showpageshadow="2"
     inkscape:pageopacity="0.0"
     inkscape:pagecheckerboard="0"
     inkscape:deskcolor="#d1d1d1"
     inkscape:document-units="mm"
     inkscape:zoom="0.75962466"
     inkscape:cx="412.0456"
     inkscape:cy="652.29583"
     inkscape:window-width="1920"
     inkscape:window-height="1001"
     inkscape:window-x="-9"
     inkscape:window-y="-9"
     inkscape:window-maximized="1"
     inkscape:current-layer="layer1" /><defs
     id="defs1"><pattern
       id="EMFhbasepattern"
       patternUnits="userSpaceOnUse"
       width="6"
       height="6"
       x="0"
       y="0" /></defs><g
     inkscape:label="Layer 1"
     inkscape:groupmode="layer"
     id="layer1"><path
       style="font-size:12.6017px;font-family:FifteenTwenty;-inkscape-font-specification:FifteenTwenty;letter-spacing:0.0899583px;stroke:#000000;stroke-width:0"
       d="m 182.75025,143.26426 c 0.063,0 0.13861,0.0378 0.17642,0.0756 l 1.17195,1.17196 c 0.0504,0.0378 0.0756,0.12602 0.0756,0.18903 0,0.15122 -0.11341,0.26463 -0.26463,0.26463 -0.063,0 -0.15122,-0.0252 -0.18903,-0.0756 l -0.71829,-0.71829 v 6.12442 h 0.90732 c 0.15122,0 0.26463,0.11342 0.26463,0.26464 0,0.15122 -0.11341,0.26463 -0.26463,0.26463 h -1.13415 -0.0378 -0.0378 -1.13415 c -0.15122,0 -0.26464,-0.11341 -0.26464,-0.26463 0,-0.15122 0.11342,-0.26464 0.26464,-0.26464 h 0.90732 v -6.77971 c 0,-0.15122 0.11341,-0.25204 0.26463,-0.25204 z m -12.1011,0.25204 v 4.70043 c 0,0.063 -0.0378,0.15122 -0.0756,0.18903 l -2.34391,2.34391 c -0.0378,0.0378 -0.12601,0.0756 -0.18902,0.0756 -0.063,0 -0.15122,-0.0378 -0.18903,-0.0756 l -2.3439,-2.34391 c -0.0378,-0.0378 -0.0756,-0.12602 -0.0756,-0.18903 v -4.70043 c 0,-0.15122 0.11341,-0.25204 0.26463,-0.25204 0.15122,0 0.26464,0.10082 0.26464,0.25204 v 4.58702 l 2.07927,2.07928 2.07927,-2.07928 v -4.58702 c 0,-0.15122 0.11342,-0.25204 0.26464,-0.25204 0.13862,0 0.26463,0.11342 0.26463,0.25204 z m -9.95706,-0.25204 h 0.0378 1.13415 c 0.15122,0 0.26464,0.11342 0.26464,0.26464 0,0.15122 -0.11342,0.26463 -0.26464,0.26463 h -0.90732 v 6.50248 h 0.90732 c 0.15122,0 0.26464,0.11342 0.26464,0.26464 0,0.15122 -0.11342,0.26463 -0.26464,0.26463 h -1.13415 -0.0378 -0.0378 -1.13415 c -0.15122,0 -0.26463,-0.11341 -0.26463,-0.26463 0,-0.15122 0.11341,-0.26464 0.26463,-0.26464 h 0.90732 v -6.50248 h -0.90732 c -0.15122,0 -0.26463,-0.11341 -0.26463,-0.26463 0,-0.15122 0.11341,-0.26464 0.26463,-0.26464 h 1.13415 z m -5.00461,0 c 0.15122,0 0.26464,0.11342 0.26464,0.26464 v 6.99394 0.0378 c 0,0.063 -0.0378,0.15122 -0.0756,0.18902 -0.0378,0.0378 -0.12602,0.0756 -0.18903,0.0756 h -0.0378 -3.47806 c -0.063,0 -0.15121,-0.0378 -0.18902,-0.0756 l -1.17195,-1.17196 c -0.0378,-0.0378 -0.0756,-0.12601 -0.0756,-0.18902 v -4.68783 c 0,-0.063 0.0378,-0.15122 0.0756,-0.18903 l 1.17195,-1.17196 c 0.0378,-0.0378 0.12602,-0.0756 0.18902,-0.0756 z m -0.26463,0.52927 h -3.13781 l -1.02074,1.02074 v 4.461 l 1.02074,1.02074 h 3.13781 z m -7.08388,-0.52927 c 0.15122,0 0.26463,0.11342 0.26463,0.26464 v 3.46547 0.0504 0.0378 3.47807 c 0,0.15122 -0.11341,0.26463 -0.26463,0.26463 h -4.68782 c -0.15122,0 -0.26464,-0.11341 -0.26464,-0.26463 0,-0.15122 0.11342,-0.26464 0.26464,-0.26464 h 4.42318 v -2.9866 h -3.25123 c -0.15122,0 -0.26463,-0.11342 -0.26463,-0.26464 0,-0.15122 0.11341,-0.26463 0.26463,-0.26463 h 3.25123 v -2.98661 h -4.42318 c -0.15122,0 -0.26464,-0.11341 -0.26464,-0.26463 0,-0.15122 0.11342,-0.26464 0.26464,-0.26464 z m -8.52048,0 c 0.063,0 0.15122,0.0378 0.18903,0.0756 l 1.17195,1.17196 c 0.0378,0.0378 0.0756,0.12602 0.0756,0.18903 v 4.65002 0.0378 c 0,0.0252 -0.0126,0.0756 -0.0252,0.10081 v 0.0126 c -0.0126,0.0378 -0.0504,0.0756 -0.0756,0.10082 l -1.14675,1.14675 c -0.0378,0.0378 -0.12601,0.0756 -0.18902,0.0756 h -2.34391 c -0.063,0 -0.15122,-0.0378 -0.18903,-0.0756 l -1.17195,-1.17196 c -0.0378,-0.0378 -0.0756,-0.12601 -0.0756,-0.18902 v -4.68783 c 0,-0.063 0.0378,-0.15122 0.0756,-0.18903 l 1.17195,-1.17196 c 0.0378,-0.0378 0.12602,-0.0756 0.18903,-0.0756 z m -0.11341,0.52927 h -2.12968 l -1.00814,1.02074 v 4.461 l 1.00814,1.02074 h 2.12968 l 1.02073,-1.02074 v -4.461 z m -14.58362,-0.52927 c 0.063,0 0.15122,0.0378 0.18902,0.0756 l 1.17196,1.17196 c 0.0378,0.0378 0.0756,0.12602 0.0756,0.18903 v 4.68783 c 0,0.063 -0.0378,0.15122 -0.0756,0.18902 l -1.17196,1.17196 c -0.0378,0.0378 -0.12601,0.0756 -0.18902,0.0756 h -3.51586 c -0.15122,0 -0.26464,-0.11341 -0.26464,-0.26463 v -3.51588 c 0,-0.15122 0.11342,-0.26463 0.26464,-0.26463 h 2.3439 c 0.15122,0 0.26464,0.11341 0.26464,0.26463 0,0.15122 -0.11342,0.26464 -0.26464,0.26464 h -2.07927 v 2.9866 h 3.13781 l 1.02074,-1.02074 v -4.461 l -1.02074,-1.02074 h -2.11708 l -1.09634,1.09635 c -0.0378,0.0378 -0.12602,0.0756 -0.18902,0.0756 -0.15122,0 -0.26464,-0.11341 -0.26464,-0.26463 0,-0.063 0.0378,-0.15122 0.0756,-0.18903 l 1.17195,-1.17196 c 0.0378,-0.0378 0.12602,-0.0756 0.18903,-0.0756 z m -15.85639,0 c 0.063,0 0.13862,0.0378 0.17643,0.0756 l 1.17195,1.17196 c 0.0504,0.0378 0.0756,0.12602 0.0756,0.18903 0,0.15122 -0.11341,0.26463 -0.26463,0.26463 -0.063,0 -0.15123,-0.0252 -0.18903,-0.0756 l -0.71829,-0.71829 v 6.12442 h 0.90732 c 0.15122,0 0.26463,0.11342 0.26463,0.26464 0,0.15122 -0.11341,0.26463 -0.26463,0.26463 h -1.13415 -0.0378 -0.0378 -1.13415 c -0.15122,0 -0.26464,-0.11341 -0.26464,-0.26463 0,-0.15122 0.11342,-0.26464 0.26464,-0.26464 h 0.90732 v -6.77971 c 0,-0.15122 0.11341,-0.25204 0.26463,-0.25204 z m -6.18916,0 c 0.063,0 0.15122,0.0378 0.18902,0.0756 l 1.17196,1.17196 c 0.0378,0.0378 0.0756,0.12602 0.0756,0.18903 v 1.17195 c 0,0.063 -0.0378,0.15123 -0.0756,0.18903 l -1.17196,1.17196 c -0.0378,0.0378 -0.12601,0.0756 -0.18902,0.0756 H 100.732 c -0.063,0 -0.15122,-0.0378 -0.18902,-0.0756 l -0.718302,-0.7183 v 2.75977 l 1.020742,1.02074 h 2.11707 l 1.09635,-1.09635 c 0.0378,-0.0378 0.12601,-0.0756 0.18902,-0.0756 0.15122,0 0.26464,0.11342 0.26464,0.26464 0,0.063 -0.0378,0.15122 -0.0756,0.18902 l -1.17196,1.17196 c -0.0378,0.0378 -0.12601,0.0756 -0.18902,0.0756 H 100.732 c -0.063,0 -0.15122,-0.0378 -0.18902,-0.0756 l -1.17196,-1.17196 c -0.0378,-0.0378 -0.0756,-0.12601 -0.0756,-0.18902 v -3.49067 -0.0252 -0.0378 -1.13415 c 0,-0.063 0.0378,-0.15122 0.0756,-0.18903 l 1.17196,-1.17196 c 0.0378,-0.0378 0.12601,-0.0756 0.18902,-0.0756 z m -0.11342,0.52927 h -2.11707 l -1.020742,1.02074 v 0.94513 l 1.020742,1.02074 h 2.11707 l 1.02074,-1.02074 v -0.94513 z m -14.583627,-0.52927 c 0.063,0 0.15123,0.0378 0.189029,0.0756 l 1.171957,1.17196 c 0.0378,0.0378 0.0756,0.12602 0.0756,0.18903 v 1.17195 c 0,0.063 -0.0378,0.15123 -0.0756,0.18903 l -1.171957,1.17196 c -0.0378,0.0378 -0.126019,0.0756 -0.189029,0.0756 H 86.03496 c -0.063,0 -0.151219,-0.0378 -0.189029,-0.0756 l -0.718288,-0.7183 v 2.75977 l 1.020727,1.02074 h 2.117083 l 1.096347,-1.09635 c 0.0378,-0.0378 0.12601,-0.0756 0.189019,-0.0756 0.15122,0 0.26464,0.11342 0.26464,0.26464 0,0.063 -0.0378,0.15122 -0.0756,0.18902 l -1.171957,1.17196 c -0.0378,0.0378 -0.126019,0.0756 -0.189029,0.0756 H 86.03497 c -0.063,0 -0.151219,-0.0378 -0.189029,-0.0756 l -1.171947,-1.17196 c -0.0378,-0.0378 -0.0756,-0.12601 -0.0756,-0.18902 v -3.49067 -0.0252 -0.0378 -1.13415 c 0,-0.063 0.0378,-0.15122 0.0756,-0.18903 l 1.171947,-1.17196 c 0.0378,-0.0378 0.126019,-0.0756 0.189029,-0.0756 z m -0.11341,0.52927 H 86.14837 l -1.020727,1.02074 v 0.94513 l 1.020727,1.02074 h 2.117083 l 1.020737,-1.02074 v -0.94513 z m -6.063151,-0.52927 c 0.151219,0 0.264639,0.11342 0.264639,0.26464 0,0.15122 -0.11342,0.26463 -0.264639,0.26463 h -4.423177 v 1.96587 l 4.612206,4.61222 c 0.0504,0.0378 0.0756,0.12602 0.0756,0.18903 0,0.15122 -0.11342,0.26463 -0.264639,0.26463 -0.063,0 -0.15122,-0.0252 -0.18902,-0.0756 l -4.687815,-4.68784 c -0.0378,-0.0378 -0.0756,-0.12602 -0.0756,-0.18903 v -2.34391 c 0,-0.15122 0.113419,-0.26464 0.264639,-0.26464 z m -10.851767,0 c 0.063,0 0.138609,0.0378 0.176419,0.0756 l 3.515859,3.51588 c 0.0378,0.0378 0.0756,0.12601 0.0756,0.18902 v 1.17196 c 0,0.15122 -0.113409,0.26464 -0.264629,0.26464 h -3.25123 v 2.07928 c 0,0.15122 -0.11342,0.26463 -0.264639,0.26463 -0.15122,0 -0.264629,-0.11341 -0.264629,-0.26463 v -2.07928 h -0.907318 c -0.151219,0 -0.264639,-0.11342 -0.264639,-0.26464 0,-0.15122 0.11342,-0.26463 0.264639,-0.26463 h 0.907318 v -4.4358 c 0,-0.15122 0.113409,-0.25204 0.264629,-0.25204 z m 0.252029,0.90733 v 3.78051 h 2.986591 v -0.79391 z m -12.61776,-0.90733 c 0.063,0 0.15122,0.0378 0.18902,0.0756 l 1.17195,1.17196 c 0.0378,0.0378 0.0756,0.12602 0.0756,0.18903 v 4.65002 0.0378 c 0,0.0756 -0.0504,0.17642 -0.11341,0.21423 l -1.13415,1.14675 c -0.0378,0.0378 -0.12601,0.0756 -0.18902,0.0756 h -2.34391 c -0.063,0 -0.15122,-0.0378 -0.18902,-0.0756 l -1.17196,-1.17196 c -0.0378,-0.0378 -0.0756,-0.12601 -0.0756,-0.18902 v -4.68783 -0.0126 c 0,-0.0756 0.0504,-0.16383 0.10081,-0.20163 l 1.14676,-1.14676 c 0.0378,-0.0378 0.12601,-0.0756 0.18902,-0.0756 z m -0.11342,0.52927 h -2.11707 l -0.90733,0.90733 4.04514,4.04514 v -3.93173 z m -3.13781,1.55001 v 3.93173 l 1.02074,1.02074 h 2.11707 l 0.90732,-0.90732 z m -6.42859,-2.07928 c 0.063,0 0.13862,0.0378 0.17642,0.0756 l 3.51587,3.51588 c 0.0378,0.0378 0.0756,0.12601 0.0756,0.18902 v 1.17196 c 0,0.15122 -0.11342,0.26464 -0.26464,0.26464 h -3.25123 v 2.07928 c 0,0.15122 -0.11341,0.26463 -0.26463,0.26463 -0.15122,0 -0.26464,-0.11341 -0.26464,-0.26463 v -2.07928 h -0.90732 c -0.15122,0 -0.26464,-0.11342 -0.26464,-0.26464 0,-0.15122 0.11342,-0.26463 0.26464,-0.26463 h 0.90732 v -4.4358 c 0,-0.15122 0.11342,-0.25204 0.26464,-0.25204 z m 0.25203,0.90733 v 3.78051 h 2.9866 v -0.79391 z m -7.60055,-0.90733 c 0.063,0 0.13862,0.0378 0.17642,0.0756 l 3.51587,3.51588 c 0.0378,0.0378 0.0756,0.12601 0.0756,0.18902 v 1.17196 c 0,0.15122 -0.11342,0.26464 -0.26464,0.26464 h -3.25123 v 2.07928 c 0,0.15122 -0.11341,0.26463 -0.26463,0.26463 -0.15122,0 -0.26464,-0.11341 -0.26464,-0.26463 v -2.07928 h -0.90732 c -0.15122,0 -0.26464,-0.11342 -0.26464,-0.26464 0,-0.15122 0.11342,-0.26463 0.26464,-0.26463 h 0.90732 v -4.4358 c 0,-0.15122 0.11342,-0.25204 0.26464,-0.25204 z m 0.25203,0.90733 v 3.78051 h 2.98659 v -0.79391 z m -11.18118,-0.65529 v 7.04435 c 0,0.15122 -0.11341,0.26463 -0.26463,0.26463 -0.063,0 -0.15122,-0.0378 -0.18903,-0.0756 l -2.15488,-2.15489 -2.15488,2.15489 c -0.0378,0.0378 -0.12602,0.0756 -0.18902,0.0756 -0.15122,0 -0.26464,-0.11341 -0.26464,-0.26463 v -7.04435 c 0,-0.15122 0.11342,-0.25204 0.26464,-0.25204 0.15122,0 0.26463,0.10082 0.26463,0.25204 v 6.40166 l 1.81464,-1.81464 v -1.05855 c 0,-0.15122 0.11341,-0.26463 0.26463,-0.26463 0.15122,0 0.26464,0.11341 0.26464,0.26463 v 1.05855 l 1.81463,1.81464 v -6.40166 c 0,-0.15122 0.11342,-0.25204 0.26464,-0.25204 0.13862,0 0.26463,0.11342 0.26463,0.25204 z"
       id="text1-1"
       aria-label="1 VIDEO G 19 974 044 W" /><text
       xml:space="preserve"
       style="font-size:3.175px;font-family:FifteenTwenty;-inkscape-font-specification:FifteenTwenty;text-align:start;letter-spacing:-2.42094px;writing-mode:lr-tb;direction:ltr;text-anchor:start;fill:#000000;stroke:#000000;stroke-width:0"
       x="56.75705"
       y="178.42242"
       id="text1"><tspan
         sodipodi:role="line"
         id="tspan1"
         style="stroke-width:0"
         x="56.75705"
         y="178.42242" /></text></g></svg>
