<?xml version="1.0" encoding="UTF-8" standalone="no"?>
<!-- Created with Inkscape (http://www.inkscape.org/) -->

<svg
   width="210mm"
   height="297mm"
   viewBox="0 0 210 297"
   version="1.1"
   id="svg1"
   xml:space="preserve"
   inkscape:version="1.4 (86a8ad7, 2024-10-11)"
   sodipodi:docname="iskra-delta_racunalniski_sistemi_2.svg"
   xmlns:inkscape="http://www.inkscape.org/namespaces/inkscape"
   xmlns:sodipodi="http://sodipodi.sourceforge.net/DTD/sodipodi-0.dtd"
   xmlns="http://www.w3.org/2000/svg"
   xmlns:svg="http://www.w3.org/2000/svg"><sodipodi:namedview
     id="namedview1"
     pagecolor="#ffffff"
     bordercolor="#000000"
     borderopacity="0.25"
     inkscape:showpageshadow="2"
     inkscape:pageopacity="0.0"
     inkscape:pagecheckerboard="0"
     inkscape:deskcolor="#d1d1d1"
     inkscape:document-units="mm"
     inkscape:zoom="0.67819316"
     inkscape:cx="461.52043"
     inkscape:cy="512.39089"
     inkscape:window-width="1920"
     inkscape:window-height="1001"
     inkscape:window-x="-9"
     inkscape:window-y="-9"
     inkscape:window-maximized="1"
     inkscape:current-layer="layer1" /><defs
     id="defs1"><pattern
       id="EMFhbasepattern"
       patternUnits="userSpaceOnUse"
       width="6"
       height="6"
       x="0"
       y="0" /></defs><g
     inkscape:label="Layer 1"
     inkscape:groupmode="layer"
     id="layer1"><path
       style="font-size:12.6017px;font-family:FifteenTwenty;-inkscape-font-specification:FifteenTwenty;letter-spacing:0.0899583px;stroke:#000000;stroke-width:0"
       d="m 20.512842,145.70242 h -0.0378 -1.134153 c -0.15122,0 -0.264636,0.11342 -0.264636,0.26464 0,0.15122 0.113416,0.26463 0.264636,0.26463 h 0.907322 v 6.50248 h -0.907322 c -0.15122,0 -0.264636,0.11342 -0.264636,0.26464 0,0.15122 0.113416,0.26463 0.264636,0.26463 h 1.134153 0.0378 0.03781 1.134153 c 0.151221,0 0.264636,-0.11341 0.264636,-0.26463 0,-0.15122 -0.113415,-0.26464 -0.264636,-0.26464 h -0.907322 v -6.50248 H 21.6848 c 0.151221,0 0.264636,-0.11341 0.264636,-0.26463 0,-0.15122 -0.113415,-0.26464 -0.264636,-0.26464 h -1.134153 z m 6.176582,0 c -0.06301,0 -0.151221,0.0378 -0.189026,0.0756 l -1.171958,1.17196 c -0.0378,0.0378 -0.07561,0.12602 -0.07561,0.18903 v 1.17195 c 0,0.063 0.03781,0.15123 0.07561,0.18903 l 1.171958,1.17196 c 0.0378,0.0378 0.126017,0.0756 0.189026,0.0756 h 2.230501 l 1.020737,1.02074 v 0.94512 l -1.020737,1.02074 h -2.117086 l -1.096348,-1.09635 c -0.0378,-0.0378 -0.126017,-0.0756 -0.189025,-0.0756 -0.151221,0 -0.264636,0.11342 -0.264636,0.26464 0,0.063 0.03781,0.15122 0.07561,0.18902 l 1.171958,1.17196 c 0.0378,0.0378 0.126017,0.0756 0.189026,0.0756 h 2.343916 c 0.06301,0 0.15122,-0.0378 0.189026,-0.0756 l 1.171958,-1.17196 c 0.0378,-0.0378 0.07561,-0.12601 0.07561,-0.18902 v -1.17196 c 0,-0.063 -0.0378,-0.15122 -0.07561,-0.18902 l -1.171958,-1.17196 c -0.03781,-0.0378 -0.126017,-0.0756 -0.189026,-0.0756 h -2.230501 l -1.020738,-1.02074 v -0.94513 l 1.020738,-1.02074 h 2.117086 l 1.096348,1.09635 c 0.0378,0.0378 0.126017,0.0756 0.189025,0.0756 0.15122,0 0.264636,-0.11341 0.264636,-0.26463 0,-0.063 -0.0378,-0.15122 -0.07561,-0.18903 l -1.171958,-1.17196 c -0.03781,-0.0378 -0.126017,-0.0756 -0.189026,-0.0756 z m 5.911946,0.25204 v 4.66263 0.0378 0.0378 2.30611 c 0,0.15122 0.113415,0.26463 0.264636,0.26463 0.15122,0 0.264635,-0.11341 0.264635,-0.26463 v -2.2305 l 0.907323,-0.90733 3.326848,3.32685 c 0.03781,0.0504 0.126017,0.0756 0.189026,0.0756 0.15122,0 0.264636,-0.11341 0.264636,-0.26463 0,-0.063 -0.0252,-0.15122 -0.07561,-0.18903 l -3.326848,-3.32685 3.326848,-3.32685 c 0.03781,-0.0378 0.07561,-0.13861 0.07561,-0.20162 0,-0.15122 -0.113416,-0.25204 -0.264636,-0.25204 -0.06301,0 -0.15122,0.0378 -0.189026,0.0756 l -3.478069,3.49067 c -0.0252,0.0126 -0.05041,0.0252 -0.06301,0.0504 l -0.693094,0.69309 v -4.05774 c 0,-0.15122 -0.113415,-0.25204 -0.264635,-0.25204 -0.138619,0 -0.264636,0.11342 -0.264636,0.25204 z m 7.613176,-0.25204 c -0.15122,0 -0.264636,0.11342 -0.264636,0.26464 v 3.46547 0.0504 0.0378 3.47807 c 0,0.15122 0.113416,0.26463 0.264636,0.26463 0.15122,0 0.264636,-0.11341 0.264636,-0.26463 v -3.25124 h 0.793907 l 3.440264,3.44026 c 0.0378,0.0504 0.126017,0.0756 0.189025,0.0756 0.151221,0 0.264636,-0.11341 0.264636,-0.26463 0,-0.063 -0.0252,-0.15122 -0.07561,-0.18903 l -3.062213,-3.06221 h 1.701229 c 0.06301,0 0.151221,-0.0378 0.189026,-0.0756 L 45.091404,148.5 c 0.03781,-0.0378 0.07561,-0.12602 0.07561,-0.18903 v -1.17195 c 0,-0.063 -0.0378,-0.15122 -0.07561,-0.18903 l -1.171958,-1.17196 c -0.0378,-0.0378 -0.126017,-0.0756 -0.189026,-0.0756 z m 0.264636,0.52927 h 3.137823 l 1.020738,1.02074 v 0.94513 l -1.020738,1.02074 h -2.192696 -0.0378 -0.0378 -0.869517 z m 9.238794,-0.45366 -2.343916,2.34392 c -0.0378,0.0378 -0.07561,0.12602 -0.07561,0.18902 v 1.12156 0.0504 0.0378 3.47807 c 0,0.15122 0.113415,0.26463 0.264635,0.26463 0.151221,0 0.264636,-0.11341 0.264636,-0.26463 v -3.25124 h 4.158561 v 3.25124 c 0,0.15122 0.113415,0.26463 0.264636,0.26463 0.15122,0 0.264635,-0.11341 0.264635,-0.26463 v -3.47807 -0.0378 -0.0378 -1.13416 c 0,-0.063 -0.0378,-0.15122 -0.07561,-0.18902 l -2.343916,-2.34392 c -0.0378,-0.0378 -0.126017,-0.0756 -0.189026,-0.0756 -0.06301,0 -0.15122,0.0378 -0.189025,0.0756 z m 0.189025,0.56708 2.079281,2.07928 v 0.79391 h -4.158561 v -0.79391 z m 5.004624,2.87319 c -0.151221,0 -0.264636,0.11341 -0.264636,0.26463 0,0.15122 0.113415,0.26464 0.264636,0.26464 h 4.687832 c 0.15122,0 0.264636,-0.11342 0.264636,-0.26464 0,-0.15122 -0.113416,-0.26463 -0.264636,-0.26463 z m 7.348541,-3.51588 c -0.151221,0 -0.264636,0.11342 -0.264636,0.26464 v 6.99394 0.0378 c 0,0.063 0.0378,0.15122 0.07561,0.18902 0.0378,0.0378 0.126017,0.0756 0.189026,0.0756 h 0.0378 3.478069 c 0.06301,0 0.151221,-0.0378 0.189026,-0.0756 l 1.171958,-1.17196 c 0.03781,-0.0378 0.07561,-0.12601 0.07561,-0.18902 v -4.68783 c 0,-0.063 -0.0378,-0.15122 -0.07561,-0.18903 l -1.171958,-1.17196 c -0.0378,-0.0378 -0.126017,-0.0756 -0.189026,-0.0756 z m 0.264636,0.52927 h 3.137823 l 1.020738,1.02074 v 4.461 l -1.020738,1.02074 h -3.137823 z m 7.083905,-0.52927 c -0.15122,0 -0.264636,0.11342 -0.264636,0.26464 v 3.46547 0.0504 0.0378 3.47807 c 0,0.15122 0.113416,0.26463 0.264636,0.26463 h 4.687832 c 0.151221,0 0.264636,-0.11341 0.264636,-0.26463 0,-0.15122 -0.113415,-0.26464 -0.264636,-0.26464 h -4.423196 v -2.9866 h 3.251238 c 0.151221,0 0.264636,-0.11342 0.264636,-0.26464 0,-0.15122 -0.113415,-0.26463 -0.264636,-0.26463 h -3.251238 v -2.98661 h 4.423196 c 0.151221,0 0.264636,-0.11341 0.264636,-0.26463 0,-0.15122 -0.113415,-0.26464 -0.264636,-0.26464 z m 7.335936,0 c -0.138619,0 -0.252034,0.11342 -0.252034,0.25204 v 7.04435 c 0,0.15122 0.113415,0.26463 0.264636,0.26463 h 4.687832 c 0.15122,0 0.264636,-0.11341 0.264636,-0.26463 0,-0.15122 -0.113416,-0.26464 -0.264636,-0.26464 H 77.22188 v -6.77971 c 0,-0.15122 -0.113415,-0.25204 -0.264635,-0.25204 z m 9.705055,0 h -0.03781 -2.306111 c -0.15122,0 -0.264636,0.11342 -0.264636,0.26464 0,0.15122 0.113416,0.26463 0.264636,0.26463 h 2.07928 v 6.76712 c 0,0.15122 0.113416,0.26463 0.264636,0.26463 0.151221,0 0.264636,-0.11341 0.264636,-0.26463 v -6.76712 h 2.07928 c 0.151221,0 0.264636,-0.11341 0.264636,-0.26463 0,-0.15122 -0.113415,-0.26464 -0.264636,-0.26464 h -2.306111 z m 7.159516,0.0756 -2.343916,2.34392 c -0.03781,0.0378 -0.07561,0.12602 -0.07561,0.18902 v 1.12156 0.0504 0.0378 3.47807 c 0,0.15122 0.113415,0.26463 0.264635,0.26463 0.151221,0 0.264636,-0.11341 0.264636,-0.26463 v -3.25124 h 4.158561 v 3.25124 c 0,0.15122 0.113415,0.26463 0.264636,0.26463 0.15122,0 0.264635,-0.11341 0.264635,-0.26463 v -3.47807 -0.0378 -0.0378 -1.13416 c 0,-0.063 -0.03781,-0.15122 -0.07561,-0.18902 l -2.343916,-2.34392 c -0.0378,-0.0378 -0.126017,-0.0756 -0.189026,-0.0756 -0.06301,0 -0.15122,0.0378 -0.189025,0.0756 z m 0.189025,0.56708 2.079281,2.07928 v 0.79391 h -4.158561 v -0.79391 z"
       id="text1-1"
       aria-label="ISKRA-DELTA" /><g
       id="g40"
       transform="translate(177.81301,9.64397)"><path
         d="m -72.636581,138.40237 c -0.151221,0 -0.264636,0.11342 -0.264636,0.26464 0,0.063 0.03781,0.15122 0.08821,0.18902 l 1.083746,1.09635 v 3.40246 c 0,0.15122 0.113416,0.26464 0.264636,0.26464 0.15122,0 0.264636,-0.11342 0.264636,-0.26464 v -3.40246 l 1.020737,-1.02074 h 1.058543 0.0126 c 0.15122,0 0.264636,-0.11341 0.264636,-0.26463 0,-0.15122 -0.113416,-0.26464 -0.264636,-0.26464 h -0.0126 -1.171958 c -0.06301,0 -0.138619,0.0378 -0.176424,0.0756 l -0.995534,0.98294 -0.982933,-0.98294 c -0.0378,-0.0504 -0.126017,-0.0756 -0.189025,-0.0756 z"
         id="text39"
         style="font-size:12.6017px;font-family:FifteenTwenty;-inkscape-font-specification:FifteenTwenty;letter-spacing:0.0899583px;stroke:#000000;stroke-width:0"
         aria-label="r" /><path
         d="m -67.883386,138.40237 c -0.15122,0 -0.264636,0.11342 -0.264636,0.26464 0,0.15122 0.113416,0.26463 0.264636,0.26463 h 2.230501 l 1.020738,1.02074 v 0.41586 l -0.718297,-0.7183 c -0.0378,-0.0378 -0.126017,-0.0756 -0.189026,-0.0756 h -1.171958 c -0.06301,0 -0.15122,0.0378 -0.189025,0.0756 l -1.171959,1.17196 c -0.03781,0.0378 -0.07561,0.12602 -0.07561,0.18902 v 1.17196 c 0,0.063 0.03781,0.15122 0.07561,0.18903 l 1.171959,1.17196 c 0.0378,0.0378 0.126017,0.0756 0.189025,0.0756 h 1.171958 c 0.06301,0 0.151221,-0.0378 0.189026,-0.0756 l 0.982932,-0.98294 0.982933,0.98294 c 0.0378,0.0504 0.126017,0.0756 0.189025,0.0756 0.151221,0 0.264636,-0.11342 0.264636,-0.26464 0,-0.063 -0.0252,-0.15122 -0.07561,-0.18902 l -1.096348,-1.09635 v -1.02074 -0.0378 -0.0378 -1.13415 c 0,-0.063 -0.03781,-0.15122 -0.07561,-0.18903 l -1.171958,-1.17196 c -0.0378,-0.0378 -0.126017,-0.0756 -0.189026,-0.0756 z m 1.285373,1.70123 h 0.945128 l 1.020738,1.02074 v 0.94513 l -1.020738,1.02073 h -0.945128 l -1.020737,-1.02073 v -0.94513 z"
         id="text38"
         style="font-size:12.6017px;font-family:FifteenTwenty;-inkscape-font-specification:FifteenTwenty;letter-spacing:0.0899583px;stroke:#000000;stroke-width:0"
         aria-label="a" /><path
         d="m -60.798874,138.40237 c -0.06301,0 -0.138619,0.0378 -0.176424,0.0756 l -1.171958,1.17196 c -0.0378,0.0378 -0.08821,0.12602 -0.08821,0.18903 v 2.34391 c 0,0.063 0.05041,0.15122 0.08821,0.18903 l 1.171958,1.17196 c 0.0378,0.0378 0.113415,0.0756 0.176424,0.0756 h 1.171958 c 0.06301,0 0.15122,-0.0378 0.189025,-0.0756 l 1.171958,-1.17196 c 0.0378,-0.0378 0.08821,-0.12602 0.08821,-0.18903 0,-0.15122 -0.113415,-0.26463 -0.264635,-0.26463 -0.06301,0 -0.151221,0.0378 -0.189026,0.0756 l -1.096348,1.09634 h -0.957729 l -1.020738,-1.02073 v -2.11709 l 1.020738,-1.02074 h 0.957729 l 1.096348,1.09635 c 0.0378,0.0378 0.126017,0.0756 0.189026,0.0756 0.15122,0 0.264635,-0.11341 0.264635,-0.26463 0,-0.063 -0.05041,-0.15122 -0.08821,-0.18903 l -1.171958,-1.17196 c -0.0378,-0.0378 -0.126017,-0.0756 -0.189025,-0.0756 z"
         id="text37"
         style="font-size:12.6017px;font-family:FifteenTwenty;-inkscape-font-specification:FifteenTwenty;letter-spacing:0.0899583px;stroke:#000000;stroke-width:0"
         aria-label="c" /><path
         d="m -57.482272,138.65441 v 4.70043 c 0,0.15122 0.113415,0.26464 0.264636,0.26464 h 3.528476 c 0.15122,0 0.264635,-0.11342 0.264635,-0.26464 v -4.70043 c 0,-0.15122 -0.113415,-0.25204 -0.264635,-0.25204 -0.151221,0 -0.264636,0.10082 -0.264636,0.25204 v 4.43579 H -56.953 v -4.43579 c 0,-0.15122 -0.113416,-0.25204 -0.264636,-0.25204 -0.138619,0 -0.264636,0.11342 -0.264636,0.25204 z"
         id="text36"
         style="font-size:12.6017px;font-family:FifteenTwenty;-inkscape-font-specification:FifteenTwenty;letter-spacing:0.0899583px;stroke:#000000;stroke-width:0"
         aria-label="u" /><path
         d="m -51.29248,138.40237 c -0.06301,0 -0.138619,0.0378 -0.176424,0.0756 l -0.730898,0.7183 V 138.667 c 0,-0.13862 -0.126017,-0.26464 -0.264636,-0.26464 -0.138619,0 -0.264636,0.12602 -0.264636,0.26464 v 1.17196 3.51587 c 0,0.15122 0.113416,0.26464 0.264636,0.26464 0.151221,0 0.264636,-0.11342 0.264636,-0.26464 v -3.40246 l 1.020737,-1.02074 h 0.95773 l 1.020737,1.02074 v 3.40246 c 0,0.15122 0.113416,0.26464 0.264636,0.26464 0.15122,0 0.264636,-0.11342 0.264636,-0.26464 v -3.51587 c 0,-0.063 -0.05041,-0.15122 -0.08821,-0.18903 l -1.171958,-1.17196 c -0.03781,-0.0378 -0.113416,-0.0756 -0.176424,-0.0756 z"
         id="text35"
         style="font-size:12.6017px;font-family:FifteenTwenty;-inkscape-font-specification:FifteenTwenty;letter-spacing:0.0899583px;stroke:#000000;stroke-width:0"
         aria-label="n" /><path
         d="m -47.711239,138.40237 c -0.15122,0 -0.264635,0.11342 -0.264635,0.26464 0,0.15122 0.113415,0.26463 0.264635,0.26463 h 2.230501 l 1.020738,1.02074 v 0.41586 l -0.718297,-0.7183 c -0.0378,-0.0378 -0.126017,-0.0756 -0.189025,-0.0756 h -1.171959 c -0.06301,0 -0.15122,0.0378 -0.189025,0.0756 l -1.171958,1.17196 c -0.03781,0.0378 -0.07561,0.12602 -0.07561,0.18902 v 1.17196 c 0,0.063 0.0378,0.15122 0.07561,0.18903 l 1.171958,1.17196 c 0.0378,0.0378 0.126017,0.0756 0.189025,0.0756 h 1.171959 c 0.06301,0 0.15122,-0.0378 0.189025,-0.0756 l 0.982933,-0.98294 0.982932,0.98294 c 0.03781,0.0504 0.126017,0.0756 0.189026,0.0756 0.15122,0 0.264635,-0.11342 0.264635,-0.26464 0,-0.063 -0.0252,-0.15122 -0.07561,-0.18902 l -1.096348,-1.09635 v -1.02074 -0.0378 -0.0378 -1.13415 c 0,-0.063 -0.03781,-0.15122 -0.07561,-0.18903 l -1.171958,-1.17196 c -0.0378,-0.0378 -0.126017,-0.0756 -0.189025,-0.0756 z m 1.285374,1.70123 h 0.945127 l 1.020738,1.02074 v 0.94513 l -1.020738,1.02073 h -0.945127 l -1.020738,-1.02073 v -0.94513 z"
         id="text34"
         style="font-size:12.6017px;font-family:FifteenTwenty;-inkscape-font-specification:FifteenTwenty;letter-spacing:0.0899583px;stroke:#000000;stroke-width:0"
         aria-label="a" /><path
         d="m -42.06332,136.31049 v 7.04435 c 0,0.15122 0.113415,0.26464 0.264636,0.26464 h 1.171958 0.0126 c 0.15122,0 0.264635,-0.11342 0.264635,-0.26464 0,-0.15122 -0.113415,-0.26464 -0.264635,-0.26464 h -0.0126 -0.907322 v -6.77971 c 0,-0.15122 -0.113416,-0.25203 -0.264636,-0.25203 -0.138619,0 -0.264636,0.11341 -0.264636,0.25203 z"
         id="text33"
         style="font-size:12.6017px;font-family:FifteenTwenty;-inkscape-font-specification:FifteenTwenty;letter-spacing:0.0899583px;stroke:#000000;stroke-width:0"
         aria-label="l" /><path
         d="m -38.217445,138.40237 c -0.06301,0 -0.138619,0.0378 -0.176424,0.0756 l -0.730898,0.7183 V 138.667 c 0,-0.13862 -0.126017,-0.26464 -0.264636,-0.26464 -0.138619,0 -0.264636,0.12602 -0.264636,0.26464 v 1.17196 3.51587 c 0,0.15122 0.113416,0.26464 0.264636,0.26464 0.15122,0 0.264636,-0.11342 0.264636,-0.26464 v -3.40246 l 1.020737,-1.02074 h 0.95773 l 1.020737,1.02074 v 3.40246 c 0,0.15122 0.113416,0.26464 0.264636,0.26464 0.15122,0 0.264636,-0.11342 0.264636,-0.26464 v -3.51587 c 0,-0.063 -0.05041,-0.15122 -0.08821,-0.18903 l -1.171958,-1.17196 c -0.0378,-0.0378 -0.113416,-0.0756 -0.176424,-0.0756 z"
         id="text32"
         style="font-size:12.6017px;font-family:FifteenTwenty;-inkscape-font-specification:FifteenTwenty;letter-spacing:0.0899583px;stroke:#000000;stroke-width:0"
         aria-label="n" /><path
         d="m -34.636205,137.23041 c -0.138618,0 -0.264635,0.12602 -0.264635,0.26464 v 1.17196 c 0,0.15122 0.113415,0.26463 0.264635,0.26463 0.151221,0 0.264636,-0.11341 0.264636,-0.26463 v -1.17196 c 0,-0.15122 -0.113415,-0.26464 -0.264636,-0.26464 z m 0,2.34392 c -0.138618,0 -0.264635,0.12602 -0.264635,0.26464 v 3.51587 c 0,0.15122 0.113415,0.26464 0.264635,0.26464 0.151221,0 0.264636,-0.11342 0.264636,-0.26464 v -3.51587 c 0,-0.15122 -0.113415,-0.26464 -0.264636,-0.26464 z"
         id="text31"
         style="font-size:12.6017px;font-family:FifteenTwenty;-inkscape-font-specification:FifteenTwenty;letter-spacing:0.0899583px;stroke:#000000;stroke-width:0"
         aria-label="i" /><path
         d="m -32.239523,138.40237 c -0.06301,0 -0.138619,0.0378 -0.176424,0.0756 l -1.171959,1.17196 c -0.0378,0.0378 -0.08821,0.12602 -0.08821,0.18903 0,0.063 0.05041,0.15122 0.08821,0.18902 l 1.171959,1.17196 c 0.03781,0.0378 0.113415,0.0756 0.176424,0.0756 h 1.071145 l 0.907323,0.90732 -0.907323,0.90732 h -0.95773 l -1.096348,-1.09634 c -0.03781,-0.0378 -0.126017,-0.0756 -0.189026,-0.0756 -0.15122,0 -0.264636,0.11341 -0.264636,0.26463 0,0.063 0.05041,0.15122 0.08821,0.18903 l 1.171959,1.17196 c 0.03781,0.0378 0.113415,0.0756 0.176424,0.0756 h 1.184561 c 0.06301,0 0.138618,-0.0378 0.176423,-0.0756 l 1.171959,-1.17196 c 0.03781,-0.0378 0.08821,-0.12602 0.08821,-0.18903 0,-0.063 -0.05041,-0.15122 -0.08821,-0.18902 l -1.171959,-1.17196 c -0.0378,-0.0378 -0.113415,-0.0756 -0.176423,-0.0756 h -1.071146 l -0.907322,-0.90732 0.907322,-0.90733 h 0.95773 l 1.096348,1.09635 c 0.0378,0.0378 0.126018,0.0756 0.189026,0.0756 0.151221,0 0.252034,-0.11341 0.252034,-0.26463 0,-0.063 -0.0378,-0.15122 -0.07561,-0.18903 l -1.171956,-1.17196 c -0.03781,-0.0378 -0.113416,-0.0756 -0.176424,-0.0756 z"
         id="text30"
         style="font-size:12.6017px;font-family:FifteenTwenty;-inkscape-font-specification:FifteenTwenty;letter-spacing:0.0899583px;stroke:#000000;stroke-width:0"
         aria-label="s" /><path
         d="m -28.922918,136.31049 v 5.83459 0.0378 0.0378 1.13415 c 0,0.15122 0.113415,0.26464 0.264636,0.26464 0.15122,0 0.264636,-0.11342 0.264636,-0.26464 v -1.05854 l 0.907322,-0.90732 2.167494,2.15489 c 0.0378,0.0504 0.126017,0.0756 0.189026,0.0756 0.15122,0 0.264636,-0.11342 0.264636,-0.26464 0,-0.063 -0.0378,-0.15122 -0.08821,-0.18902 l -2.154892,-2.1549 2.154892,-2.15489 c 0.0378,-0.0378 0.08821,-0.13861 0.08821,-0.20162 0,-0.15122 -0.113416,-0.25204 -0.264636,-0.25204 -0.06301,0 -0.151221,0.0378 -0.189026,0.0756 l -2.318714,2.31872 c -0.0252,0.0126 -0.05041,0.0252 -0.06301,0.0504 l -0.693094,0.6931 v -5.22971 c 0,-0.15122 -0.113415,-0.25203 -0.264636,-0.25203 -0.138618,0 -0.264636,0.11341 -0.264636,0.25203 z"
         id="text29"
         style="font-size:12.6017px;font-family:FifteenTwenty;-inkscape-font-specification:FifteenTwenty;letter-spacing:0.0899583px;stroke:#000000;stroke-width:0"
         aria-label="k" /><path
         d="m -23.905081,137.23041 c -0.138619,0 -0.264636,0.12602 -0.264636,0.26464 v 1.17196 c 0,0.15122 0.113416,0.26463 0.264636,0.26463 0.151221,0 0.264636,-0.11341 0.264636,-0.26463 v -1.17196 c 0,-0.15122 -0.113415,-0.26464 -0.264636,-0.26464 z m 0,2.34392 c -0.138619,0 -0.264636,0.12602 -0.264636,0.26464 v 3.51587 c 0,0.15122 0.113416,0.26464 0.264636,0.26464 0.151221,0 0.264636,-0.11342 0.264636,-0.26464 v -3.51587 c 0,-0.15122 -0.113415,-0.26464 -0.264636,-0.26464 z"
         id="text28"
         style="font-size:12.6017px;font-family:FifteenTwenty;-inkscape-font-specification:FifteenTwenty;letter-spacing:0.0899583px;stroke:#000000;stroke-width:0"
         aria-label="i" /></g><g
       id="g41"
       transform="translate(177.4186,9.64397)"><path
         d="m -13.504447,138.40237 c -0.06301,0 -0.138619,0.0378 -0.176424,0.0756 l -1.171958,1.17196 c -0.0378,0.0378 -0.08821,0.12602 -0.08821,0.18903 0,0.063 0.05041,0.15122 0.08821,0.18902 l 1.171958,1.17196 c 0.03781,0.0378 0.113416,0.0756 0.176424,0.0756 h 1.071145 l 0.907322,0.90732 -0.907322,0.90732 h -0.95773 l -1.096348,-1.09634 c -0.0378,-0.0378 -0.126016,-0.0756 -0.189025,-0.0756 -0.15122,0 -0.264636,0.11341 -0.264636,0.26463 0,0.063 0.05041,0.15122 0.08821,0.18903 l 1.171959,1.17196 c 0.03781,0.0378 0.113416,0.0756 0.176424,0.0756 h 1.18456 c 0.06301,0 0.138619,-0.0378 0.176424,-0.0756 l 1.171958,-1.17196 c 0.0378,-0.0378 0.08821,-0.12602 0.08821,-0.18903 0,-0.063 -0.05041,-0.15122 -0.08821,-0.18902 l -1.171958,-1.17196 c -0.03781,-0.0378 -0.113416,-0.0756 -0.176424,-0.0756 h -1.071145 l -0.907322,-0.90732 0.907322,-0.90733 h 0.95773 l 1.096347,1.09635 c 0.03781,0.0378 0.126017,0.0756 0.189026,0.0756 0.15122,0 0.252034,-0.11341 0.252034,-0.26463 0,-0.063 -0.0378,-0.15122 -0.07561,-0.18903 l -1.171958,-1.17196 c -0.03781,-0.0378 -0.113416,-0.0756 -0.176424,-0.0756 z"
         id="text27"
         style="font-size:12.6017px;font-family:FifteenTwenty;-inkscape-font-specification:FifteenTwenty;letter-spacing:0.0899583px;stroke:#000000;stroke-width:0"
         aria-label="s" /><path
         d="m -9.3798034,137.23041 c -0.1386181,0 -0.2646347,0.12602 -0.2646347,0.26464 v 1.17196 c 0,0.15122 0.113415,0.26463 0.2646347,0.26463 0.151221,0 0.264636,-0.11341 0.264636,-0.26463 v -1.17196 c 0,-0.15122 -0.113415,-0.26464 -0.264636,-0.26464 z m 0,2.34392 c -0.1386181,0 -0.2646347,0.12602 -0.2646347,0.26464 v 3.51587 c 0,0.15122 0.113415,0.26464 0.2646347,0.26464 0.151221,0 0.264636,-0.11342 0.264636,-0.26464 v -3.51587 c 0,-0.15122 -0.113415,-0.26464 -0.264636,-0.26464 z"
         id="text26"
         style="font-size:12.6017px;font-family:FifteenTwenty;-inkscape-font-specification:FifteenTwenty;letter-spacing:0.0899583px;stroke:#000000;stroke-width:0"
         aria-label="i" /><path
         d="m -6.4397166,138.40237 c -0.06301,0 -0.1386186,0.0378 -0.1764236,0.0756 l -1.1719574,1.17196 c -0.0378,0.0378 -0.08821,0.12602 -0.08821,0.18903 0,0.063 0.05041,0.15122 0.08821,0.18902 l 1.1719574,1.17196 c 0.0378,0.0378 0.113415,0.0756 0.1764236,0.0756 h 1.0711434 l 0.9073228,0.90732 -0.9073228,0.90732 h -0.9577283 l -1.0963475,-1.09634 c -0.0378,-0.0378 -0.1260166,-0.0756 -0.1890246,-0.0756 -0.151221,0 -0.264636,0.11341 -0.264636,0.26463 0,0.063 0.05041,0.15122 0.08821,0.18903 l 1.1719574,1.17196 c 0.0378,0.0378 0.113415,0.0756 0.1764236,0.0756 h 1.1845595 c 0.06301,0 0.138618,-0.0378 0.176424,-0.0756 l 1.1719574,-1.17196 c 0.0378,-0.0378 0.08821,-0.12602 0.08821,-0.18903 0,-0.063 -0.05041,-0.15122 -0.08821,-0.18902 l -1.1719574,-1.17196 c -0.03781,-0.0378 -0.113416,-0.0756 -0.176424,-0.0756 h -1.0711444 l -0.9073214,-0.90732 0.9073214,-0.90733 h 0.9577283 l 1.0963474,1.09635 c 0.0378,0.0378 0.1260171,0.0756 0.1890261,0.0756 0.15122,0 0.252034,-0.11341 0.252034,-0.26463 0,-0.063 -0.0378,-0.15122 -0.07561,-0.18903 l -1.1719574,-1.17196 c -0.03781,-0.0378 -0.113416,-0.0756 -0.176424,-0.0756 z"
         id="text25"
         style="font-size:12.6017px;font-family:FifteenTwenty;-inkscape-font-specification:FifteenTwenty;letter-spacing:0.0899583px;stroke:#000000;stroke-width:0"
         aria-label="s" /><path
         d="m -1.4077524,136.31049 v 2.09188 h -0.9073214 c -0.15122,0 -0.264636,0.11342 -0.264636,0.26464 0,0.15122 0.113416,0.26463 0.264636,0.26463 h 0.9073214 v 4.4232 c 0,0.15122 0.113416,0.26464 0.2646356,0.26464 h 1.17195742 c 0.151221,0 0.264636,-0.11342 0.264636,-0.26464 0,-0.15122 -0.113415,-0.26464 -0.264636,-0.26464 H -0.8784807 v -4.15856 h 0.90732132 c 0.151221,0 0.264636,-0.11341 0.264636,-0.26463 0,-0.15122 -0.113415,-0.26464 -0.264636,-0.26464 H -0.8784807 v -2.09188 c 0,-0.15122 -0.113415,-0.25203 -0.2646361,-0.25203 -0.1386186,0 -0.2646356,0.11341 -0.2646356,0.25203 z"
         id="text24"
         style="font-size:12.6017px;font-family:FifteenTwenty;-inkscape-font-specification:FifteenTwenty;letter-spacing:0.0899583px;stroke:#000000;stroke-width:0"
         aria-label="t" /><path
         d="m 2.9689249,138.40237 c -0.06301,0 -0.138618,0.0378 -0.176423,0.0756 l -1.1719574,1.17196 c -0.03781,0.0378 -0.08821,0.12602 -0.08821,0.18903 v 1.13415 0.0378 0.0378 1.13415 c 0,0.063 0.05041,0.15122 0.08821,0.18903 l 1.1719574,1.17196 c 0.0378,0.0378 0.113415,0.0756 0.176423,0.0756 h 2.3565165 c 0.151221,0 0.264636,-0.11342 0.264636,-0.26464 0,-0.15122 -0.113415,-0.26464 -0.264636,-0.26464 H 3.0823406 l -1.0207374,-1.02073 v -0.79391 h 3.2638382 c 0.151221,0 0.264636,-0.11342 0.264636,-0.26464 v -1.17195 c 0,-0.063 -0.05041,-0.15122 -0.08821,-0.18903 L 4.32991,138.47795 c -0.0378,-0.0378 -0.126017,-0.0756 -0.189025,-0.0756 z m 0.1134157,0.52927 h 0.9577287 l 1.0207374,1.02074 v 0.79391 H 2.0616032 v -0.79391 z"
         id="text23"
         style="font-size:12.6017px;font-family:FifteenTwenty;-inkscape-font-specification:FifteenTwenty;letter-spacing:0.0899583px;stroke:#000000;stroke-width:0"
         aria-label="e" /><path
         d="m 6.8289352,138.65441 v 1.14675 0.0378 0.0378 3.47807 c 0,0.15122 0.1134147,0.26464 0.2646357,0.26464 0.15122,0 0.264636,-0.11342 0.264636,-0.26464 v -3.40246 l 0.9073214,-0.90732 0.9073214,0.90732 v 3.40246 c 0,0.15122 0.113416,0.26464 0.264636,0.26464 0.1512197,0 0.2646357,-0.11342 0.2646357,-0.26464 v -3.40246 l 0.9073216,-0.90732 0.907322,0.90732 v 3.40246 c 0,0.15122 0.113416,0.26464 0.264636,0.26464 0.151221,0 0.264636,-0.11342 0.264636,-0.26464 v -3.51587 c 0,-0.063 -0.03781,-0.15122 -0.07561,-0.18903 l -1.171958,-1.17196 c -0.0378,-0.0378 -0.126017,-0.0756 -0.189026,-0.0756 -0.06301,0 -0.15122,0.0378 -0.189025,0.0756 l -0.9829323,0.98294 -0.9829324,-0.98294 c -0.0378,-0.0378 -0.126017,-0.0756 -0.189025,-0.0756 -0.06301,0 -0.15122,0.0378 -0.189026,0.0756 l -0.7182954,0.7183 v -0.54187 c 0,-0.15122 -0.113416,-0.25204 -0.264636,-0.25204 -0.138619,0 -0.2646357,0.11342 -0.2646357,0.25204 z"
         id="text22"
         style="font-size:12.6017px;font-family:FifteenTwenty;-inkscape-font-specification:FifteenTwenty;letter-spacing:0.0899583px;stroke:#000000;stroke-width:0"
         aria-label="m" /><path
         d="m 13.54953,137.23041 c -0.138618,0 -0.264635,0.12602 -0.264635,0.26464 v 1.17196 c 0,0.15122 0.113415,0.26463 0.264635,0.26463 0.151221,0 0.264636,-0.11341 0.264636,-0.26463 v -1.17196 c 0,-0.15122 -0.113415,-0.26464 -0.264636,-0.26464 z m 0,2.34392 c -0.138618,0 -0.264635,0.12602 -0.264635,0.26464 v 3.51587 c 0,0.15122 0.113415,0.26464 0.264635,0.26464 0.151221,0 0.264636,-0.11342 0.264636,-0.26464 v -3.51587 c 0,-0.15122 -0.113415,-0.26464 -0.264636,-0.26464 z"
         id="text21"
         style="font-size:12.6017px;font-family:FifteenTwenty;-inkscape-font-specification:FifteenTwenty;letter-spacing:0.0899583px;stroke:#000000;stroke-width:0"
         aria-label="i" /></g><text
       xml:space="preserve"
       style="font-size:3.175px;font-family:FifteenTwenty;-inkscape-font-specification:FifteenTwenty;text-align:start;letter-spacing:-2.42094px;writing-mode:lr-tb;direction:ltr;text-anchor:start;fill:#000000;stroke:#000000;stroke-width:0"
       x="56.75705"
       y="178.42242"
       id="text1"><tspan
         sodipodi:role="line"
         id="tspan1"
         style="stroke-width:0"
         x="56.75705"
         y="178.42242" /></text></g></svg>
